<svg width="342" height="180" viewBox="0 0 342 180" fill="none" xmlns="http://www.w3.org/2000/svg">
<mask id="path-1-inside-1_2231_8437" fill="white">
<path d="M0 20C0 8.9543 8.95431 0 20 0H322C333.046 0 342 8.95431 342 20V180H0V20Z"/>
</mask>
<path d="M0 20C0 8.9543 8.95431 0 20 0H322C333.046 0 342 8.95431 342 20V180H0V20Z" fill="#213536"/>
<path d="M-1 20C-1 8.40202 8.40202 -1 20 -1H322C333.598 -1 343 8.40202 343 20H341C341 9.50659 332.493 1 322 1H20C9.50659 1 1 9.50659 1 20H-1ZM342 180H0H342ZM-1 180V20C-1 8.40202 8.40202 -1 20 -1V1C9.50659 1 1 9.50659 1 20V180H-1ZM322 -1C333.598 -1 343 8.40202 343 20V180H341V20C341 9.50659 332.493 1 322 1V-1Z" fill="#60E5A3" mask="url(#path-1-inside-1_2231_8437)"/>
<g clip-path="url(#clip0_2231_8437)">
<path d="M56.5097 95.25C70.6619 95.25 82.1345 83.7773 82.1345 69.625C82.1345 55.4727 70.6619 44 56.5097 44C42.3574 44 30.8848 55.4727 30.8848 69.625C30.8848 83.7773 42.3574 95.25 56.5097 95.25Z" fill="#CC2334"/>
<path d="M42.2104 61.0519C42.0929 61.0488 41.9784 61.0886 41.8882 61.1639C41.798 61.2392 41.7384 61.3448 41.7205 61.4609C41.7026 61.577 41.7276 61.6957 41.7909 61.7947C41.8542 61.8936 41.9514 61.9661 42.0643 61.9985C42.7689 62.1825 44.3633 62.722 45.6682 64.0541C45.0873 64.4516 44.6189 64.9925 44.3085 65.6243C43.9981 66.2562 43.8563 66.9575 43.8967 67.6603C43.9371 68.3631 44.1585 69.0435 44.5393 69.6356C44.9201 70.2276 45.4474 70.7113 46.0701 71.0395C46.6928 71.3678 47.3898 71.5296 48.0934 71.5093C48.7971 71.4889 49.4836 71.2871 50.0862 70.9233C50.6889 70.5596 51.1874 70.0463 51.5333 69.4332C51.8792 68.8201 52.0609 68.128 52.0606 67.424C52.0606 61.9634 44.2929 61.1736 42.2104 61.0519Z" fill="black"/>
<path d="M70.8039 61.0518C68.7227 61.1667 60.9551 61.9632 60.9551 67.4266C60.9554 68.1301 61.1375 68.8216 61.4835 69.4341C61.8296 70.0466 62.328 70.5594 62.9304 70.9227C63.5328 71.2861 64.2189 71.4877 64.9221 71.5081C65.6253 71.5285 66.3219 71.3669 66.9443 71.039C67.5668 70.7112 68.094 70.2281 68.4749 69.6367C68.8559 69.0452 69.0777 68.3654 69.1187 67.6631C69.1598 66.9608 69.0189 66.2597 68.7095 65.6279C68.4001 64.9961 67.9328 64.4548 67.3528 64.0566C68.6524 62.7246 70.2535 62.185 70.9581 62.0011C71.0712 61.9686 71.1685 61.896 71.2318 61.7969C71.2951 61.6978 71.3201 61.579 71.302 61.4627C71.2839 61.3465 71.224 61.2409 71.1335 61.1657C71.0431 61.0906 70.9283 61.051 70.8107 61.0545L70.8039 61.0518Z" fill="black"/>
<path d="M63.5357 83.0349C63.3402 83.0352 63.1479 82.9857 62.9768 82.8911C62.8058 82.7965 62.6616 82.6598 62.558 82.494C62.4701 82.3588 60.4606 79.285 56.5064 79.285C52.6334 79.285 50.5306 82.3818 50.4427 82.5143C50.2738 82.7683 50.0112 82.9452 49.7123 83.0063C49.4134 83.0673 49.1025 83.0077 48.8475 82.8403C48.5924 82.673 48.4139 82.4115 48.351 82.113C48.2881 81.8145 48.3458 81.5033 48.5116 81.2472C48.6252 81.0727 51.3596 76.9766 56.5064 76.9766C61.771 76.9766 64.4039 81.0917 64.5135 81.2675C64.6224 81.4421 64.6827 81.6428 64.6881 81.8486C64.6934 82.0544 64.6437 82.2579 64.544 82.438C64.4443 82.6182 64.2982 82.7684 64.1209 82.8731C63.9437 82.9778 63.7416 83.0332 63.5357 83.0336V83.0349Z" fill="black"/>
<path d="M113.525 95.25C127.678 95.25 139.15 83.7773 139.15 69.625C139.15 55.4727 127.678 44 113.525 44C99.373 44 87.9004 55.4727 87.9004 69.625C87.9004 83.7773 99.373 95.25 113.525 95.25Z" fill="#EF4B3F"/>
<path d="M104.994 71.5115C107.25 71.5115 109.079 69.6824 109.079 67.4262C109.079 65.1699 107.25 63.3408 104.994 63.3408C102.737 63.3408 100.908 65.1699 100.908 67.4262C100.908 69.6824 102.737 71.5115 104.994 71.5115Z" fill="black"/>
<path d="M122.056 71.5115C124.312 71.5115 126.141 69.6824 126.141 67.4262C126.141 65.1699 124.312 63.3408 122.056 63.3408C119.8 63.3408 117.971 65.1699 117.971 67.4262C117.971 69.6824 119.8 71.5115 122.056 71.5115Z" fill="black"/>
<path d="M120.554 83.0349C120.358 83.035 120.166 82.9854 119.995 82.8908C119.825 82.7961 119.681 82.6596 119.577 82.494C119.489 82.3588 117.48 79.285 113.526 79.285C109.615 79.285 107.485 82.4778 107.463 82.5102C107.383 82.6423 107.276 82.7569 107.151 82.8471C107.025 82.9373 106.883 83.0014 106.732 83.0355C106.581 83.0696 106.424 83.073 106.272 83.0456C106.12 83.0181 105.975 82.9604 105.845 82.8757C105.716 82.7911 105.605 82.6813 105.518 82.5528C105.432 82.4244 105.373 82.2799 105.343 82.128C105.314 81.9761 105.315 81.8199 105.348 81.6686C105.38 81.5173 105.442 81.374 105.531 81.2472C105.644 81.0727 108.379 76.9766 113.526 76.9766C118.79 76.9766 121.422 81.0917 121.531 81.2675C121.64 81.4421 121.7 81.6428 121.706 81.8486C121.711 82.0544 121.661 82.2579 121.562 82.438C121.462 82.6182 121.316 82.7684 121.139 82.8731C120.961 82.9778 120.759 83.0332 120.554 83.0336V83.0349Z" fill="black"/>
<path d="M170.543 95.25C184.695 95.25 196.168 83.7773 196.168 69.625C196.168 55.4727 184.695 44 170.543 44C156.391 44 144.918 55.4727 144.918 69.625C144.918 83.7773 156.391 95.25 170.543 95.25Z" fill="#EF8035"/>
<path d="M162.011 73.7107C164.267 73.7107 166.096 71.8817 166.096 69.6254C166.096 67.3691 164.267 65.54 162.011 65.54C159.755 65.54 157.926 67.3691 157.926 69.6254C157.926 71.8817 159.755 73.7107 162.011 73.7107Z" fill="black"/>
<path d="M179.072 73.7107C181.328 73.7107 183.157 71.8817 183.157 69.6254C183.157 67.3691 181.328 65.54 179.072 65.54C176.815 65.54 174.986 67.3691 174.986 69.6254C174.986 71.8817 176.815 73.7107 179.072 73.7107Z" fill="black"/>
<path d="M177.566 83.0353H163.514C163.208 83.0353 162.914 82.9137 162.698 82.6971C162.481 82.4805 162.359 82.1868 162.359 81.8805C162.359 81.5742 162.481 81.2804 162.698 81.0638C162.914 80.8473 163.208 80.7256 163.514 80.7256H177.566C177.872 80.7256 178.166 80.8473 178.383 81.0638C178.599 81.2804 178.721 81.5742 178.721 81.8805C178.721 82.1868 178.599 82.4805 178.383 82.6971C178.166 82.9137 177.872 83.0353 177.566 83.0353Z" fill="black"/>
<path d="M227.558 95.25C241.711 95.25 253.183 83.7773 253.183 69.625C253.183 55.4727 241.711 44 227.558 44C213.406 44 201.934 55.4727 201.934 69.625C201.934 83.7773 213.406 95.25 227.558 95.25Z" fill="#EFB025"/>
<path d="M219.027 71.5115C221.283 71.5115 223.112 69.6824 223.112 67.4262C223.112 65.1699 221.283 63.3408 219.027 63.3408C216.77 63.3408 214.941 65.1699 214.941 67.4262C214.941 69.6824 216.77 71.5115 219.027 71.5115Z" fill="black"/>
<path d="M236.091 71.5115C238.347 71.5115 240.177 69.6824 240.177 67.4262C240.177 65.1699 238.347 63.3408 236.091 63.3408C233.835 63.3408 232.006 65.1699 232.006 67.4262C232.006 69.6824 233.835 71.5115 236.091 71.5115Z" fill="black"/>
<path d="M227.559 83.0358C222.295 83.0358 219.662 78.9194 219.552 78.745C219.399 78.4859 219.352 78.177 219.423 77.8843C219.494 77.5915 219.676 77.338 219.931 77.1778C220.186 77.0176 220.494 76.9635 220.788 77.0268C221.083 77.0902 221.341 77.2661 221.508 77.5171C221.596 77.6523 223.605 80.7261 227.559 80.7261C231.47 80.7261 233.6 77.5346 233.62 77.5022C233.791 77.2542 234.052 77.0827 234.348 77.0245C234.643 76.9662 234.95 77.0257 235.202 77.1903C235.454 77.3549 235.632 77.6116 235.698 77.9055C235.764 78.1995 235.712 78.5075 235.554 78.7639C235.445 78.9383 232.706 83.0358 227.559 83.0358Z" fill="black"/>
<path d="M284.578 95.25C298.73 95.25 310.203 83.7773 310.203 69.625C310.203 55.4727 298.73 44 284.578 44C270.426 44 258.953 55.4727 258.953 69.625C258.953 83.7773 270.426 95.25 284.578 95.25Z" fill="#6EBF43"/>
<path d="M279.921 69.1786C279.846 69.2357 279.756 69.2697 279.662 69.2767C279.568 69.2837 279.474 69.2632 279.391 69.2178C275.352 66.9919 270.985 68.1265 270.037 68.3104C270.006 68.3163 269.975 68.3195 269.944 68.3199C269.854 68.3201 269.765 68.2948 269.689 68.2469C269.612 68.1991 269.551 68.1306 269.511 68.0494C269.391 67.8006 269.544 67.5694 269.76 67.3963C270.455 66.8351 274.981 63.0445 279.983 68.4592C280.029 68.5094 280.064 68.5684 280.085 68.6327C280.107 68.6969 280.115 68.7649 280.109 68.8325C280.104 68.9 280.084 68.9656 280.051 69.0252C280.019 69.0848 279.975 69.137 279.921 69.1786Z" fill="black"/>
<path d="M289.23 69.1786C289.305 69.2357 289.394 69.2698 289.488 69.2768C289.582 69.2837 289.676 69.2633 289.758 69.2178C293.799 66.9919 298.166 68.1265 299.114 68.3104C299.144 68.3163 299.175 68.3194 299.206 68.3199C299.296 68.3201 299.385 68.2949 299.462 68.2471C299.538 68.1992 299.6 68.1307 299.64 68.0494C299.76 67.8006 299.606 67.5694 299.391 67.3963C298.696 66.8351 294.17 63.0445 289.168 68.4592C289.122 68.5093 289.087 68.5683 289.065 68.6326C289.043 68.6969 289.035 68.7649 289.041 68.8325C289.047 68.9001 289.067 68.9658 289.099 69.0254C289.132 69.0849 289.176 69.1371 289.23 69.1786Z" fill="black"/>
<path d="M275.5 78.1328C275.5 78.1328 276.974 84.7118 284.575 84.7118C292.112 84.7118 293.651 78.1328 293.651 78.1328H275.5Z" fill="black"/>
<path d="M199.049 124.663H142.033V130.945H199.049V124.663Z" fill="#EF8035"/>
<path d="M256.067 124.663H199.051V130.945H256.067V124.663Z" fill="#EFB025"/>
<path d="M256.068 124.663H310.821C311.421 124.663 311.997 124.902 312.421 125.326C312.846 125.751 313.084 126.326 313.084 126.927V128.685C313.084 129.285 312.846 129.861 312.421 130.286C311.997 130.71 311.421 130.949 310.821 130.949H256.068V124.663Z" fill="#6EBF43"/>
<path d="M142.032 124.663H85.0156V130.945H142.032V124.663Z" fill="#EF4B3F"/>
<path d="M30.2638 124.663H85.016V130.944H30.2638C29.6636 130.944 29.088 130.706 28.6635 130.282C28.239 129.858 28.0004 129.282 28 128.682V126.924C28 126.324 28.2385 125.748 28.663 125.323C29.0876 124.899 29.6634 124.66 30.2638 124.66V124.663Z" fill="#CC2334"/>
<path d="M228.196 136.391C233.274 136.391 237.391 132.274 237.391 127.196C237.391 122.117 233.274 118 228.196 118C223.117 118 219 122.117 219 127.196C219 132.274 223.117 136.391 228.196 136.391Z" fill="#F4F4F4"/>
<path d="M228.196 133.921C231.91 133.921 234.921 130.91 234.921 127.196C234.921 123.482 231.91 120.471 228.196 120.471C224.482 120.471 221.471 123.482 221.471 127.196C221.471 130.91 224.482 133.921 228.196 133.921Z" fill="white"/>
</g>
<defs>
<clipPath id="clip0_2231_8437">
<rect width="285.084" height="93" fill="white" transform="translate(28 44)"/>
</clipPath>
</defs>
</svg>
