<svg width="342" height="180" viewBox="0 0 342 180" fill="none" xmlns="http://www.w3.org/2000/svg">
<mask id="path-1-inside-1_2229_6620" fill="white">
<path d="M0 20C0 8.9543 8.95431 0 20 0H322C333.046 0 342 8.95431 342 20V180H0V20Z"/>
</mask>
<path d="M0 20C0 8.9543 8.95431 0 20 0H322C333.046 0 342 8.95431 342 20V180H0V20Z" fill="#213536"/>
<path d="M-1 20C-1 8.40202 8.40202 -1 20 -1H322C333.598 -1 343 8.40202 343 20H341C341 9.50659 332.493 1 322 1H20C9.50659 1 1 9.50659 1 20H-1ZM342 180H0H342ZM-1 180V20C-1 8.40202 8.40202 -1 20 -1V1C9.50659 1 1 9.50659 1 20V180H-1ZM322 -1C333.598 -1 343 8.40202 343 20V180H341V20C341 9.50659 332.493 1 322 1V-1Z" fill="#60E5A3" mask="url(#path-1-inside-1_2229_6620)"/>
<path d="M0 20C0 8.9543 8.95431 0 20 0H321C332.046 0 341 8.95431 341 20V180H0V20Z" fill="url(#paint0_radial_2229_6620)"/>
<mask id="mask0_2229_6620" style="mask-type:alpha" maskUnits="userSpaceOnUse" x="0" y="0" width="342" height="180">
<mask id="path-4-inside-2_2229_6620" fill="white">
<path d="M0 20C0 8.9543 8.95431 0 20 0H322C333.046 0 342 8.95431 342 20V180H0V20Z"/>
</mask>
<path d="M0 20C0 8.9543 8.95431 0 20 0H322C333.046 0 342 8.95431 342 20V180H0V20Z" fill="#A5B1AC"/>
<path d="M-1 20C-1 8.40202 8.40202 -1 20 -1H322C333.598 -1 343 8.40202 343 20H341C341 9.50659 332.493 1 322 1H20C9.50659 1 1 9.50659 1 20H-1ZM342 180H0H342ZM-1 180V20C-1 8.40202 8.40202 -1 20 -1V1C9.50659 1 1 9.50659 1 20V180H-1ZM322 -1C333.598 -1 343 8.40202 343 20V180H341V20C341 9.50659 332.493 1 322 1V-1Z" fill="#60E5A3" mask="url(#path-4-inside-2_2229_6620)"/>
</mask>
<g mask="url(#mask0_2229_6620)">
<path d="M134.723 132.704C134.723 132.704 139.943 162.894 145.862 182.847L87.3168 183.85C87.3168 183.85 75.6057 153.755 81.6628 132.852C87.7199 111.949 134.723 132.704 134.723 132.704Z" fill="#1E1E1E"/>
<path d="M135.391 90.3666C135.089 91.5653 135.921 120.307 134.129 138.898C134.129 138.898 102.581 151.627 81.6619 139.958C64.1854 130.204 105.402 71.1769 105.402 71.1769C105.402 71.1769 125.191 69.782 129.09 72.1794C132.988 74.5768 135.391 90.3666 135.391 90.3666Z" fill="white"/>
<path d="M126.024 106.664C131.652 105.323 135.127 99.6736 133.786 94.0458C132.446 88.418 126.796 84.9426 121.169 86.2833C115.541 87.6241 112.065 93.2732 113.406 98.901C114.747 104.529 120.396 108.004 126.024 106.664Z" stroke="#1E1E1E" stroke-linecap="round" stroke-linejoin="round"/>
<path d="M129.052 65.142C129.052 65.142 160.186 48.2543 169.436 31.7749C169.436 31.7749 168.869 24.4873 168.869 19.7456C168.869 15.0039 173.494 22.3498 173.494 22.3498C173.494 22.3498 174.915 17.2527 177.88 14.3939C180.845 11.5351 185.348 7.6367 185.704 9.29683C186.059 10.957 184.043 13.9166 184.043 13.9166C184.043 13.9166 186.298 12.0231 187.125 13.0891C187.952 14.1552 185.587 17.1201 185.587 17.1201C185.587 17.1201 188.43 14.6326 188.074 17.1201C187.719 19.6077 186.886 20.4404 186.886 20.4404C187.532 24.1267 187.514 27.8987 186.833 31.5787C186.249 34.416 184.951 37.0574 183.062 39.2535C183.062 39.2535 179.35 69.7512 140.297 85.5834C124.894 91.8633 129.052 65.142 129.052 65.142Z" fill="#FF8554"/>
<path d="M164.185 34.8623C164.185 34.8623 170.3 42.8606 182.526 46.3878C182.526 46.3878 174.247 75.1935 140.296 85.5945L124.453 64.7235C124.453 64.7235 140.911 59.3188 164.185 34.8623Z" fill="#60E5A3"/>
<path d="M142.313 82.666L142.51 83.5995C143.804 89.9642 140.658 124.44 145.888 149.756C141.614 152.864 136.34 154.277 131.085 153.723C131.085 153.723 136.447 124.652 131.164 103.717C130.926 102.768 130.194 99.6333 129.43 96.7692C128.47 93.1996 124.656 69.5122 129.085 65.8896L142.313 82.666Z" fill="#60E5A3"/>
<path d="M127.101 75.5365C127.101 75.5365 128.618 71.8821 132.092 72.8846C132.092 72.8846 130.4 64.2391 127.101 63.3375C123.802 62.4358 127.101 75.5365 127.101 75.5365Z" fill="#213536"/>
<path d="M133.821 39.7516C133.821 39.7516 119.903 68.1118 114.409 63.7519C106.453 57.4403 103.482 49.8556 105.456 44.1804C105.519 44.0017 105.62 43.8383 105.751 43.7009C105.882 43.5635 106.04 43.4551 106.216 43.3826C106.391 43.3101 106.58 43.2752 106.769 43.2802C106.959 43.2851 107.146 43.3298 107.317 43.4113L107.37 43.4432C107.42 42.3944 107.732 41.375 108.278 40.4781C108.824 39.5811 109.586 38.8354 110.494 38.3089C111.58 37.6906 112.733 37.1994 113.931 36.845C126.136 33.1482 133.821 39.7516 133.821 39.7516Z" fill="#1E1E1E"/>
<path d="M112.44 68.5684C112.674 71.4287 113.319 74.2403 114.354 76.9168C116.734 83.1406 117.743 89.8048 117.311 96.4542C116.879 103.104 115.016 109.581 111.851 115.445C99.9329 137.939 102.304 158.725 102.304 158.725L86.2859 161.112C86.2859 161.112 78.7702 104.55 91.6959 77.967L112.434 68.457L112.44 68.5684Z" fill="#60E5A3"/>
<path d="M114.504 58.1992L112.383 68.8601L114.732 71.9046C115.433 72.9036 116.38 73.7054 117.48 74.233C121.156 75.9568 125.68 74.233 127.43 69.9315L128.825 62.3416L114.504 58.1992Z" fill="#FF8554"/>
<path d="M114.421 52.269C114.421 52.269 113.891 44.5571 119.195 42.3878C124.498 40.2184 133.149 42.7749 133.897 54.8308C134.645 66.8867 127.235 66.1971 122.388 65.6986C120.648 65.5235 114.867 64.8712 114.421 52.269Z" fill="#FF8554"/>
<path d="M125.806 41.4059C125.806 41.4059 124.299 52.9579 114.444 50.6082C104.394 48.2161 116.014 35.3116 125.806 41.4059Z" fill="#1E1E1E"/>
<path d="M119.129 54.9478C119.096 55.9286 118.776 56.8781 118.207 57.678C117.639 58.4778 116.847 59.0925 115.932 59.4454C115.016 59.7983 114.017 59.8738 113.059 59.6624C112.1 59.4511 111.226 58.9622 110.543 58.2568C109.861 57.5514 109.402 56.6608 109.223 55.696C109.043 54.7312 109.152 53.735 109.536 52.8317C109.919 51.9284 110.56 51.1579 111.378 50.6165C112.197 50.0751 113.156 49.7866 114.138 49.7871C114.804 49.7982 115.462 49.9404 116.074 50.2058C116.685 50.4711 117.239 50.8544 117.702 51.3336C118.166 51.8128 118.53 52.3787 118.775 52.9988C119.02 53.619 119.14 54.2812 119.129 54.9478Z" fill="#FF8554"/>
<path d="M129.186 65.4391C129.186 65.4391 122.472 68.0381 117.984 62.0977" stroke="#1E1E1E" stroke-linecap="round" stroke-linejoin="round"/>
<path d="M116.863 54.9214C116.856 54.3043 116.643 53.7073 116.258 53.2252C115.873 52.743 115.337 52.4034 114.737 52.2602C114.137 52.1169 113.506 52.1784 112.945 52.4347C112.383 52.691 111.924 53.1276 111.639 53.675" stroke="#1E1E1E" stroke-linecap="round" stroke-linejoin="round"/>
<path d="M131.094 48.1049C130.994 48.455 131.434 48.8899 132.07 49.0702C132.707 49.2506 133.311 49.1127 133.412 48.7573C133.513 48.4019 133.073 47.9723 132.431 47.792C131.789 47.6117 131.195 47.7496 131.094 48.1049Z" fill="#1E1E1E"/>
<path d="M125.2 51.5535C125.455 51.893 125.98 51.3785 126.622 50.8905C127.263 50.4025 127.778 50.1374 127.518 49.7979C127.258 49.4584 126.531 49.5751 125.895 50.0578C125.259 50.5405 124.94 51.2034 125.2 51.5535Z" fill="#1E1E1E"/>
<path d="M131.748 52.6143L133.339 56.5869C133.11 56.8168 132.826 56.9836 132.513 57.071C132.201 57.1584 131.871 57.1634 131.557 57.0855" stroke="#1E1E1E" stroke-linecap="round" stroke-linejoin="round"/>
<path d="M125.912 57.5146C125.912 57.5146 129.386 58.9679 132.059 58.7717C132.059 58.7717 131.301 62.3678 128.962 62.1132C127.387 61.9434 125.912 57.5146 125.912 57.5146Z" fill="white"/>
<path d="M127.965 53.8182C127.974 53.9272 128.008 54.0327 128.063 54.1269C128.119 54.221 128.195 54.3014 128.286 54.362C128.377 54.4226 128.481 54.4618 128.589 54.4768C128.698 54.4918 128.808 54.4821 128.912 54.4485C129.016 54.4149 129.111 54.3582 129.191 54.2827C129.27 54.2072 129.331 54.1148 129.369 54.0124C129.408 53.91 129.422 53.8002 129.413 53.6913C129.403 53.5824 129.368 53.4771 129.312 53.3833C129.303 53.2743 129.269 53.1688 129.213 53.0746C129.158 52.9804 129.082 52.9001 128.991 52.8395C128.899 52.7789 128.796 52.7396 128.688 52.7246C128.579 52.7096 128.469 52.7193 128.365 52.7529C128.261 52.7865 128.165 52.8432 128.086 52.9187C128.007 52.9942 127.946 53.0866 127.908 53.189C127.869 53.2914 127.854 53.4012 127.864 53.5101C127.874 53.6191 127.909 53.7244 127.965 53.8182Z" fill="#1E1E1E"/>
<path d="M132.182 52.8045C132.191 52.9135 132.225 53.019 132.28 53.1132C132.336 53.2073 132.412 53.2877 132.503 53.3483C132.594 53.4089 132.698 53.4482 132.806 53.4631C132.914 53.4781 133.025 53.4685 133.129 53.4349C133.233 53.4012 133.328 53.3446 133.407 53.2691C133.486 53.1935 133.548 53.1011 133.586 52.9987C133.624 52.8963 133.639 52.7866 133.629 52.6776C133.619 52.5687 133.585 52.4634 133.529 52.3696C133.52 52.2606 133.486 52.1551 133.43 52.0609C133.375 51.9668 133.298 51.8864 133.207 51.8258C133.116 51.7652 133.013 51.7259 132.904 51.711C132.796 51.696 132.686 51.7056 132.582 51.7392C132.477 51.7728 132.382 51.8295 132.303 51.905C132.224 51.9805 132.163 52.073 132.124 52.1754C132.086 52.2778 132.071 52.3875 132.081 52.4965C132.091 52.6054 132.125 52.7107 132.182 52.8045Z" fill="#1E1E1E"/>
<path d="M120.454 46.9016C120.501 47.3206 126.097 47.0183 132.372 45.6128C134.567 45.1248 135.554 41.3696 134.848 40.5475C132.69 38.1342 127.614 39.0412 121.944 42.4092C114.285 46.9706 120.454 46.9016 120.454 46.9016Z" fill="#1E1E1E"/>
<path d="M113.475 56.7608C113.647 57.0076 113.888 57.1979 114.168 57.3077C114.448 57.4175 114.755 57.4418 115.049 57.3775C115.343 57.3132 115.611 57.1633 115.82 56.9466C116.028 56.7299 116.168 56.4562 116.222 56.1601C116.275 55.8639 116.239 55.5586 116.119 55.2828C115.999 55.0069 115.8 54.7728 115.547 54.61C115.294 54.4473 114.998 54.3632 114.697 54.3684C114.396 54.3736 114.104 54.4678 113.856 54.6392C113.692 54.7532 113.551 54.8986 113.443 55.0671C113.335 55.2355 113.261 55.4236 113.225 55.6207C113.19 55.8178 113.194 56.02 113.236 56.2156C113.279 56.4112 113.36 56.5965 113.475 56.7608Z" fill="#E66430"/>
<path d="M126.702 55.4885C126.639 56.0189 125.7 56.3583 124.607 56.2257C123.515 56.0931 122.682 55.5521 122.746 55.0164C122.809 54.4807 123.748 54.1413 124.867 54.2739C125.986 54.4065 126.766 54.9475 126.702 55.4885Z" fill="#E66430"/>
<path d="M117.045 50.1377L118.562 54.7363C118.562 54.7363 123.707 51.7979 123.754 46.3613C123.802 40.9248 117.045 50.1377 117.045 50.1377Z" fill="#1E1E1E"/>
<path d="M134.861 42.6588L136.118 38.543L131.652 39.975L134.861 42.6588Z" fill="#1E1E1E"/>
<path d="M88.9339 148.329C89.7507 151.412 91.2722 154.262 93.3786 156.656C94.2675 157.595 95.0436 158.635 95.6912 159.754C96.6034 161.716 96.3117 165.434 96.8899 168.643C96.8899 168.643 97.468 172.573 94.0682 171.295C94.0002 171.803 94.0412 172.32 94.1884 172.811C94.3357 173.302 94.5858 173.756 94.9221 174.143C96.0624 175.438 95.9829 176.886 94.1583 177.039C94.1583 177.039 92.8695 178.18 90.3554 177.495C87.8413 176.811 86.8548 175.591 86.8548 175.591C86.8548 175.591 84.3407 176.122 83.6724 174.759C83.6724 174.759 80.9303 174.377 80.2461 171.942C79.6733 169.911 78.098 168.145 77.7638 163.986C77.5925 161.731 77.1345 159.507 76.4007 157.367L73.998 150.472L88.9339 148.329Z" fill="#FF8554"/>
<path d="M112.213 68.7168L95.9083 73.7661C91.6512 75.0851 87.7266 77.3022 84.3997 80.2677C81.0727 83.2332 78.4209 86.8781 76.6232 90.9562C71.6216 102.317 65.294 117.974 65.1773 124.748C64.9864 135.992 72.7407 155.564 72.7407 155.564L91.5432 151.103L89.7929 127.458C89.7929 127.458 111.815 94.9183 112.213 68.7168Z" fill="#60E5A3"/>
<path d="M94.0681 171.273C94.0681 171.273 92.6202 170.504 92.4769 166.924C92.3337 163.344 91.6973 162.246 91.6973 162.246" stroke="#1E1E1E" stroke-linecap="round" stroke-linejoin="round"/>
<path d="M94.1571 177.017C93.9184 177.092 91.155 176.317 89.7972 174.583C88.4394 172.849 87.3574 167.905 87.3574 167.905" stroke="#1E1E1E" stroke-linecap="round" stroke-linejoin="round"/>
<path d="M83.6035 169.222C83.6035 169.222 84.9454 174.107 86.8548 175.586" stroke="#1E1E1E" stroke-linecap="round" stroke-linejoin="round"/>
<path d="M81.7578 170.091C81.7578 170.091 82.023 173.029 83.6566 174.737" stroke="#1E1E1E" stroke-linecap="round" stroke-linejoin="round"/>
<path d="M173.496 22.3496C173.496 22.3496 177.978 23.5483 177.835 30.5548" stroke="#1E1E1E" stroke-linecap="round" stroke-linejoin="round"/>
<path d="M184.563 13.3643C184.563 13.3643 183.141 15.3957 182.123 16.9232" stroke="#1E1E1E" stroke-linecap="round" stroke-linejoin="round"/>
<path d="M91.5479 151.108C91.5479 151.108 87.0766 127.5 91.2296 118.913C95.3826 110.326 108.961 90.9399 101.201 72.6572" stroke="#1E1E1E" stroke-linecap="round" stroke-linejoin="round"/>
<path d="M142.751 84.8878C142.751 84.8878 138.688 67.8304 132.355 64.4199" stroke="#1E1E1E" stroke-linecap="round" stroke-linejoin="round"/>
<path d="M112.912 65.0035C112.912 65.0035 111.682 64.1813 110.754 64.8974C109.825 65.6134 106.648 70.5461 106.648 70.5461C107.431 74.8211 108.902 78.9409 111.003 82.7451C111.003 82.7451 115.384 77.961 117.156 78.0724C117.156 78.0724 112.647 71.9145 112.912 65.0035Z" fill="#213536"/>
<path d="M117.261 89.6355L117.155 78.0729C117.155 78.0729 116.01 77.7441 114.928 79.1656L117.261 89.6355Z" fill="#60E5A3"/>
<path d="M123.518 157.521C123.518 157.521 121.254 161.636 120.866 165.954C120.479 170.271 124.155 185.483 124.155 185.483" stroke="#0D0A17" stroke-linecap="round" stroke-linejoin="round"/>
<path d="M90.3072 140.973L92.9062 151.989C92.9062 151.989 80.0282 157.563 71.9821 158.306L68.6406 148.398C68.6406 148.398 83.2477 142.58 90.3072 140.973Z" fill="#213536"/>
<path d="M165.728 32.2256C165.728 32.2256 157.926 40.505 157.613 40.4149C157.3 40.3247 169.987 52.7147 180.706 54.2051C180.706 54.2051 182.992 47.8987 183.47 43.2472C183.454 43.2631 172.432 38.6115 165.728 32.2256Z" fill="#213536"/>
<path d="M251.77 154.196C251.633 154.609 251.076 161.807 253.431 164.162C255.786 166.517 251.77 170.389 251.77 170.389C251.77 170.389 253.431 172.049 251.489 175.098C249.548 178.148 250.524 186.449 250.524 186.449L194.186 184.927C194.186 184.927 199.447 162.502 202.492 156.964C205.536 151.427 210.506 141.721 210.506 141.721L251.77 154.196Z" fill="#FFD900"/>
<path d="M196.823 21.0233C195.285 13.8577 188.527 8.08698 186.883 7.80587C186.289 6.86707 185.562 6.54353 184.762 7.97029C182.666 11.7149 186.729 17.703 183.701 22.4447C183.701 22.4447 179.723 16.1808 179.086 19.3685C178.45 22.5561 181.452 30.7507 184.183 33.0314C184.183 33.0314 184.183 56.2415 189.132 66.6796C189.461 67.3868 189.814 68.094 190.193 68.8012C199.056 65.2635 206.168 57.2916 208.571 54.3692C199.941 43.4059 198.196 27.4411 196.823 21.0233Z" fill="#FF8554"/>
<path d="M274.486 113.985C275.017 120 275.791 134.994 274.285 140.096C274.099 140.727 265.04 141.481 264.801 142.09C260.309 153.574 252.507 158.257 252.507 158.257C220.837 159.222 200.825 145.13 201.488 144.159C202.151 143.188 214.191 96.9539 214.191 96.9539C209.094 92.3337 204.289 87.4022 199.802 82.1878C196.211 77.9817 192.689 73.3143 190.223 68.7953C199.086 65.2576 206.198 57.2858 208.601 54.3633C210.559 56.8755 212.909 59.0567 215.56 60.8235C216.254 61.2849 216.965 61.7411 217.681 62.2025C231.201 70.8161 249.409 80.2889 260.643 86.8605C270.063 92.3925 273.277 100.242 274.486 113.985Z" fill="#FF0062"/>
<path d="M256.263 63.8525C252.55 75.3461 240.505 77.3192 236.209 74.6195C234.825 73.7113 233.802 72.3471 233.318 70.7635C232.897 69.4348 232.691 68.0469 232.708 66.653C232.709 66.2152 232.734 65.7779 232.783 65.3429C232.067 65.0443 231.421 64.602 230.884 64.0434C230.385 63.3433 234.284 59.1479 234.284 59.1479C236.283 53.0483 240.314 50.2903 240.314 50.2903C247.3 45.4054 259.96 52.3641 256.263 63.8525Z" fill="#FF8554"/>
<path d="M238.303 50.4593C238.303 50.4593 238.785 52.7029 243.373 53.5727C246.302 54.1494 249.195 54.8914 252.04 55.7951C252.04 55.7951 248.37 62.3508 250.04 67.5751C251.711 72.7995 251.26 71.8183 251.26 71.8183C251.26 71.8183 261.242 70.137 262.892 61.5552C265.135 50.0138 247.054 41.0395 238.303 50.4593Z" fill="#1E1E1E"/>
<path d="M217.399 60.7602C217.605 60.929 217.746 61.1643 217.797 61.4256C217.848 61.687 217.807 61.9581 217.68 62.1922C211.968 72.5137 203.216 79.6422 199.795 82.1775C198.888 82.8511 198.352 83.2011 198.352 83.2011C196.761 82.1881 198.252 79.8596 194.91 79.7536C193.802 79.7217 192.529 77.2183 191.68 76.5712C189.171 74.6353 188.498 72.4182 188.339 70.9808C188.295 70.5736 188.388 70.1634 188.603 69.8148C188.818 69.4663 189.143 69.1991 189.527 69.0555L190.216 68.7903C199.079 65.2526 206.192 57.2808 208.594 54.3583L208.812 54.0878C208.892 53.9909 208.993 53.913 209.108 53.8595C209.222 53.806 209.346 53.7783 209.472 53.7783C209.598 53.7783 209.723 53.806 209.837 53.8595C209.951 53.913 210.052 53.9909 210.133 54.0878C212.095 56.3261 215.808 59.466 217.399 60.7602Z" fill="#FF0062"/>
<path d="M252.739 133.573C250.203 140.919 243.796 144.749 242.332 146.022C237.559 149.146 228.876 155.038 225.922 159.95C231.181 162.605 236.833 164.396 242.661 165.254L243.462 163.291C243.462 163.291 249.901 161.658 255.051 158.756C255.692 158.474 256.313 158.146 256.907 157.775C268.746 150.546 269.377 141.635 269.377 141.635C266.9 136.978 252.739 133.573 252.739 133.573Z" fill="#FF8554"/>
<path d="M249.754 128.312L244.062 139.556C244.062 139.556 260.505 146 266.896 150.509C267.164 150.697 267.487 150.792 267.814 150.778C268.141 150.763 268.454 150.641 268.705 150.429C272.704 147.247 274.369 144.966 275.754 140.055C275.872 139.66 275.856 139.237 275.707 138.852C275.558 138.468 275.285 138.145 274.931 137.933C270.847 135.488 257.285 127.718 249.754 128.312Z" fill="#FF0062"/>
<path d="M223.918 156.227C223.918 156.545 222.799 157.818 225.923 159.939C229.047 162.061 241.304 165.927 247.616 165.821" stroke="#1E1E1E" stroke-linecap="round" stroke-linejoin="round"/>
<path d="M205.059 152.954C205.059 152.954 207.811 153.246 209.779 149.607" stroke="#1E1E1E" stroke-linecap="round" stroke-linejoin="round"/>
<path d="M214.924 152.402C214.924 152.402 208.06 166.622 214.563 172.133" stroke="#1E1E1E" stroke-linecap="round" stroke-linejoin="round"/>
<path d="M218.743 153.675C218.743 153.675 212.945 171.777 214.361 185.212" stroke="#1E1E1E" stroke-linecap="round" stroke-linejoin="round"/>
<path d="M251.769 170.387C251.897 170.281 249.287 172.048 249.287 172.048" stroke="#1E1E1E" stroke-linecap="round" stroke-linejoin="round"/>
<path d="M251.054 175.846C251.054 175.846 247.936 178.121 247.432 181.489" stroke="#1E1E1E" stroke-linecap="round" stroke-linejoin="round"/>
<path d="M252.274 71.7607L250.816 81.4829C250.816 81.4829 240.659 87.105 237.487 81.1858C237.059 80.3601 236.817 79.4506 236.779 78.5215C236.74 77.5923 236.906 76.6659 237.264 75.8076L238.765 72.1267L252.274 71.7607Z" fill="#FF8554"/>
<path d="M237.443 75.3832C237.443 75.3832 242.652 76.7622 247.272 74.6406" stroke="#1E1E1E" stroke-linecap="round" stroke-linejoin="round"/>
<path d="M183.801 37.3593C183.801 37.3593 183.716 34.2724 182.549 32.2675C181.382 30.2626 178.751 22.2589 180.13 20.7579C182.883 17.7453 186.219 25.4254 186.219 25.4254C186.219 25.4254 183.801 16.2071 184.628 9.1582" stroke="#1E1E1E" stroke-linecap="round" stroke-linejoin="round"/>
<path d="M186.881 7.80566C186.881 7.80566 189.14 16.3768 190.726 19.2091" stroke="#1E1E1E" stroke-linecap="round" stroke-linejoin="round"/>
<path d="M194.064 17.4598C194.064 17.4598 192.309 12.9568 191.227 11.2012" stroke="#1E1E1E" stroke-linecap="round" stroke-linejoin="round"/>
<path d="M184.41 20.116L185.02 19.4053" stroke="#1E1E1E" stroke-linecap="round" stroke-linejoin="round"/>
<path d="M251.511 76.7783C251.511 76.7783 253.277 73.7604 257.918 72.2116C262.559 70.6629 267.969 58.5115 264.765 56.7453C264.765 56.7453 264.765 48.572 256.592 46.583C248.418 44.594 241.348 47.1134 238.914 45.7025C236.479 44.2917 237.36 48.8106 238.304 50.4761C239.248 52.1415 253.494 49.9139 257.255 52.8947C261.015 55.8755 251.733 68.8224 251.511 76.7783Z" fill="#1E1E1E"/>
<path d="M247.431 53.6432C247.431 53.6432 245.272 59.7109 247.839 62.1295L246.731 66.5105L253.324 61.9544C253.324 61.9544 259.391 51.1927 247.431 53.6432Z" fill="#1E1E1E"/>
<path d="M251.453 73.6546C254.224 73.6546 256.471 71.3464 256.471 68.4992C256.471 65.6519 254.224 63.3438 251.453 63.3438C248.682 63.3438 246.436 65.6519 246.436 68.4992C246.436 71.3464 248.682 73.6546 251.453 73.6546Z" fill="#FF8554"/>
<path d="M251.911 71.177C252.27 71.0755 252.603 70.8964 252.886 70.6523C253.169 70.4082 253.395 70.105 253.548 69.7641C253.701 69.4232 253.778 69.0529 253.772 68.6793C253.767 68.3056 253.68 67.9377 253.517 67.6015C253.354 67.2652 253.119 66.9688 252.829 66.733C252.539 66.4973 252.201 66.328 251.838 66.237C251.476 66.1461 251.098 66.1357 250.731 66.2066C250.364 66.2775 250.017 66.428 249.715 66.6475" stroke="#1E1E1E" stroke-linecap="round" stroke-linejoin="round"/>
<path d="M248.785 71.5009C249.745 71.5009 250.524 70.722 250.524 69.7612C250.524 68.8004 249.745 68.0215 248.785 68.0215C247.824 68.0215 247.045 68.8004 247.045 69.7612C247.045 70.722 247.824 71.5009 248.785 71.5009Z" fill="#E66430"/>
<path d="M239.294 65.2482C240.255 65.2482 241.034 64.7495 241.034 64.1343C241.034 63.5192 240.255 63.0205 239.294 63.0205C238.334 63.0205 237.555 63.5192 237.555 64.1343C237.555 64.7495 238.334 65.2482 239.294 65.2482Z" fill="#E66430"/>
<path d="M237.661 60.3575C237.364 60.8879 237.338 61.4183 237.603 61.5721C237.868 61.7259 238.324 61.4289 238.626 60.9144C238.929 60.3999 238.95 59.8536 238.685 59.6998C238.42 59.546 237.958 59.843 237.661 60.3575Z" fill="#1E1E1E"/>
<path d="M238.084 67.6505C237.596 68.5142 236.908 69.2479 236.077 69.7898C235.246 70.3317 234.297 70.6658 233.31 70.7639C232.888 69.4351 232.682 68.0473 232.7 66.6533L238.084 67.6505Z" fill="white"/>
<path d="M240.966 59.5878C240.749 59.7893 240.393 59.19 239.805 58.5694C239.216 57.9489 238.617 57.5405 238.829 57.3389C239.041 57.1374 239.99 57.2169 240.579 57.8375C241.168 58.458 241.178 59.3809 240.966 59.5878Z" fill="#1E1E1E"/>
<path d="M214.176 96.9546C214.882 94.6998 215.127 92.3261 214.897 89.9746" stroke="#1E1E1E" stroke-linecap="round" stroke-linejoin="round"/>
<path d="M250.683 110.368C252.608 117.794 251.532 125.373 250.285 131.483" stroke="#1E1E1E" stroke-linecap="round" stroke-linejoin="round"/>
<path d="M274.857 137.652C274.857 137.652 255.233 130.996 249.812 131.484C249.327 132.138 249.006 132.899 248.878 133.703C248.75 134.507 248.817 135.331 249.075 136.103C248.055 137.018 247.163 138.065 246.423 139.217C246.348 139.351 246.304 139.499 246.292 139.652C246.281 139.805 246.302 139.958 246.356 140.102C246.409 140.246 246.493 140.376 246.602 140.484C246.71 140.592 246.841 140.676 246.985 140.728L248.29 141.206" stroke="#1E1E1E" stroke-linecap="round" stroke-linejoin="round"/>
<path d="M199.785 82.1893C199.785 82.1893 211.454 73.6659 217.67 62.2041" stroke="#1E1E1E" stroke-linecap="round" stroke-linejoin="round"/>
<path d="M249.076 136.103C249.076 136.103 257.562 136.24 267.417 141.237" stroke="#1E1E1E" stroke-linecap="round" stroke-linejoin="round"/>
<path d="M193.348 76.1837C193.348 76.1837 203.266 71.8822 209.259 62.9238" stroke="#1E1E1E" stroke-linecap="round" stroke-linejoin="round"/>
<path d="M212.748 61.0996C212.748 61.0996 206.95 72.0735 201.609 75.0543" stroke="#1E1E1E" stroke-linecap="round" stroke-linejoin="round"/>
<path d="M243.465 163.313L243.868 161.7" stroke="#1E1E1E" stroke-linecap="round" stroke-linejoin="round"/>
<path d="M241.797 103.945C241.797 104.379 241.925 104.802 242.166 105.162C242.407 105.523 242.749 105.803 243.149 105.969C243.549 106.135 243.99 106.178 244.415 106.094C244.84 106.009 245.23 105.801 245.536 105.494C245.843 105.188 246.051 104.798 246.136 104.373C246.22 103.948 246.177 103.507 246.011 103.107C245.845 102.707 245.565 102.365 245.204 102.124C244.844 101.883 244.421 101.755 243.987 101.755C243.406 101.755 242.849 101.986 242.438 102.396C242.028 102.807 241.797 103.364 241.797 103.945Z" stroke="#FF428B" stroke-linecap="round" stroke-linejoin="round"/>
</g>
<defs>
<radialGradient id="paint0_radial_2229_6620" cx="0" cy="0" r="1" gradientUnits="userSpaceOnUse" gradientTransform="translate(163.824 176.5) rotate(-87.6546) scale(163.137 352.628)">
<stop stop-color="#60E5A3" stop-opacity="0.6"/>
<stop offset="1" stop-color="#213536" stop-opacity="0"/>
</radialGradient>
</defs>
</svg>
