<svg width="342" height="180" viewBox="0 0 342 180" fill="none" xmlns="http://www.w3.org/2000/svg">
<mask id="path-1-inside-1_2229_6919" fill="white">
<path d="M0 20C0 8.9543 8.95431 0 20 0H322C333.046 0 342 8.95431 342 20V180H0V20Z"/>
</mask>
<path d="M0 20C0 8.9543 8.95431 0 20 0H322C333.046 0 342 8.95431 342 20V180H0V20Z" fill="#213536"/>
<path d="M-1 20C-1 8.40202 8.40202 -1 20 -1H322C333.598 -1 343 8.40202 343 20H341C341 9.50659 332.493 1 322 1H20C9.50659 1 1 9.50659 1 20H-1ZM342 180H0H342ZM-1 180V20C-1 8.40202 8.40202 -1 20 -1V1C9.50659 1 1 9.50659 1 20V180H-1ZM322 -1C333.598 -1 343 8.40202 343 20V180H341V20C341 9.50659 332.493 1 322 1V-1Z" fill="#60E5A3" mask="url(#path-1-inside-1_2229_6919)"/>
<mask id="mask0_2229_6919" style="mask-type:luminance" maskUnits="userSpaceOnUse" x="130" y="32" width="80" height="82">
<path d="M208.583 65.6669H171V81.2502H192.633C190.617 91.1502 182.183 96.8335 171 96.8335C164.679 96.8335 158.617 94.3225 154.147 89.8529C149.678 85.3833 147.167 79.3212 147.167 73.0002C147.167 66.6792 149.678 60.6171 154.147 56.1475C158.617 51.6779 164.679 49.1669 171 49.1669C176.417 49.1605 181.668 51.0403 185.85 54.4835L197.583 42.7502C192.686 38.4311 186.813 35.3656 180.469 33.8173C174.126 32.2689 167.501 32.2839 161.164 33.8611C154.827 35.4382 148.969 38.5303 144.091 42.8716C139.213 47.213 135.462 52.6737 133.161 58.7846C130.859 64.8956 130.076 71.4739 130.878 77.9544C131.68 84.4349 134.043 90.6238 137.765 95.9892C141.487 101.355 146.456 105.736 152.245 108.757C158.034 111.778 164.47 113.349 171 113.334C191.167 113.334 209.5 98.6669 209.5 73.0002C209.466 70.5294 209.159 68.07 208.583 65.6669Z" fill="white"/>
</mask>
<g mask="url(#mask0_2229_6919)">
<path d="M127 96.8337V49.167L158.167 73.0003L127 96.8337Z" fill="#FBBC05"/>
</g>
<mask id="mask1_2229_6919" style="mask-type:luminance" maskUnits="userSpaceOnUse" x="130" y="32" width="80" height="82">
<path d="M208.583 65.6669H171V81.2502H192.633C190.617 91.1502 182.183 96.8335 171 96.8335C164.679 96.8335 158.617 94.3225 154.147 89.8529C149.678 85.3833 147.167 79.3212 147.167 73.0002C147.167 66.6792 149.678 60.6171 154.147 56.1475C158.617 51.6779 164.679 49.1669 171 49.1669C176.417 49.1605 181.668 51.0403 185.85 54.4835L197.583 42.7502C192.686 38.4311 186.813 35.3656 180.469 33.8173C174.126 32.2689 167.501 32.2839 161.164 33.8611C154.827 35.4382 148.969 38.5303 144.091 42.8716C139.213 47.213 135.462 52.6737 133.161 58.7846C130.859 64.8956 130.076 71.4739 130.878 77.9544C131.68 84.4349 134.043 90.6238 137.765 95.9892C141.487 101.355 146.456 105.736 152.245 108.757C158.034 111.778 164.47 113.349 171 113.334C191.167 113.334 209.5 98.6669 209.5 73.0002C209.466 70.5294 209.159 68.07 208.583 65.6669Z" fill="white"/>
</mask>
<g mask="url(#mask1_2229_6919)">
<path d="M127 49.1667L158.167 73L171 61.8167L215 54.6667V29H127V49.1667Z" fill="#EA4335"/>
</g>
<mask id="mask2_2229_6919" style="mask-type:luminance" maskUnits="userSpaceOnUse" x="130" y="32" width="80" height="82">
<path d="M208.583 65.6669H171V81.2502H192.633C190.617 91.1502 182.183 96.8335 171 96.8335C164.679 96.8335 158.617 94.3225 154.147 89.8529C149.678 85.3833 147.167 79.3212 147.167 73.0002C147.167 66.6792 149.678 60.6171 154.147 56.1475C158.617 51.6779 164.679 49.1669 171 49.1669C176.417 49.1605 181.668 51.0403 185.85 54.4835L197.583 42.7502C192.686 38.4311 186.813 35.3656 180.469 33.8173C174.126 32.2689 167.501 32.2839 161.164 33.8611C154.827 35.4382 148.969 38.5303 144.091 42.8716C139.213 47.213 135.462 52.6737 133.161 58.7846C130.859 64.8956 130.076 71.4739 130.878 77.9544C131.68 84.4349 134.043 90.6238 137.765 95.9892C141.487 101.355 146.456 105.736 152.245 108.757C158.034 111.778 164.47 113.349 171 113.334C191.167 113.334 209.5 98.6669 209.5 73.0002C209.466 70.5294 209.159 68.07 208.583 65.6669Z" fill="white"/>
</mask>
<g mask="url(#mask2_2229_6919)">
<path d="M127 96.8333L182 54.6667L196.483 56.5L215 29V117H127V96.8333Z" fill="#34A853"/>
</g>
<mask id="mask3_2229_6919" style="mask-type:luminance" maskUnits="userSpaceOnUse" x="130" y="32" width="80" height="82">
<path d="M208.583 65.6669H171V81.2502H192.633C190.617 91.1502 182.183 96.8335 171 96.8335C164.679 96.8335 158.617 94.3225 154.147 89.8529C149.678 85.3833 147.167 79.3212 147.167 73.0002C147.167 66.6792 149.678 60.6171 154.147 56.1475C158.617 51.6779 164.679 49.1669 171 49.1669C176.417 49.1605 181.668 51.0403 185.85 54.4835L197.583 42.7502C192.686 38.4311 186.813 35.3656 180.469 33.8173C174.126 32.2689 167.501 32.2839 161.164 33.8611C154.827 35.4382 148.969 38.5303 144.091 42.8716C139.213 47.213 135.462 52.6737 133.161 58.7846C130.859 64.8956 130.076 71.4739 130.878 77.9544C131.68 84.4349 134.043 90.6238 137.765 95.9892C141.487 101.355 146.456 105.736 152.245 108.757C158.034 111.778 164.47 113.349 171 113.334C191.167 113.334 209.5 98.6669 209.5 73.0002C209.466 70.5294 209.159 68.07 208.583 65.6669Z" fill="white"/>
</mask>
<g mask="url(#mask3_2229_6919)">
<path d="M215.001 117L158.167 73.0003L150.834 67.5003L215.001 49.167V117Z" fill="#4285F4"/>
</g>
<path d="M102.011 130.146C102.328 129.496 102.487 129.171 102.703 129.068C102.891 128.977 103.109 128.977 103.297 129.068C103.513 129.171 103.672 129.496 103.989 130.146L107.005 136.308C107.099 136.5 107.146 136.595 107.215 136.67C107.275 136.736 107.348 136.789 107.429 136.827C107.52 136.87 107.625 136.885 107.835 136.916L114.581 137.911C115.292 138.016 115.647 138.068 115.811 138.243C115.954 138.395 116.021 138.604 115.994 138.812C115.963 139.051 115.706 139.304 115.191 139.809L110.312 144.602C110.16 144.752 110.084 144.827 110.034 144.916C109.991 144.994 109.963 145.081 109.952 145.17C109.94 145.271 109.958 145.377 109.994 145.588L111.146 152.358C111.267 153.072 111.328 153.429 111.214 153.641C111.114 153.826 110.938 153.955 110.733 153.993C110.498 154.037 110.18 153.868 109.544 153.531L103.514 150.332C103.326 150.233 103.232 150.183 103.133 150.163C103.045 150.146 102.955 150.146 102.867 150.163C102.768 150.183 102.674 150.233 102.487 150.332L96.4556 153.531C95.8198 153.868 95.5019 154.037 95.2668 153.993C95.0623 153.955 94.8858 153.826 94.7865 153.641C94.6724 153.429 94.7331 153.072 94.8546 152.358L96.0059 145.588C96.0418 145.377 96.0598 145.271 96.0476 145.17C96.0369 145.081 96.009 144.994 95.9656 144.916C95.9165 144.827 95.8404 144.752 95.6883 144.602L90.8087 139.809C90.2944 139.304 90.0372 139.051 90.0059 138.812C89.9787 138.604 90.046 138.395 90.189 138.243C90.3534 138.068 90.7086 138.016 91.4189 137.911L98.165 136.916C98.3747 136.885 98.4796 136.87 98.571 136.827C98.6519 136.789 98.7247 136.736 98.7854 136.67C98.854 136.595 98.9009 136.5 98.9948 136.308L102.011 130.146Z" fill="#FEA200"/>
<path d="M170.011 130.146C170.328 129.496 170.487 129.171 170.703 129.068C170.891 128.977 171.109 128.977 171.297 129.068C171.513 129.171 171.672 129.496 171.989 130.146L175.005 136.308C175.099 136.5 175.146 136.595 175.215 136.67C175.275 136.736 175.348 136.789 175.429 136.827C175.52 136.87 175.625 136.885 175.835 136.916L182.581 137.911C183.292 138.016 183.647 138.068 183.811 138.243C183.954 138.395 184.021 138.604 183.994 138.812C183.963 139.051 183.706 139.304 183.191 139.809L178.312 144.602C178.16 144.752 178.084 144.827 178.034 144.916C177.991 144.994 177.963 145.081 177.952 145.17C177.94 145.271 177.958 145.377 177.994 145.588L179.146 152.358C179.267 153.072 179.328 153.429 179.214 153.641C179.114 153.826 178.938 153.955 178.733 153.993C178.498 154.037 178.18 153.868 177.544 153.531L171.514 150.332C171.326 150.233 171.232 150.183 171.133 150.163C171.045 150.146 170.955 150.146 170.867 150.163C170.768 150.183 170.674 150.233 170.487 150.332L164.456 153.531C163.82 153.868 163.502 154.037 163.267 153.993C163.062 153.955 162.886 153.826 162.787 153.641C162.672 153.429 162.733 153.072 162.855 152.358L164.006 145.588C164.042 145.377 164.06 145.271 164.048 145.17C164.037 145.081 164.009 144.994 163.966 144.916C163.916 144.827 163.84 144.752 163.688 144.602L158.809 139.809C158.294 139.304 158.037 139.051 158.006 138.812C157.979 138.604 158.046 138.395 158.189 138.243C158.353 138.068 158.709 138.016 159.419 137.911L166.165 136.916C166.375 136.885 166.48 136.87 166.571 136.827C166.652 136.789 166.725 136.736 166.785 136.67C166.854 136.595 166.901 136.5 166.995 136.308L170.011 130.146Z" fill="#FEA200"/>
<path d="M136.011 130.146C136.328 129.496 136.487 129.171 136.703 129.068C136.891 128.977 137.109 128.977 137.297 129.068C137.513 129.171 137.672 129.496 137.989 130.146L141.005 136.308C141.099 136.5 141.146 136.595 141.215 136.67C141.275 136.736 141.348 136.789 141.429 136.827C141.52 136.87 141.625 136.885 141.835 136.916L148.581 137.911C149.292 138.016 149.647 138.068 149.811 138.243C149.954 138.395 150.021 138.604 149.994 138.812C149.963 139.051 149.706 139.304 149.191 139.809L144.312 144.602C144.16 144.752 144.084 144.827 144.034 144.916C143.991 144.994 143.963 145.081 143.952 145.17C143.94 145.271 143.958 145.377 143.994 145.588L145.146 152.358C145.267 153.072 145.328 153.429 145.214 153.641C145.114 153.826 144.938 153.955 144.733 153.993C144.498 154.037 144.18 153.868 143.544 153.531L137.514 150.332C137.326 150.233 137.232 150.183 137.133 150.163C137.045 150.146 136.955 150.146 136.867 150.163C136.768 150.183 136.674 150.233 136.487 150.332L130.456 153.531C129.82 153.868 129.502 154.037 129.267 153.993C129.062 153.955 128.886 153.826 128.787 153.641C128.672 153.429 128.733 153.072 128.855 152.358L130.006 145.588C130.042 145.377 130.06 145.271 130.048 145.17C130.037 145.081 130.009 144.994 129.966 144.916C129.916 144.827 129.84 144.752 129.688 144.602L124.809 139.809C124.294 139.304 124.037 139.051 124.006 138.812C123.979 138.604 124.046 138.395 124.189 138.243C124.353 138.068 124.709 138.016 125.419 137.911L132.165 136.916C132.375 136.885 132.48 136.87 132.571 136.827C132.652 136.789 132.725 136.736 132.785 136.67C132.854 136.595 132.901 136.5 132.995 136.308L136.011 130.146Z" fill="#FEA200"/>
<path d="M204.011 130.146C204.328 129.496 204.487 129.171 204.703 129.068C204.891 128.977 205.109 128.977 205.297 129.068C205.513 129.171 205.672 129.496 205.989 130.146L209.005 136.308C209.099 136.5 209.146 136.595 209.215 136.67C209.275 136.736 209.348 136.789 209.429 136.827C209.52 136.87 209.625 136.885 209.835 136.916L216.581 137.911C217.292 138.016 217.647 138.068 217.811 138.243C217.954 138.395 218.021 138.604 217.994 138.812C217.963 139.051 217.706 139.304 217.191 139.809L212.312 144.602C212.16 144.752 212.084 144.827 212.034 144.916C211.991 144.994 211.963 145.081 211.952 145.17C211.94 145.271 211.958 145.377 211.994 145.588L213.146 152.358C213.267 153.072 213.328 153.429 213.214 153.641C213.114 153.826 212.938 153.955 212.733 153.993C212.498 154.037 212.18 153.868 211.544 153.531L205.514 150.332C205.326 150.233 205.232 150.183 205.133 150.163C205.045 150.146 204.955 150.146 204.867 150.163C204.768 150.183 204.674 150.233 204.487 150.332L198.456 153.531C197.82 153.868 197.502 154.037 197.267 153.993C197.062 153.955 196.886 153.826 196.787 153.641C196.672 153.429 196.733 153.072 196.855 152.358L198.006 145.588C198.042 145.377 198.06 145.271 198.048 145.17C198.037 145.081 198.009 144.994 197.966 144.916C197.916 144.827 197.84 144.752 197.688 144.602L192.809 139.809C192.294 139.304 192.037 139.051 192.006 138.812C191.979 138.604 192.046 138.395 192.189 138.243C192.353 138.068 192.709 138.016 193.419 137.911L200.165 136.916C200.375 136.885 200.48 136.87 200.571 136.827C200.652 136.789 200.725 136.736 200.785 136.67C200.854 136.595 200.901 136.5 200.995 136.308L204.011 130.146Z" fill="#FEA200"/>
<path d="M238.011 130.146C238.328 129.496 238.487 129.171 238.703 129.068C238.891 128.977 239.109 128.977 239.297 129.068C239.513 129.171 239.672 129.496 239.989 130.146L243.005 136.308C243.099 136.5 243.146 136.595 243.215 136.67C243.275 136.736 243.348 136.789 243.429 136.827C243.52 136.87 243.625 136.885 243.835 136.916L250.581 137.911C251.292 138.016 251.647 138.068 251.811 138.243C251.954 138.395 252.021 138.604 251.994 138.812C251.963 139.051 251.706 139.304 251.191 139.809L246.312 144.602C246.16 144.752 246.084 144.827 246.034 144.916C245.991 144.994 245.963 145.081 245.952 145.17C245.94 145.271 245.958 145.377 245.994 145.588L247.146 152.358C247.267 153.072 247.328 153.429 247.214 153.641C247.114 153.826 246.938 153.955 246.733 153.993C246.498 154.037 246.18 153.868 245.544 153.531L239.514 150.332C239.326 150.233 239.232 150.183 239.133 150.163C239.045 150.146 238.955 150.146 238.867 150.163C238.768 150.183 238.674 150.233 238.487 150.332L232.456 153.531C231.82 153.868 231.502 154.037 231.267 153.993C231.062 153.955 230.886 153.826 230.787 153.641C230.672 153.429 230.733 153.072 230.855 152.358L232.006 145.588C232.042 145.377 232.06 145.271 232.048 145.17C232.037 145.081 232.009 144.994 231.966 144.916C231.916 144.827 231.84 144.752 231.688 144.602L226.809 139.809C226.294 139.304 226.037 139.051 226.006 138.812C225.979 138.604 226.046 138.395 226.189 138.243C226.353 138.068 226.709 138.016 227.419 137.911L234.165 136.916C234.375 136.885 234.48 136.87 234.571 136.827C234.652 136.789 234.725 136.736 234.785 136.67C234.854 136.595 234.901 136.5 234.995 136.308L238.011 130.146Z" fill="#FEA200"/>
</svg>
