<svg width="616" height="100" viewBox="0 0 616 100" fill="none" xmlns="http://www.w3.org/2000/svg">
<mask id="mask0_1535_5885" style="mask-type:alpha" maskUnits="userSpaceOnUse" x="0" y="0" width="616" height="100">
<rect width="616" height="100" rx="12" fill="#EFF5F5"/>
</mask>
<g mask="url(#mask0_1535_5885)">
<path d="M143.704 -168.013C108.136 -127.996 91.0713 -75.4838 96.9098 -23.9623C101.911 20.2485 123.164 58.6722 155.109 81.4503C184.808 102.588 222.894 109.78 263.517 102.182C280.538 142.552 310.414 172.999 345.532 185.687C380.397 198.285 420.533 193.639 458.514 172.577C507.772 145.254 546.918 93.6094 558.254 40.9218C574.05 -32.4398 535.983 -92.8901 518.896 -115.522L484.681 -89.6225C495.228 -75.6831 528.703 -25.7265 516.312 31.8427C507.453 72.9835 476.605 113.498 437.719 135.046C410.718 150.034 383.132 153.653 360.111 145.321C337.295 137.075 317.32 116.804 304.772 89.3637C341.85 73.1101 372.646 45.8187 387.1 15.207C405.763 -24.46 389.166 -61.1738 364.082 -75.5967C351.36 -82.9022 335.475 -84.0624 319.36 -78.9106C294.991 -71.1043 273.683 -50.5876 260.933 -22.6019C249.861 1.59485 246.79 30.9459 251.604 60.6543C231.6 63.7422 203.828 63.438 180.061 46.5076C157.924 30.7636 143.184 3.28324 139.547 -28.7813C135.078 -68.2237 148.283 -108.573 175.782 -139.507L143.704 -168.013ZM293.081 47.5275C290.917 28.3931 293.154 9.97787 299.884 -4.76034C308.917 -24.5056 322.61 -34.9015 332.427 -38.0389C337.551 -39.689 341.082 -39.2925 342.67 -38.3807C349.93 -34.2139 356.475 -20.4925 348.246 -3.05103C338.927 16.7546 318.226 35.3263 293.081 47.5275Z" fill="url(#paint0_linear_1535_5885)"/>
<path d="M293.081 47.5279C293.081 47.5279 296.641 77.8349 304.771 89.3737C304.771 89.3737 337.807 73.5462 351.783 60.005L335.29 16.2615C335.29 16.2615 319.028 35.4879 293.081 47.5279Z" fill="url(#paint1_linear_1535_5885)"/>
<path d="M263.52 102.154C263.52 102.154 250.646 72.9136 251.548 60.6398C251.548 60.6398 215.503 68.9322 182.305 48.0707L167.344 89.1074C167.344 89.1074 202.207 111.823 263.52 102.154Z" fill="url(#paint2_linear_1535_5885)"/>
</g>
<defs>
<linearGradient id="paint0_linear_1535_5885" x1="441.785" y1="87.7158" x2="535.75" y2="49.7338" gradientUnits="userSpaceOnUse">
<stop stop-color="#60E5A3"/>
<stop offset="1" stop-color="#60E5A3" stop-opacity="0"/>
</linearGradient>
<linearGradient id="paint1_linear_1535_5885" x1="292.323" y1="71.6601" x2="345.44" y2="37.8899" gradientUnits="userSpaceOnUse">
<stop stop-color="#60B5A3"/>
<stop offset="0.19" stop-color="#60C9A3"/>
<stop offset="0.4" stop-color="#60D9A3"/>
<stop offset="0.65" stop-color="#60E2A3"/>
<stop offset="1" stop-color="#60E5A3"/>
</linearGradient>
<linearGradient id="paint2_linear_1535_5885" x1="258.209" y1="82.4558" x2="170.234" y2="72.7158" gradientUnits="userSpaceOnUse">
<stop stop-color="#60B5A3"/>
<stop offset="0.19" stop-color="#60C9A3"/>
<stop offset="0.4" stop-color="#60D9A3"/>
<stop offset="0.65" stop-color="#60E2A3"/>
<stop offset="1" stop-color="#60E5A3"/>
</linearGradient>
</defs>
</svg>
