<svg width="18" height="18" viewBox="0 0 18 18" fill="none" xmlns="http://www.w3.org/2000/svg">
<path d="M1.5 10.5H16.5M6 15.75H12M5.1 13.5H12.9C14.1602 13.5 14.7901 13.5 15.2715 13.2548C15.6949 13.0391 16.0391 12.6949 16.2548 12.2715C16.5 11.7901 16.5 11.1601 16.5 9.9V5.85C16.5 4.58988 16.5 3.95982 16.2548 3.47852C16.0391 3.05516 15.6949 2.71095 15.2715 2.49524C14.7901 2.25 14.1602 2.25 12.9 2.25H5.1C3.83988 2.25 3.20982 2.25 2.72852 2.49524C2.30516 2.71095 1.96095 3.05516 1.74524 3.47852C1.5 3.95982 1.5 4.58988 1.5 5.85V9.9C1.5 11.1601 1.5 11.7901 1.74524 12.2715C1.96095 12.6949 2.30516 13.0391 2.72852 13.2548C3.20982 13.5 3.83988 13.5 5.1 13.5Z" stroke="#737373" stroke-linecap="round" stroke-linejoin="round"/>
</svg>
