<svg width="256" height="223" viewBox="0 0 256 223" fill="none" xmlns="http://www.w3.org/2000/svg">
<path d="M207.389 99.2768C205.035 123.318 196.974 146.449 183.879 166.747C180.433 171.958 176.223 176.62 171.389 180.577C164.389 186.387 156.199 183.777 153.219 175.157C151.469 170.107 150.529 164.777 149.219 159.577C148.883 158.401 148.479 157.246 148.009 156.117C147.548 154.776 146.671 153.618 145.505 152.812C144.339 152.006 142.945 151.594 141.529 151.637C140.168 151.633 138.844 152.077 137.76 152.899C136.676 153.721 135.892 154.876 135.529 156.187C134.199 159.967 133.529 163.947 132.369 167.807C131.369 171.227 130.579 174.807 128.969 177.927C126.209 183.267 120.309 184.927 114.849 182.347C109.389 179.767 105.379 175.217 101.969 170.347C90.4085 153.777 83.1085 135.347 78.7285 115.707C77.7885 111.517 77.1585 107.257 76.6685 103.637C75.6866 96.8782 75.7405 90.0093 76.8285 83.2669C78.0751 74.874 81.5568 66.9711 86.9085 60.3869C96.0585 49.2069 109.909 46.6469 122.479 53.7969C125.969 55.7969 129.369 58.0868 133.109 59.4468C141.299 62.4468 149.049 60.8568 156.609 56.5768C161.309 53.9268 166.369 51.2469 171.609 50.2969C184.219 47.9969 193.029 54.5168 199.609 64.5668C206.519 75.1268 208.609 87.0068 207.389 99.2768Z" fill="white"/>
<path d="M140.328 214.197C140.028 215.549 139.452 216.825 138.637 217.945C137.822 219.066 136.785 220.006 135.591 220.709C134.397 221.411 133.072 221.861 131.697 222.029C130.322 222.197 128.927 222.081 127.598 221.687C113.271 217.354 99.5435 211.239 86.7385 203.487C68.0285 192.127 53.8585 178.487 45.7385 163.897C38.2685 150.517 35.8685 136.247 38.6385 122.177C21.6385 111.987 1.41846 99.177 0.0684638 75.177C-0.741536 60.797 5.63846 47.907 19.0685 36.887C30.0685 27.797 44.2885 21.457 53.9785 17.477C112.318 -6.413 184.558 -5.723 249.168 19.007C250.439 19.4917 251.598 20.2275 252.577 21.1705C253.556 22.1135 254.335 23.2443 254.867 24.4952C255.399 25.7462 255.674 27.0916 255.674 28.451C255.674 29.8104 255.4 31.1559 254.868 32.407C253.851 34.8097 251.941 36.7233 249.539 37.7439C247.138 38.7645 244.434 38.8122 241.998 37.877C182.088 14.877 115.338 14.147 61.5885 36.187C32.5885 48.077 19.4385 60.107 20.2285 74.067C20.9385 86.597 33.0585 95.127 46.0285 103.067C52.1085 93.177 61.4585 84.567 73.2185 78.187C94.2985 66.747 121.218 61.307 150.888 62.467C174.758 63.397 207.548 67.727 228.248 83.107C235.568 88.557 240.018 95.757 240.758 103.377C241.279 110.079 239.255 116.731 235.088 122.007C230.088 128.597 222.088 134.007 211.178 138.157C188.645 146.6 164.772 150.906 140.708 150.867C129.806 150.874 118.922 149.978 108.168 148.187C90.7073 145.237 73.7263 139.936 57.6885 132.427C57.4485 139.667 59.3385 146.817 63.3685 154.047C75.7585 176.237 106.368 194.197 133.368 202.317C135.821 203.042 137.908 204.67 139.207 206.873C140.506 209.076 140.921 211.69 140.368 214.187L140.328 214.197ZM63.6885 112.937C78.8136 120.311 94.9172 125.48 111.508 128.287C142.602 133.414 174.496 130.311 204.018 119.287C211.188 116.567 216.368 113.287 219.018 109.827C220.09 108.572 220.678 106.977 220.678 105.327C220.508 103.527 218.798 101.217 216.218 99.327C203.288 89.707 179.828 83.787 150.108 82.637C131.898 81.927 105.458 83.637 82.8485 95.927C74.6285 100.387 67.9685 106.357 63.6885 112.937Z" fill="#60E5A3"/>
<path d="M207.658 95.3668C194.088 88.7768 174.138 84.7168 150.108 83.7868C131.908 83.0768 105.458 84.7868 82.8485 97.0868C80.5744 98.312 78.383 99.6849 76.2885 101.197C75.6527 95.2234 75.8343 89.1911 76.8285 83.2668C77.193 81.0704 77.6838 78.8968 78.2985 76.7568C80.0158 70.7706 82.9465 65.2017 86.9085 60.3968C96.0485 49.2068 109.908 46.6468 122.458 53.7968C125.958 55.7968 129.358 58.0968 133.098 59.4468C141.288 62.4468 149.038 60.8568 156.588 56.5768C161.298 53.9268 166.358 51.2468 171.588 50.2868C184.188 47.9868 192.998 54.5068 199.588 64.5568C201.142 66.9332 202.48 69.4431 203.588 72.0568C206.699 79.4165 208.091 87.3885 207.658 95.3668Z" fill="white"/>
<path d="M46.0285 103.057L63.6885 112.937C63.6885 112.937 71.0985 102.327 75.9185 100.307L66.1185 82.4968C66.1185 82.4968 54.0185 90.7668 46.0285 103.057Z" fill="url(#paint0_linear_32_311)"/>
<path d="M38.6385 122.177L57.6885 132.437C57.6885 132.437 56.5184 140.967 63.3685 154.057L44.2185 161.057C44.2185 161.057 34.8285 146.937 38.6385 122.177Z" fill="url(#paint1_linear_32_311)"/>
<defs>
<linearGradient id="paint0_linear_32_311" x1="53.0685" y1="108.067" x2="78.2485" y2="85.3068" gradientUnits="userSpaceOnUse">
<stop stop-color="#60B5A3"/>
<stop offset="0.19" stop-color="#60C9A3"/>
<stop offset="0.4" stop-color="#60D9A3"/>
<stop offset="0.65" stop-color="#60E2A3"/>
<stop offset="1" stop-color="#60E5A3"/>
</linearGradient>
<linearGradient id="paint1_linear_32_311" x1="48.2285" y1="125.697" x2="52.8285" y2="165.627" gradientUnits="userSpaceOnUse">
<stop stop-color="#60B5A3"/>
<stop offset="0.19" stop-color="#60C9A3"/>
<stop offset="0.4" stop-color="#60D9A3"/>
<stop offset="0.65" stop-color="#60E2A3"/>
<stop offset="1" stop-color="#60E5A3"/>
</linearGradient>
</defs>
</svg>
