<svg width="1618" height="1080" viewBox="0 0 1618 1080" fill="none" xmlns="http://www.w3.org/2000/svg">
<path d="M1424.84 -291.657C1563.5 -142.739 1632.96 55.2809 1615.3 251.551C1600.19 419.97 1522.81 567.83 1403.44 657.184C1292.46 740.109 1148.38 770.784 993.364 745.487C932.244 900.368 821.404 1018.68 689.088 1069.98C557.725 1120.9 404.82 1106.78 258.66 1030.09C69.102 930.612 -84.1742 737.827 -131.88 538.636C-198.345 261.286 -59.0226 28.2579 3.90782 -59.2353L136.186 36.163C97.3371 90.0532 -25.459 282.807 26.6815 500.453C63.9599 655.989 184.728 807.213 334.372 885.668C438.279 940.24 543.41 951.567 630.145 917.884C716.11 884.549 790.224 805.773 835.49 700.409C693.181 641.912 573.773 540.926 516.162 425.886C441.767 276.811 501.6 135.858 595.638 78.8527C643.332 49.9768 703.586 44.172 765.27 62.3299C858.547 89.8477 941.31 165.928 992.212 271.139C1036.41 362.102 1050.66 473.352 1034.98 586.653C1111.25 596.627 1216.75 593.029 1305.56 526.613C1388.29 464.847 1441.88 359.139 1452.88 236.99C1466.39 86.7345 1412.67 -65.4126 1305.47 -180.531L1424.84 -291.657ZM876.233 540.423C882.77 467.532 872.651 397.759 845.787 342.353C809.73 268.125 756.789 229.829 719.214 218.771C699.601 212.952 686.22 214.769 680.266 218.373C653.046 234.843 629.385 287.553 662.183 353.099C699.332 427.532 779.619 496.275 876.233 540.423Z" fill="url(#paint0_linear_32_308)"/>
<defs>
<linearGradient id="paint0_linear_32_308" x1="314.762" y1="706.192" x2="-45.5999" y2="570.139" gradientUnits="userSpaceOnUse">
<stop stop-color="#60E5A3"/>
<stop offset="1" stop-color="#60E5A3" stop-opacity="0"/>
</linearGradient>
</defs>
</svg>
