<svg width="47" height="49" viewBox="0 0 47 49" fill="none" xmlns="http://www.w3.org/2000/svg">
<path d="M7.47616 36.2738L19.02 24.73C19.713 24.037 20.0597 23.6903 20.4592 23.5606C20.8106 23.4463 21.1894 23.4463 21.5408 23.5606C21.9403 23.6903 22.287 24.037 22.98 24.73L34.4468 36.1968M24.5 26.25L29.5201 21.23C30.2131 20.537 30.5597 20.1903 30.9592 20.0606C31.3106 19.9463 31.6894 19.9463 32.0408 20.0606C32.4403 20.1903 32.7869 20.537 33.4799 21.23L38.5 26.25M17.5 15.75C17.5 17.683 15.933 19.25 14 19.25C12.067 19.25 10.5 17.683 10.5 15.75C10.5 13.817 12.067 12.25 14 12.25C15.933 12.25 17.5 13.817 17.5 15.75ZM11.9 36.75H30.1C33.0404 36.75 34.5103 36.75 35.6335 36.1778C36.6214 35.6745 37.4245 34.8714 37.9278 33.8835C38.5 32.7603 38.5 31.2904 38.5 28.35V13.65C38.5 10.7097 38.5 9.23958 37.9278 8.11655C37.4245 7.1287 36.6214 6.32555 35.6335 5.82222C34.5103 5.25 33.0404 5.25 30.1 5.25H11.9C8.95972 5.25 7.48958 5.25 6.36655 5.82222C5.3787 6.32555 4.57555 7.1287 4.07222 8.11655C3.5 9.23958 3.5 10.7097 3.5 13.65V28.35C3.5 31.2904 3.5 32.7603 4.07222 33.8835C4.57555 34.8714 5.3787 35.6745 6.36655 36.1778C7.48958 36.75 8.95972 36.75 11.9 36.75Z" stroke="#213536" stroke-width="2" stroke-linecap="round" stroke-linejoin="round"/>
<circle cx="36" cy="38" r="11" fill="#60E5A3"/>
<path d="M40.5 33.5H31.5M39 38.5L36 35.5M36 35.5L33 38.5M36 35.5V42.5" stroke="white" stroke-linecap="round" stroke-linejoin="round"/>
</svg>
