<svg width="1353" height="484" viewBox="0 0 1353 484" fill="none" xmlns="http://www.w3.org/2000/svg">
<g clip-path="url(#clip0_36_815)">
<path d="M102.238 388.043C102.748 271.479 126.962 265.653 174.697 189.553C200.918 147.762 235.947 111.92 275.985 85.7858C317.404 58.796 362.802 43.5056 407.275 41.5437L407.494 41.5342C504.139 37.37 596.734 90.9973 690.984 151.184C785.902 211.799 893.476 280.429 1017.64 280.63C1053.1 280.684 1087.83 274.076 1118.15 261.502C1125.29 258.536 1132.26 255.183 1139.04 251.456C1168.34 263.079 1198.66 271.928 1229.61 277.89C1285.48 288.814 1342.81 290.071 1399.1 281.607L1387.04 202.103C1339.82 209.2 1291.74 208.142 1244.88 198.973C1231.67 196.421 1218.69 193.279 1205.92 189.549C1225.21 158.428 1233.43 120.504 1229.13 81.9576C1224.56 40.9992 1206.35 3.85747 1177.84 -22.6528C1153.96 -44.872 1121.29 -59.039 1088.2 -61.546C1050.38 -64.4068 1016.38 -52.3328 992.311 -27.5631C973.195 -7.87214 961.916 18.1848 959.707 47.7836C957.876 74.1117 963.096 100.452 974.829 124.092C988.584 151.677 1010.51 176.321 1041.43 198.859C1033.58 199.775 1025.68 200.225 1017.77 200.208C973.798 200.136 927.233 188.561 875.401 164.693C826.195 142.12 777.347 110.889 734.248 83.3893C686.983 53.2152 636.25 21.7638 581.502 -1.86894C518.377 -29.0916 460.31 -41.2225 404.042 -38.798L403.731 -38.7846C344.909 -36.1952 285.556 -16.4167 232.092 18.4177C182.355 50.8234 138.952 95.2296 106.578 146.825C50.7563 235.829 22.4102 255.9 21.8334 387.694L102.238 388.043ZM1075.24 18.5147C1077.54 18.4186 1079.84 18.4569 1082.14 18.6293C1097.16 19.8112 1112.47 26.34 1123.08 36.2172C1137.29 49.4328 1146.82 69.362 1149.21 90.8791C1151.6 112.396 1146.72 133.971 1135.77 149.99C1133.72 152.987 1131.49 155.857 1129.09 158.582C1123.24 155.505 1117.47 152.291 1111.78 148.939C1078.67 129.431 1057.41 109.586 1046.77 88.2602C1036.13 66.9339 1037.56 41.274 1050.01 28.4823C1057.27 20.9812 1067.35 18.855 1075.24 18.5147Z" fill="url(#paint0_linear_36_815)"/>
<g opacity="0.05">
<mask id="mask0_36_815" style="mask-type:luminance" maskUnits="userSpaceOnUse" x="1128" y="107" width="102" height="83">
<path d="M1205.91 189.184L1128.97 158.139C1128.97 158.139 1146.47 145.359 1149.98 107.399L1229.55 119.866C1229.55 119.866 1228.59 157.285 1205.91 189.184Z" fill="white"/>
</mask>
<g mask="url(#mask0_36_815)">
<path d="M1196.82 189.576L1128.72 152.205L1130.45 192.435L1196.82 189.576Z" fill="#60B5A3"/>
<path d="M1200.24 189.428L1128.63 150.133L1128.72 152.205L1196.82 189.575L1200.24 189.428Z" fill="#60B5A3"/>
<path d="M1203.65 189.281L1128.54 148.061L1128.63 150.133L1200.24 189.428L1203.65 189.281Z" fill="#60B8A3"/>
<path d="M1207.07 189.134L1128.45 145.989L1128.54 148.061L1203.65 189.281L1207.07 189.134Z" fill="#60BAA3"/>
<path d="M1210.49 188.986L1128.36 143.916L1128.45 145.989L1207.07 189.134L1210.49 188.986Z" fill="#60BDA3"/>
<path d="M1213.34 188.864L1213.48 188.61L1128.83 142.149L1128.32 143.067L1128.36 143.916L1210.49 188.986L1213.34 188.864Z" fill="#60BFA3"/>
<path d="M1129.67 140.565L1214.32 187.029L1213.47 188.583L1128.82 142.119L1129.67 140.565Z" fill="#60C1A3"/>
<path d="M1130.53 139.014L1215.18 185.477L1214.33 187.031L1129.68 140.568L1130.53 139.014Z" fill="#60C4A3"/>
<path d="M1131.39 137.463L1216.03 183.927L1215.18 185.48L1130.53 139.017L1131.39 137.463Z" fill="#60C6A3"/>
<path d="M1132.24 135.907L1216.89 182.371L1216.03 183.925L1131.39 137.461L1132.24 135.907Z" fill="#60C8A3"/>
<path d="M1133.09 134.355L1217.73 180.819L1216.88 182.372L1132.23 135.909L1133.09 134.355Z" fill="#60CAA3"/>
<path d="M1133.94 132.799L1218.59 179.263L1217.73 180.817L1133.09 134.353L1133.94 132.799Z" fill="#60CCA3"/>
<path d="M1134.79 131.248L1219.44 177.712L1218.58 179.266L1133.94 132.802L1134.79 131.248Z" fill="#60CDA3"/>
<path d="M1135.65 129.697L1220.3 176.16L1219.45 177.714L1134.8 131.251L1135.65 129.697Z" fill="#60CFA3"/>
<path d="M1136.5 128.141L1221.15 174.604L1220.3 176.158L1135.65 129.695L1136.5 128.141Z" fill="#60D1A3"/>
<path d="M1137.36 126.581L1222 173.044L1221.15 174.598L1136.5 128.135L1137.36 126.581Z" fill="#60D2A3"/>
<path d="M1138.21 125.025L1222.85 171.489L1222 173.042L1137.35 126.579L1138.21 125.025Z" fill="#60D4A3"/>
<path d="M1139.06 123.474L1223.71 169.938L1222.85 171.491L1138.21 125.028L1139.06 123.474Z" fill="#60D5A3"/>
<path d="M1139.92 121.923L1224.57 168.386L1223.71 169.94L1139.07 123.477L1139.92 121.923Z" fill="#60D7A3"/>
<path d="M1140.76 120.367L1225.41 166.831L1224.56 168.385L1139.91 121.921L1140.76 120.367Z" fill="#60D8A3"/>
<path d="M1141.62 118.816L1226.27 165.279L1225.42 166.833L1140.77 120.37L1141.62 118.816Z" fill="#60D9A3"/>
<path d="M1142.47 117.251L1227.11 163.715L1226.26 165.269L1141.62 118.805L1142.47 117.251Z" fill="#60DAA3"/>
<path d="M1143.33 115.7L1227.98 162.163L1227.12 163.717L1142.48 117.254L1143.33 115.7Z" fill="#60DBA3"/>
<path d="M1144.19 114.149L1228.84 160.612L1227.98 162.166L1143.34 115.702L1144.19 114.149Z" fill="#60DCA3"/>
<path d="M1145.03 112.593L1229.68 159.057L1228.83 160.61L1144.18 114.147L1145.03 112.593Z" fill="#60DDA3"/>
<path d="M1145.89 111.05L1230.54 157.513L1229.68 159.067L1145.04 112.604L1145.89 111.05Z" fill="#60DEA3"/>
<path d="M1230.53 157.522L1231.13 156.453L1231.1 155.805L1146.75 109.505L1145.89 111.06L1230.53 157.522Z" fill="#60DFA3"/>
<path d="M1231.01 153.733L1147.6 107.959L1146.75 109.505L1231.1 155.805L1231.01 153.733Z" fill="#60DFA3"/>
<path d="M1230.92 151.661L1150.26 107.396L1147.85 107.5L1147.6 107.959L1231.01 153.733L1230.92 151.661Z" fill="#60E0A3"/>
<path d="M1230.83 149.589L1153.69 107.249L1150.26 107.396L1230.92 151.661L1230.83 149.589Z" fill="#60E1A3"/>
<path d="M1230.74 147.516L1157.1 107.102L1153.69 107.249L1230.83 149.589L1230.74 147.516Z" fill="#60E1A3"/>
<path d="M1230.65 145.444L1160.51 106.955L1157.1 107.102L1230.74 147.516L1230.65 145.444Z" fill="#60E2A3"/>
<path d="M1230.57 143.372L1163.94 106.807L1160.51 106.955L1230.65 145.444L1230.57 143.372Z" fill="#60E2A3"/>
<path d="M1230.48 141.3L1167.35 106.66L1163.94 106.807L1230.57 143.372L1230.48 141.3Z" fill="#60E3A3"/>
<path d="M1230.39 139.228L1170.77 106.513L1167.35 106.66L1230.48 141.3L1230.39 139.228Z" fill="#60E3A3"/>
<path d="M1230.3 137.165L1174.18 106.366L1170.77 106.513L1230.39 139.228L1230.3 137.165Z" fill="#60E3A3"/>
<path d="M1230.21 135.092L1177.6 106.218L1174.18 106.366L1230.3 137.165L1230.21 135.092Z" fill="#60E4A3"/>
<path d="M1230.12 133.02L1181.02 106.071L1177.6 106.218L1230.21 135.092L1230.12 133.02Z" fill="#60E4A3"/>
<path d="M1230.03 130.948L1184.43 105.924L1181.02 106.071L1230.12 133.02L1230.03 130.948Z" fill="#60E4A3"/>
<path d="M1229.94 128.876L1187.85 105.777L1184.43 105.924L1230.03 130.948L1229.94 128.876Z" fill="#60E4A3"/>
<path d="M1229.85 126.804L1191.27 105.63L1187.85 105.777L1229.94 128.876L1229.85 126.804Z" fill="#60E5A3"/>
<path d="M1229.76 124.731L1194.68 105.482L1191.27 105.63L1229.85 126.804L1229.76 124.731Z" fill="#60E5A3"/>
<path d="M1229.67 122.659L1198.11 105.335L1194.68 105.482L1229.76 124.731L1229.67 122.659Z" fill="#60E5A3"/>
<path d="M1229.58 120.587L1201.52 105.188L1198.11 105.335L1229.67 122.659L1229.58 120.587Z" fill="#60E5A3"/>
<path d="M1229.49 118.515L1204.93 105.041L1201.52 105.188L1229.58 120.587L1229.49 118.515Z" fill="#60E5A3"/>
<path d="M1229.4 116.443L1208.36 104.893L1204.93 105.041L1229.49 118.515L1229.4 116.443Z" fill="#60E5A3"/>
<path d="M1229.32 114.37L1211.77 104.746L1208.36 104.893L1229.4 116.443L1229.32 114.37Z" fill="#60E5A3"/>
<path d="M1229.23 112.298L1215.19 104.599L1211.77 104.746L1229.32 114.37L1229.23 112.298Z" fill="#60E5A3"/>
<path d="M1229.14 110.235L1218.61 104.452L1215.19 104.599L1229.23 112.298L1229.14 110.235Z" fill="#60E5A3"/>
<path d="M1218.61 104.452L1229.14 110.235L1228.87 104.009L1218.61 104.452Z" fill="#60E5A3"/>
</g>
</g>
<g opacity="0.05">
<mask id="mask1_36_815" style="mask-type:luminance" maskUnits="userSpaceOnUse" x="981" y="196" width="159" height="85">
<path d="M1139.76 251.233C1139.76 251.233 1053.83 211.037 1040.74 198.376C1040.74 198.376 1003.55 203.152 981.226 196.761L989.529 279.729C989.529 279.729 1071.33 290.041 1139.76 251.233Z" fill="white"/>
</mask>
<g mask="url(#mask1_36_815)">
<path d="M1043.99 194.057L1118.91 273.422L1139.86 253.652L1137.12 190.044L1043.99 194.057Z" fill="#60B5A3"/>
<path d="M1040.94 194.189L1117.24 275.013L1118.91 273.422L1043.99 194.057L1040.94 194.189Z" fill="#60B5A3"/>
<path d="M1037.88 194.32L1115.55 276.604L1117.24 275.013L1040.94 194.189L1037.88 194.32Z" fill="#60B8A3"/>
<path d="M1034.82 194.452L1113.86 278.194L1115.55 276.604L1037.88 194.32L1034.82 194.452Z" fill="#60BAA3"/>
<path d="M1031.76 194.584L1112.18 279.785L1113.86 278.194L1034.82 194.452L1031.76 194.584Z" fill="#60BDA3"/>
<path d="M1028.69 194.716L1110.49 281.376L1112.18 279.785L1031.76 194.584L1028.69 194.716Z" fill="#60BFA3"/>
<path d="M1025.64 194.848L1108.82 282.957L1110.49 281.376L1028.69 194.716L1025.64 194.848Z" fill="#60C1A3"/>
<path d="M1022.58 194.98L1107.13 284.548L1108.82 282.957L1025.64 194.848L1022.58 194.98Z" fill="#60C4A3"/>
<path d="M1019.52 195.111L1105.44 286.139L1107.13 284.548L1022.58 194.98L1019.52 195.111Z" fill="#60C6A3"/>
<path d="M1016.46 195.243L1103.76 287.729L1105.44 286.139L1019.52 195.111L1016.46 195.243Z" fill="#60C8A3"/>
<path d="M1013.39 195.375L1101.49 288.696L1102.81 288.639L1103.76 287.729L1016.46 195.243L1013.39 195.375Z" fill="#60CAA3"/>
<path d="M1010.34 195.507L1098.42 288.828L1101.49 288.696L1013.39 195.375L1010.34 195.507Z" fill="#60CCA3"/>
<path d="M1007.28 195.639L1095.37 288.96L1098.42 288.828L1010.34 195.507L1007.28 195.639Z" fill="#60CDA3"/>
<path d="M1004.22 195.771L1092.31 289.092L1095.37 288.96L1007.28 195.639L1004.22 195.771Z" fill="#60CFA3"/>
<path d="M1001.16 195.902L1089.25 289.224L1092.31 289.092L1004.22 195.771L1001.16 195.902Z" fill="#60D1A3"/>
<path d="M998.095 196.034L1086.19 289.355L1089.25 289.224L1001.16 195.902L998.095 196.034Z" fill="#60D2A3"/>
<path d="M995.037 196.166L1083.12 289.488L1086.19 289.355L998.095 196.034L995.037 196.166Z" fill="#60D4A3"/>
<path d="M991.979 196.298L1080.07 289.619L1083.12 289.487L995.037 196.166L991.979 196.298Z" fill="#60D5A3"/>
<path d="M988.921 196.43L1077.01 289.751L1080.07 289.619L991.979 196.298L988.921 196.43Z" fill="#60D7A3"/>
<path d="M985.863 196.562L1073.95 289.883L1077.01 289.751L988.921 196.43L985.863 196.562Z" fill="#60D8A3"/>
<path d="M982.805 196.693L1070.89 290.015L1073.95 289.883L985.863 196.562L982.805 196.693Z" fill="#60D9A3"/>
<path d="M981.271 198.442L1067.82 290.147L1070.89 290.015L982.805 196.693L981.198 196.763L981.271 198.442Z" fill="#60DAA3"/>
<path d="M981.423 201.975L1064.77 290.278L1067.82 290.147L981.271 198.442L981.423 201.975Z" fill="#60DBA3"/>
<path d="M981.575 205.517L1061.71 290.41L1064.77 290.278L981.423 201.975L981.575 205.517Z" fill="#60DCA3"/>
<path d="M981.728 209.05L1058.65 290.542L1061.71 290.41L981.575 205.517L981.728 209.05Z" fill="#60DDA3"/>
<path d="M981.88 212.582L1055.59 290.674L1058.65 290.542L981.728 209.05L981.88 212.582Z" fill="#60DEA3"/>
<path d="M982.032 216.115L1052.53 290.806L1055.59 290.674L981.88 212.582L982.032 216.115Z" fill="#60DFA3"/>
<path d="M982.184 219.648L1049.47 290.938L1052.53 290.806L982.032 216.115L982.184 219.648Z" fill="#60DFA3"/>
<path d="M982.337 223.19L1046.41 291.069L1049.47 290.938L982.184 219.648L982.337 223.19Z" fill="#60E0A3"/>
<path d="M982.489 226.723L1043.35 291.201L1046.41 291.07L982.337 223.19L982.489 226.723Z" fill="#60E1A3"/>
<path d="M982.641 230.255L1040.29 291.333L1043.35 291.201L982.489 226.723L982.641 230.255Z" fill="#60E1A3"/>
<path d="M982.794 233.788L1037.23 291.465L1040.29 291.333L982.641 230.255L982.794 233.788Z" fill="#60E2A3"/>
<path d="M982.946 237.321L1034.17 291.597L1037.23 291.465L982.794 233.788L982.946 237.321Z" fill="#60E2A3"/>
<path d="M983.098 240.863L1031.11 291.729L1034.17 291.597L982.946 237.321L983.098 240.863Z" fill="#60E3A3"/>
<path d="M983.251 244.396L1028.05 291.861L1031.11 291.729L983.098 240.863L983.251 244.396Z" fill="#60E3A3"/>
<path d="M983.403 247.928L1024.99 291.992L1028.05 291.86L983.251 244.396L983.403 247.928Z" fill="#60E3A3"/>
<path d="M983.555 251.461L1021.94 292.124L1024.99 291.992L983.403 247.928L983.555 251.461Z" fill="#60E4A3"/>
<path d="M983.708 255.003L1018.88 292.256L1021.94 292.124L983.555 251.461L983.708 255.003Z" fill="#60E4A3"/>
<path d="M983.86 258.536L1015.81 292.388L1018.88 292.256L983.708 255.003L983.86 258.536Z" fill="#60E4A3"/>
<path d="M984.012 262.069L1012.75 292.52L1015.81 292.388L983.86 258.536L984.012 262.069Z" fill="#60E4A3"/>
<path d="M984.164 265.601L1009.69 292.651L1012.75 292.52L984.012 262.069L984.164 265.601Z" fill="#60E5A3"/>
<path d="M984.316 269.134L1006.64 292.783L1009.69 292.651L984.164 265.601L984.316 269.134Z" fill="#60E5A3"/>
<path d="M984.469 272.676L1003.58 292.915L1006.64 292.783L984.316 269.134L984.469 272.676Z" fill="#60E5A3"/>
<path d="M984.621 276.209L1000.51 293.047L1003.58 292.915L984.469 272.676L984.621 276.209Z" fill="#60E5A3"/>
<path d="M984.774 279.742L997.452 293.179L1000.51 293.047L984.621 276.209L984.774 279.742Z" fill="#60E5A3"/>
<path d="M984.926 283.274L994.394 293.311L997.452 293.179L984.774 279.742L984.926 283.274Z" fill="#60E5A3"/>
</g>
</g>
</g>
<defs>
<linearGradient id="paint0_linear_36_815" x1="10.8741" y1="230.99" x2="1394.35" y2="171.379" gradientUnits="userSpaceOnUse">
<stop stop-color="#60E5A3" stop-opacity="0"/>
<stop offset="0.61" stop-color="#60E5A3" stop-opacity="0.19"/>
<stop offset="1" stop-color="#60E5A3"/>
</linearGradient>
<clipPath id="clip0_36_815">
<rect width="1384.76" height="505.226" fill="white" transform="matrix(-0.999073 0.0430481 0.0430481 0.999073 1383.48 -81)"/>
</clipPath>
</defs>
</svg>
