<svg width="52" height="52" viewBox="0 0 52 52" fill="none" xmlns="http://www.w3.org/2000/svg">
<rect width="52" height="52" rx="12" fill="white"/>
<path d="M30 18C30.93 18 31.395 18 31.7765 18.1022C32.8117 18.3796 33.6204 19.1883 33.8978 20.2235C34 20.605 34 21.07 34 22V31.2C34 32.8802 34 33.7202 33.673 34.362C33.3854 34.9265 32.9265 35.3854 32.362 35.673C31.7202 36 30.8802 36 29.2 36H22.8C21.1198 36 20.2798 36 19.638 35.673C19.0735 35.3854 18.6146 34.9265 18.327 34.362C18 33.7202 18 32.8802 18 31.2V22C18 21.07 18 20.605 18.1022 20.2235C18.3796 19.1883 19.1883 18.3796 20.2235 18.1022C20.605 18 21.07 18 22 18M23 29L25 31L29.5 26.5M23.6 20H28.4C28.9601 20 29.2401 20 29.454 19.891C29.6422 19.7951 29.7951 19.6421 29.891 19.454C30 19.2401 30 18.9601 30 18.4V17.6C30 17.0399 30 16.7599 29.891 16.546C29.7951 16.3579 29.6422 16.2049 29.454 16.109C29.2401 16 28.9601 16 28.4 16H23.6C23.04 16 22.7599 16 22.546 16.109C22.3579 16.2049 22.2049 16.3579 22.109 16.546C22 16.7599 22 17.0399 22 17.6V18.4C22 18.9601 22 19.2401 22.109 19.454C22.2049 19.6421 22.3579 19.7951 22.546 19.891C22.7599 20 23.04 20 23.6 20Z" stroke="#365BFA" stroke-width="2" stroke-linecap="round" stroke-linejoin="round"/>
</svg>
