<svg width="20" height="20" viewBox="0 0 20 20" fill="none" xmlns="http://www.w3.org/2000/svg">
<path d="M6.77168 11.6663C7.14172 13.104 8.44683 14.1663 10 14.1663C11.5532 14.1663 12.8582 13.104 13.2283 11.6663M9.18142 2.30297L3.52949 6.6989C3.15168 6.99276 2.96278 7.13968 2.82669 7.32368C2.70614 7.48667 2.61633 7.67028 2.56169 7.86551C2.5 8.0859 2.5 8.32522 2.5 8.80388V14.833C2.5 15.7664 2.5 16.2331 2.68166 16.5896C2.84144 16.9032 3.09641 17.1582 3.41002 17.318C3.76653 17.4996 4.23324 17.4996 5.16667 17.4996H14.8333C15.7667 17.4996 16.2335 17.4996 16.59 17.318C16.9036 17.1582 17.1586 16.9032 17.3183 16.5896C17.5 16.2331 17.5 15.7664 17.5 14.833V8.80388C17.5 8.32522 17.5 8.0859 17.4383 7.86551C17.3837 7.67028 17.2938 7.48667 17.1733 7.32368C17.0372 7.13968 16.8483 6.99276 16.4705 6.69891L10.8186 2.30297C10.5258 2.07526 10.3794 1.9614 10.2177 1.91763C10.0752 1.87902 9.92483 1.87902 9.78225 1.91763C9.62058 1.9614 9.47417 2.07526 9.18142 2.30297Z" stroke="#737373" stroke-linecap="round" stroke-linejoin="round"/>
</svg>
