<svg width="20" height="20" viewBox="0 0 20 20" fill="none" xmlns="http://www.w3.org/2000/svg">
<path d="M11.6667 1.89111V5.33323C11.6667 5.79994 11.6667 6.0333 11.7575 6.21155C11.8374 6.36835 11.9648 6.49584 12.1217 6.57574C12.2999 6.66656 12.5333 6.66656 13 6.66656H16.4421M13.3333 10.8332H6.66667M13.3333 14.1665H6.66667M8.33333 7.49984H6.66667M11.6667 1.6665H7.33333C5.9332 1.6665 5.23313 1.6665 4.69836 1.93899C4.22795 2.17867 3.8455 2.56112 3.60582 3.03153C3.33333 3.5663 3.33333 4.26637 3.33333 5.6665V14.3332C3.33333 15.7333 3.33333 16.4333 3.60582 16.9682C3.8455 17.4386 4.22795 17.821 4.69836 18.0607C5.23313 18.3332 5.9332 18.3332 7.33333 18.3332H12.6667C14.0668 18.3332 14.7668 18.3332 15.3017 18.0607C15.7721 17.821 16.1545 17.4386 16.3942 16.9682C16.6667 16.4333 16.6667 15.7333 16.6667 14.3332V6.6665L11.6667 1.6665Z" stroke="#737373" stroke-linecap="round" stroke-linejoin="round"/>
</svg>
