<svg width="20" height="20" viewBox="0 0 20 20" fill="none" xmlns="http://www.w3.org/2000/svg">
<path d="M2.5 13.332V5.9987C2.5 5.06527 2.5 4.59856 2.68166 4.24205C2.84144 3.92844 3.09641 3.67347 3.41002 3.51369C3.76653 3.33203 4.23325 3.33203 5.16667 3.33203H14.8333C15.7667 3.33203 16.2335 3.33203 16.59 3.51369C16.9036 3.67347 17.1586 3.92844 17.3183 4.24205C17.5 4.59856 17.5 5.06528 17.5 5.9987V13.332H13.0522C12.8485 13.332 12.7466 13.332 12.6507 13.355C12.5656 13.3754 12.4843 13.4091 12.4097 13.4549C12.3257 13.5064 12.2536 13.5784 12.1095 13.7225L12.0572 13.7749C11.9131 13.9189 11.841 13.991 11.7569 14.0425C11.6823 14.0883 11.6011 14.1219 11.516 14.1424C11.4201 14.1654 11.3182 14.1654 11.1144 14.1654H8.88558C8.68183 14.1654 8.57992 14.1654 8.484 14.1424C8.39892 14.1219 8.31766 14.0883 8.2431 14.0425C8.159 13.991 8.08693 13.9189 7.94281 13.7749L7.89052 13.7225C7.7464 13.5784 7.67433 13.5064 7.59023 13.4549C7.51567 13.4091 7.43439 13.3754 7.34936 13.355C7.25345 13.332 7.15154 13.332 6.94772 13.332H2.5ZM2.5 13.332C2.03977 13.332 1.66667 13.7051 1.66667 14.1654V14.4431C1.66667 14.9598 1.66667 15.2181 1.72346 15.43C1.87757 16.0052 2.32682 16.4544 2.90197 16.6086C3.11392 16.6654 3.37224 16.6654 3.88889 16.6654H16.1111C16.6277 16.6654 16.8861 16.6654 17.098 16.6086C17.6732 16.4544 18.1224 16.0052 18.2766 15.43C18.3333 15.2181 18.3333 14.9598 18.3333 14.4431C18.3333 14.1848 18.3333 14.0556 18.3049 13.9497C18.2279 13.6621 18.0032 13.4374 17.7157 13.3604C17.6097 13.332 17.4806 13.332 17.2222 13.332H16.6667" stroke="#737373" stroke-linecap="round" stroke-linejoin="round"/>
<g clip-path="url(#clip0_2341_8322)">
<path d="M10.0002 10.2083C10.5755 10.2083 11.0419 9.74198 11.0419 9.16667C11.0419 8.59135 10.5755 8.125 10.0002 8.125C9.42487 8.125 8.95852 8.59135 8.95852 9.16667C8.95852 9.74198 9.42487 10.2083 10.0002 10.2083Z" stroke="#737373" stroke-linecap="round" stroke-linejoin="round"/>
<path d="M9.05887 11.7269L9.2618 12.1834C9.32214 12.3192 9.42058 12.4347 9.5452 12.5157C9.66985 12.5967 9.8153 12.6398 9.96395 12.6398C10.1126 12.6398 10.2581 12.5967 10.3827 12.5157C10.5073 12.4347 10.6058 12.3192 10.6661 12.1834L10.8691 11.7269C10.9413 11.565 11.0628 11.43 11.2163 11.3411C11.3707 11.252 11.5494 11.2141 11.7267 11.2327L12.2232 11.2856C12.371 11.3012 12.5202 11.2736 12.6526 11.2062C12.7851 11.1388 12.8951 11.0343 12.9694 10.9056C13.0437 10.7769 13.0792 10.6294 13.0713 10.481C13.0635 10.3326 13.0128 10.1897 12.9254 10.0695L12.6314 9.66559C12.5267 9.52069 12.4708 9.34628 12.4717 9.16753C12.4717 8.98927 12.5281 8.81559 12.6329 8.67139L12.9269 8.26746C13.0144 8.14731 13.0651 8.00436 13.0729 7.85596C13.0807 7.70756 13.0453 7.56008 12.9709 7.43142C12.8966 7.30268 12.7866 7.19826 12.6542 7.13081C12.5217 7.06336 12.3726 7.03577 12.2248 7.05141L11.7283 7.10426C11.5509 7.12289 11.3722 7.08494 11.2178 6.99585C11.0641 6.90651 10.9425 6.77078 10.8706 6.60812L10.6661 6.15172C10.6058 6.01586 10.5073 5.90042 10.3827 5.81941C10.2581 5.7384 10.1126 5.69529 9.96395 5.69531C9.8153 5.69529 9.66985 5.7384 9.5452 5.81941C9.42058 5.90042 9.32214 6.01586 9.2618 6.15172L9.05887 6.60812C8.98697 6.77078 8.86542 6.90651 8.71164 6.99585C8.55721 7.08494 8.37854 7.12289 8.20123 7.10426L7.70316 7.05141C7.55536 7.03577 7.40619 7.06336 7.27375 7.13081C7.14131 7.19826 7.03129 7.30268 6.95702 7.43142C6.88265 7.56008 6.84722 7.70756 6.85503 7.85596C6.86283 8.00436 6.91354 8.14731 7.001 8.26746L7.29498 8.67139C7.39982 8.81559 7.45628 8.98927 7.45625 9.16753C7.45628 9.3458 7.39982 9.51951 7.29498 9.66368L7.001 10.0676C6.91354 10.1877 6.86283 10.3307 6.85503 10.4791C6.84722 10.6275 6.88265 10.775 6.95702 10.9036C7.03136 11.0323 7.1414 11.1367 7.27382 11.2041C7.40624 11.2716 7.55537 11.2992 7.70316 11.2836L8.19969 11.2308C8.377 11.2122 8.55566 11.2501 8.7101 11.3392C8.86445 11.4283 8.98656 11.5641 9.05887 11.7269Z" stroke="#737373" stroke-linecap="round" stroke-linejoin="round"/>
</g>
<defs>
<clipPath id="clip0_2341_8322">
<rect width="8.33333" height="8.33333" fill="white" transform="translate(5.83333 5)"/>
</clipPath>
</defs>
</svg>
