<svg width="16" height="18" viewBox="0 0 16 18" fill="none" xmlns="http://www.w3.org/2000/svg">
<path d="M14.6667 9.41602V4.66602C14.6667 3.26588 14.6667 2.56582 14.3942 2.03104C14.1545 1.56063 13.7721 1.17818 13.3017 0.938499C12.7668 0.666016 12.0668 0.666016 10.6667 0.666016H5.33334C3.9332 0.666016 3.23314 0.666016 2.69836 0.938499C2.22795 1.17818 1.8455 1.56063 1.60582 2.03104C1.33334 2.56582 1.33334 3.26588 1.33334 4.66602V13.3327C1.33334 14.7328 1.33334 15.4328 1.60582 15.9677C1.8455 16.4381 2.22795 16.8205 2.69836 17.0602C3.23314 17.3327 3.9332 17.3327 5.33334 17.3327H8M9.66667 8.16602H4.66667M6.33334 11.4993H4.66667M11.3333 4.83268H4.66667M10.0833 14.8327L11.75 16.4993L15.5 12.7493" stroke="#737373" stroke-linecap="round" stroke-linejoin="round"/>
</svg>
