<svg width="20" height="20" viewBox="0 0 20 20" fill="none" xmlns="http://www.w3.org/2000/svg">
<path d="M9.16667 3.74984H15.25C16.1834 3.74984 16.6502 3.74984 17.0067 3.9315C17.3202 4.09128 17.5752 4.34625 17.735 4.65985C17.9167 5.01637 17.9167 5.48308 17.9167 6.4165V7.49984C17.9167 8.2764 17.9167 8.66467 17.7898 8.971C17.6207 9.37934 17.2962 9.70384 16.8878 9.873C16.5815 9.99984 16.1932 9.99984 15.4167 9.99984M10.8333 16.2498H4.75C3.81658 16.2498 3.34987 16.2498 2.99335 16.0682C2.67974 15.9084 2.42477 15.6534 2.26499 15.3398C2.08333 14.9833 2.08333 14.5166 2.08333 13.5832V12.4998C2.08333 11.7233 2.08333 11.335 2.2102 11.0287C2.37936 10.6203 2.70382 10.2958 3.11219 10.1267C3.41848 9.99984 3.80677 9.99984 4.58333 9.99984M8.58333 12.0832H11.4167C11.65 12.0832 11.7667 12.0832 11.8558 12.0378C11.9342 11.9978 11.998 11.9341 12.0379 11.8557C12.0833 11.7665 12.0833 11.6498 12.0833 11.4165V8.58317C12.0833 8.34984 12.0833 8.23314 12.0379 8.144C11.998 8.0656 11.9342 8.00186 11.8558 7.96192C11.7667 7.9165 11.65 7.9165 11.4167 7.9165H8.58333C8.35 7.9165 8.2333 7.9165 8.14417 7.96192C8.06577 8.00186 8.00202 8.0656 7.96208 8.144C7.91667 8.23314 7.91667 8.34984 7.91667 8.58317V11.4165C7.91667 11.6498 7.91667 11.7665 7.96208 11.8557C8.00202 11.9341 8.06577 11.9978 8.14417 12.0378C8.2333 12.0832 8.35 12.0832 8.58333 12.0832ZM14.8333 18.3332H17.6667C17.9 18.3332 18.0167 18.3332 18.1058 18.2878C18.1842 18.2478 18.248 18.1841 18.2879 18.1057C18.3333 18.0165 18.3333 17.8998 18.3333 17.6665V14.8332C18.3333 14.5998 18.3333 14.4832 18.2879 14.394C18.248 14.3156 18.1842 14.2518 18.1058 14.2119C18.0167 14.1665 17.9 14.1665 17.6667 14.1665H14.8333C14.6 14.1665 14.4833 14.1665 14.3942 14.2119C14.3157 14.2518 14.252 14.3156 14.2121 14.394C14.1667 14.4832 14.1667 14.5998 14.1667 14.8332V17.6665C14.1667 17.8998 14.1667 18.0165 14.2121 18.1057C14.252 18.1841 14.3157 18.2478 14.3942 18.2878C14.4833 18.3332 14.6 18.3332 14.8333 18.3332ZM2.33333 5.83317H5.16667C5.40002 5.83317 5.5167 5.83317 5.60583 5.78775C5.68423 5.74781 5.74797 5.68407 5.78792 5.60567C5.83333 5.51654 5.83333 5.39986 5.83333 5.1665V2.33317C5.83333 2.09981 5.83333 1.98314 5.78792 1.894C5.74797 1.8156 5.68423 1.75186 5.60583 1.71192C5.5167 1.6665 5.40002 1.6665 5.16667 1.6665H2.33333C2.09997 1.6665 1.9833 1.6665 1.89417 1.71192C1.81577 1.75186 1.75202 1.8156 1.71208 1.894C1.66667 1.98314 1.66667 2.09981 1.66667 2.33317V5.1665C1.66667 5.39986 1.66667 5.51654 1.71208 5.60567C1.75202 5.68407 1.81577 5.74781 1.89417 5.78775C1.9833 5.83317 2.09997 5.83317 2.33333 5.83317Z" stroke="#737373" stroke-linecap="round" stroke-linejoin="round"/>
</svg>
