<svg width="20" height="20" viewBox="0 0 20 20" fill="none" xmlns="http://www.w3.org/2000/svg">
<path d="M6.25 9.16667H3.83333C3.36662 9.16667 3.13327 9.16667 2.95501 9.2575C2.79821 9.33742 2.67072 9.46483 2.59082 9.62167C2.5 9.79992 2.5 10.0333 2.5 10.5V17.5M13.75 9.16667H16.1667C16.6334 9.16667 16.8667 9.16667 17.045 9.2575C17.2018 9.33742 17.3292 9.46483 17.4092 9.62167C17.5 9.79992 17.5 10.0333 17.5 10.5V17.5M13.75 17.5V5.16667C13.75 4.23325 13.75 3.76653 13.5683 3.41002C13.4086 3.09641 13.1536 2.84144 12.84 2.68166C12.4835 2.5 12.0167 2.5 11.0833 2.5H8.91667C7.98324 2.5 7.51653 2.5 7.16002 2.68166C6.84641 2.84144 6.59144 3.09641 6.43166 3.41002C6.25 3.76653 6.25 4.23325 6.25 5.16667V17.5M18.3333 17.5H1.66667M9.16667 5.83333H10.8333M9.16667 9.16667H10.8333M9.16667 12.5H10.8333" stroke="#737373" stroke-linecap="round" stroke-linejoin="round"/>
</svg>
