<svg width="20" height="20" viewBox="0 0 20 20" fill="none" xmlns="http://www.w3.org/2000/svg">
<path d="M10.0004 12.5C11.3811 12.5 12.5004 11.3807 12.5004 10C12.5004 8.61925 11.3811 7.5 10.0004 7.5C8.61967 7.5 7.50041 8.61925 7.50041 10C7.50041 11.3807 8.61967 12.5 10.0004 12.5Z" stroke="#737373" stroke-linecap="round" stroke-linejoin="round"/>
<path d="M7.74131 16.1424L8.22835 17.2378C8.37317 17.5638 8.60942 17.8409 8.9085 18.0353C9.20767 18.2298 9.55675 18.3333 9.9135 18.3332C10.2703 18.3333 10.6194 18.2298 10.9185 18.0353C11.2177 17.8409 11.4539 17.5638 11.5987 17.2378L12.0857 16.1424C12.2592 15.7538 12.5507 15.4298 12.9191 15.2165C13.2897 15.0027 13.7185 14.9116 14.1441 14.9563L15.3358 15.0832C15.6905 15.1207 16.0485 15.0545 16.3663 14.8926C16.6842 14.7308 16.9482 14.4801 17.1265 14.1712C17.305 13.8623 17.39 13.5084 17.3712 13.1523C17.3525 12.7961 17.2308 12.453 17.0209 12.1647L16.3154 11.1952C16.0642 10.8474 15.9299 10.4288 15.9321 9.99984C15.932 9.572 16.0675 9.15517 16.3191 8.80909L17.0247 7.83965C17.2345 7.5513 17.3562 7.20823 17.375 6.85206C17.3937 6.4959 17.3087 6.14195 17.1302 5.83317C16.9519 5.5242 16.6879 5.27358 16.37 5.1117C16.0522 4.94981 15.6942 4.88361 15.3395 4.92114L14.1478 5.04799C13.7222 5.09268 13.2934 5.0016 12.9228 4.7878C12.5537 4.57338 12.262 4.24764 12.0895 3.85725L11.5987 2.76187C11.4539 2.43581 11.2177 2.15877 10.9185 1.96434C10.6194 1.7699 10.2703 1.66645 9.9135 1.6665C9.55675 1.66645 9.20767 1.7699 8.9085 1.96434C8.60942 2.15877 8.37317 2.43581 8.22835 2.76187L7.74131 3.85725C7.56875 4.24764 7.27704 4.57338 6.90797 4.7878C6.53732 5.0016 6.10853 5.09268 5.68297 5.04799L4.48761 4.92114C4.13288 4.88361 3.77489 4.94981 3.45703 5.1117C3.13918 5.27358 2.87512 5.5242 2.69687 5.83317C2.51838 6.14195 2.43335 6.4959 2.45209 6.85206C2.47082 7.20823 2.59252 7.5513 2.80242 7.83965L3.50797 8.80909C3.75959 9.15517 3.89509 9.572 3.89502 9.99984C3.89509 10.4277 3.75959 10.8446 3.50797 11.1906L2.80242 12.16C2.59252 12.4483 2.47082 12.7914 2.45209 13.1476C2.43335 13.5038 2.51838 13.8578 2.69687 14.1665C2.8753 14.4753 3.13939 14.7258 3.4572 14.8877C3.77501 15.0495 4.13291 15.1158 4.48761 15.0785L5.67927 14.9517C6.10483 14.907 6.53362 14.9981 6.90427 15.2118C7.27472 15.4257 7.56778 15.7515 7.74131 16.1424Z" stroke="#737373" stroke-linecap="round" stroke-linejoin="round"/>
</svg>
