<svg width="12" height="14" viewBox="0 0 12 14" fill="none" xmlns="http://www.w3.org/2000/svg">
<path d="M8.33331 2.33366C8.87581 2.33366 9.14706 2.33366 9.3696 2.39329C9.97347 2.5551 10.4452 3.02682 10.607 3.63072C10.6666 3.85327 10.6666 4.12451 10.6666 4.66699V10.0337C10.6666 11.0138 10.6666 11.5038 10.4759 11.8782C10.3081 12.2075 10.0404 12.4751 9.71115 12.6429C9.33676 12.8337 8.84676 12.8337 7.86665 12.8337H4.13331C3.15322 12.8337 2.66317 12.8337 2.28883 12.6429C1.95954 12.4751 1.69183 12.2075 1.52405 11.8782C1.33331 11.5038 1.33331 11.0138 1.33331 10.0337V4.66699C1.33331 4.12451 1.33331 3.85327 1.39294 3.63072C1.55476 3.02682 2.02647 2.5551 2.63038 2.39329C2.85292 2.33366 3.12416 2.33366 3.66665 2.33366M4.24998 8.75033L5.41665 9.91699L8.04165 7.29199M4.59998 3.50033H7.39998C7.7267 3.50033 7.89004 3.50033 8.01481 3.43675C8.1246 3.38082 8.21379 3.29158 8.26973 3.18182C8.33331 3.05704 8.33331 2.89369 8.33331 2.56699V2.10033C8.33331 1.77363 8.33331 1.61028 8.26973 1.4855C8.21379 1.37574 8.1246 1.2865 8.01481 1.23057C7.89004 1.16699 7.7267 1.16699 7.39998 1.16699H4.59998C4.27328 1.16699 4.10993 1.16699 3.98515 1.23057C3.87539 1.2865 3.78615 1.37574 3.73022 1.4855C3.66665 1.61028 3.66665 1.77363 3.66665 2.10033V2.56699C3.66665 2.89369 3.66665 3.05704 3.73022 3.18182C3.78615 3.29158 3.87539 3.38082 3.98515 3.43675C4.10993 3.50033 4.27328 3.50033 4.59998 3.50033Z" stroke="#737373" stroke-linecap="round" stroke-linejoin="round"/>
</svg>
