<svg width="536" height="647" viewBox="0 0 536 647" fill="none" xmlns="http://www.w3.org/2000/svg">
<path d="M-246.014 352.085C-245.292 440.628 -208.009 523.987 -143.719 580.738C-88.5622 629.445 -19.8788 653.031 44.577 645.564C104.459 638.573 159.17 605.171 200.596 550.805C266.242 581.473 336.664 585.709 393.826 562.342C450.578 539.143 494.679 488.941 517.933 420.983C548.085 332.839 538.86 226.06 494.354 148.836C432.396 41.2975 318.657 9.32453 272.596 0.496754L259.327 70.2156C287.725 75.6269 384.193 99.8147 432.819 184.198C467.562 244.507 474.629 328.426 450.803 397.985C434.287 446.314 404.449 481.342 366.96 496.642C329.82 511.821 282.832 509.093 237.008 489.333C264.486 428.277 272.017 360.641 255.813 307.05C234.733 237.681 173.659 211.031 126.887 221.144C103.175 226.284 82.3955 242.474 68.332 266.664C47.0833 303.263 43.6841 352.065 59.0683 400.543C72.31 442.512 101.084 481.936 139.931 513.054C118.808 539.023 84.3912 569.442 36.4538 575.018C-8.16782 580.243 -56.7247 562.864 -96.7406 527.55C-145.957 484.103 -174.491 419.948 -175.044 351.497L-246.014 352.085ZM176.274 450.958C152.404 429.876 134.731 404.797 126.648 379.25C115.84 345.005 121.116 317.065 129.684 302.33C134.142 294.624 138.915 291.196 141.875 290.554C155.404 287.617 178.649 297.198 187.89 327.725C198.415 362.362 193.603 408.104 176.274 450.958Z" fill="url(#paint0_linear_12_110)"/>
<defs>
<linearGradient id="paint0_linear_12_110" x1="403.314" y1="335.396" x2="476.508" y2="184.601" gradientUnits="userSpaceOnUse">
<stop stop-color="#60E5A3"/>
<stop offset="1" stop-color="#60E5A3" stop-opacity="0"/>
</linearGradient>
</defs>
</svg>
