<svg width="662" height="968" viewBox="0 0 662 968" fill="none" xmlns="http://www.w3.org/2000/svg">
<g filter="url(#filter0_n_155_213)">
<path d="M0 40C0 17.9086 17.9086 0 40 0H622C644.091 0 662 17.9086 662 40V928C662 950.091 644.091 968 622 968H40C17.9086 968 0 950.091 0 928V40Z" fill="#213536"/>
</g>
<path d="M503.326 608.124C498.409 658.206 481.585 706.392 454.256 748.672C447.068 759.535 438.287 769.257 428.205 777.513C413.68 789.589 396.491 784.166 390.295 766.203C386.63 755.691 384.665 744.58 381.866 733.735C381.162 731.283 380.316 728.872 379.335 726.517C378.365 723.73 376.531 721.324 374.099 719.649C371.667 717.974 368.763 717.117 365.809 717.202C362.951 717.166 360.162 718.077 357.877 719.792C355.593 721.508 353.942 723.931 353.184 726.683C350.419 734.534 348.953 742.85 346.521 750.901C344.841 758.131 342.464 765.183 339.425 771.958C333.662 783.102 321.37 786.495 309.977 781.172C298.584 775.85 290.222 766.336 283.093 756.157C259.627 721.763 243.169 683.094 234.656 642.354C232.723 633.605 231.324 624.723 230.392 617.172C228.391 603.126 228.548 588.857 230.858 574.858C233.423 557.327 240.699 540.819 251.912 527.088C270.967 503.769 299.849 498.347 326.1 513.35C333.157 517.834 340.578 521.717 348.287 524.959C365.376 531.147 381.6 527.92 397.324 519.005C407.118 513.616 417.678 508.027 428.571 506.031C454.856 501.241 473.244 514.98 487.036 535.771C501.494 557.793 505.858 582.443 503.326 608.124Z" fill="white" fill-opacity="0.12"/>
<mask id="mask0_155_213" style="mask-type:alpha" maskUnits="userSpaceOnUse" x="0" y="0" width="662" height="968">
<path d="M0 40C0 17.9086 17.9086 0 40 0H622C644.091 0 662 17.9086 662 40V928C662 950.091 644.091 968 622 968H40C17.9086 968 0 950.091 0 928V40Z" fill="#213536"/>
</mask>
<g mask="url(#mask0_155_213)">
<path d="M150.023 576.135C150.702 659.324 185.731 737.642 246.132 790.96C297.953 836.722 362.483 858.882 423.041 851.866C479.301 845.298 530.703 813.916 569.624 762.838C631.301 791.651 697.463 795.631 751.169 773.677C804.489 751.881 845.922 704.715 867.77 640.867C896.099 558.054 887.432 457.732 845.617 385.178C787.406 284.143 680.546 254.104 637.271 245.81L624.803 311.313C651.484 316.397 742.118 339.122 787.803 418.402C820.446 475.063 827.085 553.908 804.7 619.26C789.183 664.666 761.149 697.576 725.928 711.95C691.033 726.211 646.887 723.649 603.834 705.084C629.651 647.72 636.726 584.174 621.502 533.824C601.697 468.65 544.317 443.612 500.373 453.113C478.095 457.943 458.572 473.153 445.359 495.88C425.396 530.266 422.202 576.117 436.656 621.663C449.097 661.094 476.131 698.133 512.629 727.37C492.783 751.768 460.447 780.347 415.409 785.587C373.486 790.496 327.865 774.167 290.27 740.989C244.03 700.17 217.222 639.895 216.701 575.583L150.023 576.135ZM546.774 669.029C524.347 649.222 507.743 625.66 500.148 601.658C489.994 569.483 494.951 543.233 503.001 529.39C507.189 522.15 511.674 518.929 514.454 518.326C527.166 515.566 549.005 524.568 557.687 553.249C567.575 585.791 563.055 628.767 546.774 669.029Z" fill="url(#paint0_linear_155_213)"/>
<path d="M546.774 669.029C546.774 669.029 582.449 700.262 603.843 705.096C603.843 705.096 625.443 652.434 627.45 622.263L562.866 589.012C562.866 589.012 564.147 628.118 546.774 669.029Z" fill="url(#paint1_linear_155_213)"/>
<path d="M569.597 762.802C569.597 762.802 524.294 742.501 512.548 727.412C512.548 727.412 479.629 774.52 419.622 785.052L445.122 847.949C445.122 847.949 508.98 837.82 569.597 762.802Z" fill="url(#paint2_linear_155_213)"/>
<g clip-path="url(#clip0_155_213)">
<path d="M792.334 608.124C787.416 658.206 770.593 706.392 743.263 748.672C736.076 759.535 727.294 769.257 717.213 777.513C702.688 789.589 685.498 784.166 679.302 766.203C675.638 755.691 673.672 744.58 670.874 733.735C670.169 731.283 669.324 728.872 668.342 726.517C667.373 723.73 665.539 721.324 663.106 719.649C660.674 717.974 657.77 717.117 654.817 717.202C651.959 717.166 649.17 718.077 646.885 719.792C644.601 721.508 642.95 723.931 642.191 726.683C639.426 734.534 637.961 742.85 635.529 750.901C633.848 758.131 631.472 765.183 628.433 771.958C622.67 783.102 610.377 786.495 598.984 781.172C587.591 775.85 579.23 766.336 572.101 756.157C548.635 721.763 532.176 683.094 523.663 642.354C521.731 633.605 520.332 624.723 519.399 617.172C517.399 603.126 517.556 588.857 519.866 574.858C522.43 557.327 529.706 540.819 540.919 527.088C559.975 503.769 588.857 498.347 615.108 513.35C622.164 517.834 629.586 521.717 637.294 524.959C654.384 531.147 670.607 527.92 686.331 519.005C696.125 513.616 706.686 508.027 717.579 506.031C743.863 501.241 762.252 514.98 776.044 535.771C790.501 557.793 794.866 582.443 792.334 608.124Z" fill="white" fill-opacity="0.12"/>
</g>
</g>
<g clip-path="url(#clip1_155_213)">
<path d="M151.547 632.932C163.542 639.904 172.696 641.958 182.847 640.118C197.274 637.516 210.116 631.488 220.73 621.174C231.142 611.069 237.225 598.33 241.978 584.937C248.074 567.756 258.694 554.452 274.545 545.427C276.158 544.497 277.642 543.359 278.96 542.044C282.722 538.297 283.024 532.825 279.154 529.183C276.946 527.153 274.199 525.803 271.242 525.295C257.571 523.334 245.929 527.64 236.369 537.624C234.849 539.286 233.182 540.808 231.39 542.171C225.894 546.141 220.226 545.719 215.451 540.84C213.399 538.734 211.622 536.377 210.16 533.826C205.461 525.623 203.028 516.64 201.763 507.331C199.088 487.692 196.509 468.039 193.789 448.407C193.534 446.372 192.866 444.41 191.826 442.641C190.425 440.421 188.309 438.744 185.827 437.889C183.345 437.033 180.646 437.05 178.174 437.937C172.876 439.796 169.685 444.804 170.44 450.696C172.276 465.191 174.309 479.685 176.25 494.186C176.822 498.462 177.513 502.732 177.854 507.031C177.933 507.967 176.765 509.001 176.152 509.98C175.188 509.344 174.259 508.655 173.369 507.918C173.069 507.649 173.11 507 172.983 506.525L155.995 443.09C154.131 436.15 147.734 432.443 141.025 434.448C134.854 436.252 131.518 442.49 133.286 449.184C138.27 467.966 143.29 486.737 148.345 505.497C149.335 509.191 150.434 512.86 151.336 516.578C151.496 517.242 150.953 518.078 150.721 518.821C149.977 518.411 149.269 517.938 148.604 517.409C148.286 517.123 148.246 516.522 148.097 516.048L140.688 493.403C137.391 483.336 134.079 473.261 130.844 463.169C129.214 458.146 126.045 454.786 120.735 454.121C111.86 452.997 105.445 461.056 108.26 469.837C114.314 488.713 120.54 507.539 126.694 526.385C127.386 528.22 127.961 530.097 128.415 532.005C128.554 532.731 127.902 534.225 127.424 534.31C126.6 534.453 125.52 533.932 124.753 533.387C124.269 533.047 124.195 532.174 123.934 531.554C120.061 521.671 116.238 511.797 112.227 501.978C109.279 494.759 101.391 492.15 94.9749 496.099C90.2772 498.992 88.3869 504.541 90.1941 510.271C93.7828 521.588 97.6481 532.826 100.952 544.224C107 565.138 114.4 585.465 125.798 604.147C133.214 616.211 141.894 627.134 151.547 632.932ZM226.419 446.491C225.74 446.596 224.185 446.378 223.624 447.02C222.298 448.54 223.715 449.631 224.874 450.593C240.385 463.412 245.124 480.903 238.225 499.933C237.68 501.442 236.787 503.225 239.027 503.716C239.834 503.897 241.547 502.45 241.984 501.423C244.587 495.369 245.771 488.8 245.446 482.218C244.724 467.631 238.39 455.968 226.419 446.491ZM67.8902 549.374C68.5221 549.269 69.9936 549.466 70.6286 548.826C71.9051 547.522 70.89 546.405 69.6797 545.461C68.2698 544.405 66.9358 543.25 65.6877 542.007C53.0362 528.752 49.8119 513.489 56.0149 496.218C56.5188 494.815 57.6783 493.042 55.6233 492.101C53.4004 491.096 52.8764 493.1 52.2264 494.65C49.8587 500.273 48.7104 506.334 48.8574 512.433C49.2047 527.49 55.5486 539.561 67.8902 549.374ZM68.0752 499.637C62.7417 511.891 65.5378 526.607 77.017 535.31C77.7314 535.851 79.2317 535.35 80.3928 535.354C80.0754 534.266 80.1077 532.761 79.3891 532.155C74.6416 528.183 71.4004 523.346 70.0793 517.257C68.9342 512.017 69.6801 506.978 71.4247 501.965C71.7023 501.166 71.2053 499.553 70.5495 499.133C69.8937 498.714 68.6165 499.5 68.0752 499.637ZM216.54 459.951C216.091 460.045 214.565 459.954 214.229 460.548C213.825 461.247 214.364 462.565 214.668 463.557C214.785 463.944 215.391 464.179 215.765 464.497C220.977 468.961 224.323 474.594 224.58 481.443C224.73 485.448 223.466 489.487 223.044 493.529C222.928 494.639 223.561 495.828 223.851 496.975C224.901 496.355 225.892 495.641 226.811 494.84C227.301 494.334 227.375 493.404 227.602 492.657C231.897 478.586 225.328 466.351 216.54 459.951Z" fill="white"/>
<path d="M151.547 632.932C141.894 627.134 133.208 616.221 125.833 604.133C114.424 585.471 107.023 565.144 100.987 544.21C97.6713 532.833 93.7913 521.62 90.2174 510.278C88.3957 504.525 90.28 498.987 94.9981 496.106C101.411 492.162 109.3 494.771 112.25 501.985C116.26 511.783 120.09 521.681 123.996 531.528C124.245 532.169 124.335 533.05 124.815 533.362C125.582 533.906 126.662 534.428 127.486 534.285C127.964 534.2 128.616 532.706 128.477 531.979C128.023 530.071 127.448 528.194 126.756 526.36C120.623 507.526 114.376 488.688 108.322 469.812C105.507 461.03 111.922 452.972 120.797 454.096C126.107 454.76 129.291 458.095 130.907 463.143C134.141 473.235 137.462 483.296 140.75 493.378L148.159 516.023C148.314 516.486 148.348 517.098 148.666 517.383C149.331 517.913 150.039 518.385 150.783 518.796C150.999 518.043 151.549 517.198 151.398 516.552C150.496 512.835 149.397 509.166 148.407 505.472C143.376 486.694 138.356 467.923 133.348 449.158C131.574 442.474 134.91 436.237 141.093 434.412C147.79 432.428 154.187 436.135 156.063 443.055L173.029 506.517C173.156 506.992 173.114 507.641 173.415 507.91C174.304 508.647 175.233 509.336 176.197 509.972C176.786 508.952 177.963 507.951 177.9 507.023C177.55 502.739 176.867 498.454 176.295 494.178C174.349 479.687 172.336 465.205 170.486 450.688C169.725 444.807 172.922 439.788 178.22 437.929C180.691 437.042 183.39 437.025 185.872 437.881C188.354 438.736 190.47 440.413 191.871 442.633C192.911 444.402 193.579 446.364 193.834 448.399C196.554 468.031 199.133 487.684 201.808 507.323C203.073 516.632 205.526 525.627 210.205 533.818C211.652 536.369 213.414 538.728 215.451 540.839C220.226 545.719 225.894 546.141 231.39 542.171C233.182 540.807 234.849 539.286 236.369 537.624C245.929 527.64 257.551 523.323 271.242 525.295C274.198 525.802 276.946 527.152 279.154 529.183C283.044 532.79 282.732 538.303 278.96 542.044C277.642 543.359 276.158 544.496 274.544 545.426C258.679 554.478 248.054 567.744 241.978 584.937C237.225 598.33 231.142 611.069 220.73 621.174C210.121 631.477 197.265 637.497 182.847 640.118C172.696 641.958 163.541 639.904 151.547 632.932Z" fill="#60E5A3"/>
<path d="M226.419 446.491C238.39 455.967 244.724 467.631 245.446 482.218C245.763 488.797 244.571 495.363 241.963 501.411C241.512 502.464 239.814 503.885 239.006 503.704C236.766 503.214 237.66 501.43 238.204 499.921C245.108 480.894 240.365 463.4 224.854 450.581C223.695 449.619 222.277 448.528 223.604 447.008C224.185 446.378 225.74 446.596 226.419 446.491Z" fill="#60E5A3"/>
<path d="M67.8901 549.374C55.5485 539.561 49.225 527.502 48.8632 512.422C48.7162 506.323 49.8645 500.262 52.2322 494.639C52.8784 493.108 53.3974 491.101 55.6232 492.101C57.6658 493.028 56.5216 494.81 56.0177 496.213C49.7802 513.473 53.0045 528.736 65.6905 542.002C66.9387 543.245 68.2726 544.4 69.6825 545.456C70.8928 546.4 71.886 547.531 70.6314 548.82C69.9986 549.469 68.5219 549.269 67.8901 549.374Z" fill="#60E5A3"/>
<path d="M68.0751 499.637C68.6164 499.5 69.9379 498.767 70.5201 499.137C71.1024 499.507 71.6759 501.165 71.3954 501.969C69.6456 506.979 68.8997 512.018 70.05 517.26C71.3799 523.334 74.6313 528.177 79.3598 532.159C80.0783 532.764 80.046 534.269 80.3634 535.357C79.2219 535.379 77.7246 535.875 76.9876 535.313C65.5173 526.596 62.7416 511.891 68.0751 499.637Z" fill="#60E5A3"/>
<path d="M216.54 459.951C225.327 466.351 231.896 478.586 227.592 492.651C227.365 493.398 227.301 494.334 226.801 494.834C225.881 495.635 224.891 496.349 223.841 496.969C223.551 495.822 222.917 494.633 223.034 493.523C223.451 489.478 224.715 485.439 224.57 481.437C224.313 474.588 220.966 468.955 215.755 464.491C215.381 464.173 214.78 463.928 214.658 463.551C214.353 462.559 213.82 461.244 214.218 460.542C214.565 459.953 216.09 460.045 216.54 459.951Z" fill="#60E5A3"/>
</g>
<defs>
<filter id="filter0_n_155_213" x="0" y="0" width="662" height="968" filterUnits="userSpaceOnUse" color-interpolation-filters="sRGB">
<feFlood flood-opacity="0" result="BackgroundImageFix"/>
<feBlend mode="normal" in="SourceGraphic" in2="BackgroundImageFix" result="shape"/>
<feTurbulence type="fractalNoise" baseFrequency="0.66666668653488159 0.66666668653488159" stitchTiles="stitch" numOctaves="3" result="noise" seed="6037" />
<feColorMatrix in="noise" type="luminanceToAlpha" result="alphaNoise" />
<feComponentTransfer in="alphaNoise" result="coloredNoise1">
<feFuncA type="discrete" tableValues="1 1 1 1 1 1 1 1 1 1 1 1 1 1 1 1 1 1 1 1 1 1 1 1 1 1 1 1 1 1 1 1 1 1 1 1 1 1 1 1 1 1 1 1 1 1 1 1 1 1 1 0 0 0 0 0 0 0 0 0 0 0 0 0 0 0 0 0 0 0 0 0 0 0 0 0 0 0 0 0 0 0 0 0 0 0 0 0 0 0 0 0 0 0 0 0 0 0 0 0 "/>
</feComponentTransfer>
<feComposite operator="in" in2="shape" in="coloredNoise1" result="noise1Clipped" />
<feFlood flood-color="rgba(0, 0, 0, 0.25)" result="color1Flood" />
<feComposite operator="in" in2="noise1Clipped" in="color1Flood" result="color1" />
<feMerge result="effect1_noise_155_213">
<feMergeNode in="shape" />
<feMergeNode in="color1" />
</feMerge>
</filter>
<linearGradient id="paint0_linear_155_213" x1="760.083" y1="560.456" x2="828.851" y2="418.781" gradientUnits="userSpaceOnUse">
<stop stop-color="#60E5A3"/>
<stop offset="1" stop-color="#60E5A3" stop-opacity="0"/>
</linearGradient>
<linearGradient id="paint1_linear_155_213" x1="571.038" y1="697.641" x2="597.099" y2="603.374" gradientUnits="userSpaceOnUse">
<stop stop-color="#60B5A3"/>
<stop offset="0.19" stop-color="#60C9A3"/>
<stop offset="0.4" stop-color="#60D9A3"/>
<stop offset="0.65" stop-color="#60E2A3"/>
<stop offset="1" stop-color="#60E5A3"/>
</linearGradient>
<linearGradient id="paint2_linear_155_213" x1="542.954" y1="745.625" x2="431.379" y2="826.04" gradientUnits="userSpaceOnUse">
<stop stop-color="#60B5A3"/>
<stop offset="0.19" stop-color="#60C9A3"/>
<stop offset="0.4" stop-color="#60D9A3"/>
<stop offset="0.65" stop-color="#60E2A3"/>
<stop offset="1" stop-color="#60E5A3"/>
</linearGradient>
<clipPath id="clip0_155_213">
<rect width="275" height="279" fill="white" transform="translate(518 505)"/>
</clipPath>
<clipPath id="clip1_155_213">
<rect width="220.643" height="198.898" fill="white" transform="translate(116.449 383) rotate(30)"/>
</clipPath>
</defs>
</svg>
