<svg width="820" height="247" viewBox="0 0 820 247" fill="none" xmlns="http://www.w3.org/2000/svg">
<g filter="url(#filter0_n_272_2502)">
<rect width="820" height="247" rx="20" fill="url(#paint0_linear_272_2502)"/>
</g>
<mask id="mask0_272_2502" style="mask-type:alpha" maskUnits="userSpaceOnUse" x="55" y="0" width="765" height="247">
<rect x="55" width="765" height="247" rx="20" fill="white"/>
<rect x="55" width="765" height="247" rx="20" fill="url(#paint1_linear_272_2502)"/>
</mask>
<g mask="url(#mask0_272_2502)">
<path d="M667.5 230.5C620.961 197.5 617.961 237.29 620.961 248.456H849.461L852.961 120.956C854.561 82.5562 839.294 86.6228 831.461 93.4562C773.061 78.2562 774.127 119.456 781.961 141.956C749.161 153.956 765.627 184.623 777.961 198.456C723.5 157.5 716 197 719.5 215.5C691.5 197.1 663 200.5 667.5 230.5Z" fill="white"/>
</g>
<circle cx="430" cy="73" r="1" fill="white"/>
<circle cx="424" cy="106" r="1" fill="white"/>
<circle cx="505" cy="151" r="1" fill="white"/>
<circle cx="471" cy="73" r="1" fill="white"/>
<circle cx="636" cy="90" r="1" fill="white"/>
<circle cx="603" cy="32" r="1" fill="white"/>
<circle cx="517" cy="34" r="1" fill="white"/>
<circle cx="494" cy="105" r="1" fill="white"/>
<circle cx="488" cy="138" r="1" fill="white"/>
<circle cx="569" cy="183" r="1" fill="white"/>
<circle cx="644" cy="183" r="1" fill="white"/>
<circle cx="675" cy="153" r="1" fill="white"/>
<circle cx="693" cy="192" r="1" fill="white"/>
<circle cx="604" cy="174" r="1" fill="white"/>
<circle cx="535" cy="105" r="1" fill="white"/>
<circle cx="700" cy="122" r="1" fill="white"/>
<circle cx="667" cy="64" r="1" fill="white"/>
<circle cx="581" cy="66" r="1" fill="white"/>
<circle cx="370" cy="145" r="1" fill="white"/>
<circle cx="364" cy="178" r="1" fill="white"/>
<circle cx="445" cy="223" r="1" fill="white"/>
<circle cx="520" cy="223" r="1" fill="white"/>
<circle cx="551" cy="193" r="1" fill="white"/>
<circle cx="569" cy="232" r="1" fill="white"/>
<circle cx="480" cy="214" r="1" fill="white"/>
<circle cx="411" cy="145" r="1" fill="white"/>
<circle cx="576" cy="162" r="1" fill="white"/>
<circle cx="543" cy="104" r="1" fill="white"/>
<circle cx="457" cy="106" r="1" fill="white"/>
<circle cx="371" cy="106" r="1" fill="white"/>
<circle cx="365" cy="139" r="1" fill="white"/>
<circle cx="446" cy="184" r="1" fill="white"/>
<circle cx="412" cy="106" r="1" fill="white"/>
<circle cx="577" cy="123" r="1" fill="white"/>
<circle cx="544" cy="65" r="1" fill="white"/>
<circle cx="458" cy="67" r="1" fill="white"/>
<circle cx="377" cy="58" r="1" fill="white"/>
<circle cx="371" cy="91" r="1" fill="white"/>
<circle cx="452" cy="136" r="1" fill="white"/>
<circle cx="418" cy="58" r="1" fill="white"/>
<circle cx="583" cy="75" r="1" fill="white"/>
<circle cx="550" cy="17" r="1" fill="white"/>
<circle cx="464" cy="19" r="1" fill="white"/>
<circle cx="541" cy="56" r="1" fill="white"/>
<circle cx="535" cy="89" r="1" fill="white"/>
<circle cx="616" cy="134" r="1" fill="white"/>
<circle cx="582" cy="56" r="1" fill="white"/>
<circle cx="747" cy="73" r="1" fill="white"/>
<circle cx="714" cy="15" r="1" fill="white"/>
<circle cx="628" cy="17" r="1" fill="white"/>
<circle cx="551" cy="145" r="1" fill="white"/>
<circle cx="545" cy="178" r="1" fill="white"/>
<circle cx="626" cy="223" r="1" fill="white"/>
<circle cx="592" cy="145" r="1" fill="white"/>
<circle cx="757" cy="162" r="1" fill="white"/>
<circle cx="724" cy="104" r="1" fill="white"/>
<circle cx="638" cy="106" r="1" fill="white"/>
<path d="M711.51 151.792C711.51 151.792 747.001 138.422 754.599 173.105L747.1 171.604C747.1 171.604 755.889 181.751 759 201C739.945 197.272 730.116 188.134 730.116 188.134L731.377 195.707C697.095 187.002 711.51 151.792 711.51 151.792Z" fill="url(#paint2_linear_272_2502)"/>
<path d="M711.51 151.792C711.51 151.792 733.647 143.451 738.386 165.086L733.717 164.148C733.717 164.148 739.198 170.479 741.141 182.483C729.253 180.139 723.125 174.465 723.125 174.465L723.912 179.189C702.523 173.756 711.51 151.792 711.51 151.792Z" fill="url(#paint3_linear_272_2502)"/>
<path d="M686.426 150.022L710.647 125.955L703.97 119.214L679.75 143.281L686.426 150.022Z" fill="url(#paint4_linear_272_2502)"/>
<path d="M692.262 87.2686C692.262 87.2686 714.755 85.598 723.988 94.9237C733.945 104.982 742.192 117.291 748.851 134.882C752.405 144.26 743.014 134.565 736.799 128.85C725.897 118.845 720.527 119.05 710.151 121.435C710.151 121.435 704.559 109.935 692.262 87.2686Z" fill="url(#paint5_linear_272_2502)"/>
<g style="mix-blend-mode:soft-light" opacity="0.33">
<path d="M692.262 87.2686C692.262 87.2686 714.755 85.598 723.988 94.9237C733.945 104.982 742.192 117.291 748.851 134.882C749.516 136.64 749.732 137.73 749.592 138.299C749.592 138.299 740.02 116.025 729.527 105.111C719.033 94.1969 712.047 90.129 692.262 87.2686Z" fill="white"/>
</g>
<path d="M647.843 131.412C647.843 131.412 645.987 153.937 655.208 163.263C665.165 173.327 677.386 181.698 694.895 188.515C704.233 192.155 694.626 182.653 688.977 176.387C679.084 165.379 679.329 159.975 681.804 149.623C681.786 149.623 670.359 143.92 647.843 131.412Z" fill="url(#paint6_linear_272_2502)"/>
<path d="M577.014 46.4198C573.267 22.077 578.036 16.3444 578.036 16.3444C578.036 16.3444 583.79 11.6552 608.051 15.5765C633.672 19.7499 649.967 35.5702 661.015 46.5722C675.349 60.804 698.98 93.5582 710.151 121.436L695.893 135.456L681.787 149.624C654.053 138.194 621.574 114.232 607.491 99.7596C596.606 88.5641 580.954 72.1343 577.014 46.4198Z" fill="url(#paint7_linear_272_2502)"/>
<path d="M706.532 124.993L695.893 135.456L681.786 149.623C654.053 138.193 621.574 114.232 607.491 99.7595C596.606 88.564 580.953 72.1342 577.008 46.4197C573.267 22.0768 578.035 16.3442 578.035 16.3442" fill="url(#paint8_linear_272_2502)"/>
<g style="mix-blend-mode:soft-light" opacity="0.09">
<path d="M708.131 123.417L683.858 147.543" stroke="#101010" stroke-width="1.89" stroke-miterlimit="10"/>
</g>
<path d="M710.151 121.436L695.893 135.456L681.786 149.624C675.903 147.167 670.152 144.4 664.558 141.335L702.003 104.126C705.019 109.749 707.739 115.526 710.151 121.436Z" fill="url(#paint9_linear_272_2502)"/>
<path style="mix-blend-mode:soft-light" d="M672.127 112.978L681.786 149.624L684.535 147.807L686.426 150.022L695.828 140.679L672.127 112.978Z" fill="url(#paint10_linear_272_2502)"/>
<g style="mix-blend-mode:soft-light">
<path d="M629.108 22.2354L583.475 67.5801" stroke="#101010" stroke-width="1.89" stroke-miterlimit="10"/>
</g>
<path d="M578.036 16.3444C578.036 16.3444 583.79 11.6552 608.051 15.5765C615.354 16.7633 622.446 19.0061 629.109 22.2352L583.475 67.5799C580.312 60.8782 578.136 53.7503 577.014 46.4198C573.267 22.077 578.036 16.3444 578.036 16.3444Z" fill="url(#paint11_linear_272_2502)"/>
<mask id="mask1_272_2502" style="mask-type:luminance" maskUnits="userSpaceOnUse" x="575" y="14" width="136" height="136">
<path d="M577.014 46.4198C573.267 22.077 578.036 16.3444 578.036 16.3444C578.036 16.3444 583.79 11.6552 608.051 15.5765C633.672 19.7499 649.967 35.5702 661.015 46.5722C675.349 60.804 698.98 93.5582 710.151 121.436L695.893 135.456L681.787 149.624C654.053 138.194 621.574 114.232 607.491 99.7596C596.606 88.5641 580.954 72.1343 577.014 46.4198Z" fill="white"/>
</mask>
<g mask="url(#mask1_272_2502)">
<path d="M635.903 20.9342L580.966 74.9839L583.286 77.3622L638.222 23.3125L635.903 20.9342Z" fill="url(#paint12_linear_272_2502)"/>
<path d="M640.049 26.1163L585.113 80.166L586.657 81.7488L641.593 27.6991L640.049 26.1163Z" fill="url(#paint13_linear_272_2502)"/>
</g>
<g style="mix-blend-mode:soft-light" opacity="0.09">
<path d="M702.027 104.126L664.581 141.335" stroke="#101010" stroke-width="1.89" stroke-miterlimit="10"/>
</g>
<path d="M672.32 111.635C672.32 111.635 674.409 108.382 694.614 128.804C714.82 149.225 732.054 168.779 730.449 170.373C728.844 171.968 709.468 154.547 689.263 134.12C669.058 113.693 672.32 111.635 672.32 111.635Z" fill="url(#paint14_linear_272_2502)"/>
<g style="mix-blend-mode:soft-light" opacity="0.33">
<path d="M672.32 111.635C672.32 111.635 674.409 108.382 694.614 128.804C714.82 149.225 732.054 168.779 730.449 170.373C730.449 170.373 724.8 162.22 709.637 146.001C694.474 129.782 677.082 112.057 672.32 111.635Z" fill="white"/>
</g>
<path style="mix-blend-mode:soft-light" d="M624.504 99.4901C621.002 95.944 618.627 91.4348 617.677 86.5327C616.727 81.6306 617.246 76.5557 619.168 71.9498C621.09 67.3439 624.329 63.4138 628.475 60.6564C632.62 57.899 637.487 56.4382 642.46 56.4587C647.432 56.4792 652.287 57.9801 656.41 60.7715C660.533 63.563 663.74 67.5196 665.624 72.1412C667.508 76.7628 667.986 81.8418 666.996 86.7359C666.006 91.63 663.594 96.1195 660.064 99.6367C655.328 104.352 648.922 106.986 642.253 106.959C635.585 106.931 629.2 104.245 624.504 99.4901Z" fill="url(#paint15_linear_272_2502)"/>
<path d="M624.795 98.6344C621.314 95.108 618.951 90.6238 618.007 85.749C617.063 80.8742 617.579 75.8276 619.49 71.2473C621.401 66.6671 624.622 62.7589 628.745 60.017C632.868 57.2751 637.708 55.8225 642.652 55.843C647.597 55.8635 652.425 57.3561 656.525 60.1321C660.625 62.9081 663.814 66.8429 665.687 71.4388C667.561 76.0347 668.036 81.0854 667.051 85.9522C666.067 90.8191 663.668 95.2835 660.157 98.781C655.448 103.47 649.077 106.089 642.446 106.062C635.815 106.034 629.466 103.363 624.795 98.6344Z" fill="#D4D4D4"/>
<path d="M624.708 98.7224C621.269 95.2394 618.936 90.8106 618.004 85.996C617.072 81.1815 617.582 76.1973 619.469 71.6738C621.357 67.1503 624.538 63.2906 628.61 60.5828C632.682 57.875 637.462 56.4407 642.346 56.4612C647.23 56.4816 651.998 57.9561 656.047 60.698C660.096 63.4398 663.245 67.3261 665.095 71.8653C666.945 76.4044 667.414 81.3927 666.442 86.1993C665.469 91.0059 663.099 95.4149 659.632 98.8689C657.329 101.163 654.599 102.978 651.598 104.212C648.597 105.446 645.383 106.074 642.14 106.061C638.897 106.047 635.688 105.392 632.697 104.133C629.706 102.874 626.991 101.035 624.708 98.7224Z" fill="url(#paint16_linear_272_2502)"/>
<path d="M656.282 94.7129C658.992 92.0129 660.844 88.5666 661.604 84.8095C662.363 81.0525 661.997 77.1536 660.55 73.6058C659.104 70.058 656.642 67.0207 653.477 64.8779C650.312 62.7351 646.585 61.5831 642.768 61.5675C638.951 61.552 635.215 62.6735 632.032 64.7904C628.85 66.9073 626.364 69.9245 624.888 73.4603C623.413 76.9962 623.015 80.892 623.744 84.6551C624.474 88.4182 626.298 91.8795 628.986 94.6015C632.595 98.2447 637.494 100.302 642.611 100.323C647.728 100.344 652.644 98.3265 656.282 94.7129Z" fill="#76C9F0"/>
<path d="M655.587 94.5312C658.186 91.9411 659.961 88.6353 660.689 85.0318C661.417 81.4283 661.065 77.689 659.677 74.2866C658.289 70.8841 655.928 67.9713 652.892 65.9165C649.856 63.8617 646.282 62.7571 642.621 62.7423C638.96 62.7276 635.376 63.8034 632.324 65.8337C629.272 67.864 626.887 70.7576 625.472 74.1487C624.057 77.5399 623.675 81.2763 624.374 84.8855C625.074 88.4947 626.822 91.8147 629.4 94.4257C632.862 97.9214 637.563 99.8956 642.472 99.9154C647.381 99.9352 652.098 97.9989 655.587 94.5312Z" fill="url(#paint17_linear_272_2502)"/>
<mask id="mask2_272_2502" style="mask-type:luminance" maskUnits="userSpaceOnUse" x="624" y="62" width="38" height="38">
<path d="M655.587 94.5312C658.186 91.9411 659.961 88.6353 660.689 85.0318C661.417 81.4283 661.065 77.689 659.677 74.2866C658.289 70.8841 655.928 67.9713 652.892 65.9165C649.856 63.8617 646.282 62.7571 642.621 62.7423C638.96 62.7276 635.376 63.8034 632.324 65.8337C629.272 67.864 626.887 70.7576 625.472 74.1487C624.057 77.5399 623.675 81.2763 624.374 84.8855C625.074 88.4947 626.822 91.8147 629.4 94.4257C632.862 97.9214 637.563 99.8956 642.472 99.9154C647.381 99.9352 652.098 97.9989 655.587 94.5312Z" fill="white"/>
</mask>
<g mask="url(#mask2_272_2502)">
<path d="M622.549 73.3104L663.593 91.5171L666.536 84.8255L625.492 66.6189L622.549 73.3104Z" fill="url(#paint18_linear_272_2502)"/>
<path d="M619.917 80.3353L660.961 98.542L662.441 95.1748L621.397 76.9681L619.917 80.3353Z" fill="url(#paint19_linear_272_2502)"/>
</g>
<path d="M658.319 66.982C658.277 66.778 658.297 66.5662 658.375 66.3733C658.453 66.1804 658.586 66.015 658.758 65.898C658.93 65.781 659.132 65.7176 659.339 65.7159C659.546 65.7141 659.75 65.774 659.923 65.888C660.097 66.002 660.233 66.165 660.314 66.3566C660.396 66.5481 660.419 66.7595 660.381 66.9643C660.343 67.169 660.245 67.3579 660.101 67.507C659.956 67.6562 659.771 67.7591 659.568 67.8026C659.432 67.8318 659.292 67.8336 659.156 67.8081C659.019 67.7825 658.889 67.7301 658.773 67.6538C658.657 67.5775 658.557 67.4789 658.479 67.3636C658.401 67.2483 658.347 67.1186 658.319 66.982Z" fill="#A3A3A3"/>
<path d="M661.984 72.7789C661.942 72.5749 661.962 72.363 662.04 72.1701C662.118 71.9772 662.252 71.8119 662.423 71.6949C662.595 71.5779 662.797 71.5145 663.004 71.5127C663.212 71.5109 663.415 71.5708 663.588 71.6848C663.762 71.7989 663.898 71.9619 663.979 72.1534C664.061 72.345 664.084 72.5564 664.046 72.7611C664.008 72.9659 663.91 73.1547 663.766 73.3039C663.621 73.4531 663.436 73.556 663.233 73.5995C662.959 73.6568 662.674 73.6025 662.439 73.4486C662.205 73.2948 662.041 73.0539 661.984 72.7789Z" fill="#A3A3A3"/>
<path d="M654.163 62.9785C654.126 62.7744 654.15 62.5639 654.232 62.3733C654.313 62.1827 654.449 62.0204 654.622 61.9069C654.795 61.7934 654.997 61.7335 655.204 61.7349C655.411 61.7363 655.612 61.7988 655.783 61.9146C655.955 62.0304 656.088 62.1944 656.168 62.3861C656.247 62.5778 656.268 62.7886 656.228 62.9922C656.188 63.1958 656.09 63.3832 655.945 63.5309C655.8 63.6786 655.615 63.7801 655.412 63.8226C655.275 63.8515 655.133 63.8525 654.996 63.8254C654.858 63.7984 654.727 63.744 654.611 63.6653C654.494 63.5866 654.395 63.4853 654.318 63.3674C654.241 63.2494 654.188 63.1172 654.163 62.9785Z" fill="#A3A3A3"/>
<path d="M662.929 85.3463C663.063 85.1852 663.242 85.0677 663.442 85.0085C663.643 84.9492 663.856 84.951 664.055 85.0136C664.255 85.0762 664.431 85.1968 664.562 85.36C664.694 85.5233 664.774 85.722 664.792 85.931C664.811 86.1399 664.768 86.3498 664.668 86.534C664.568 86.7182 664.416 86.8685 664.231 86.9659C664.046 87.0634 663.836 87.1035 663.628 87.0812C663.421 87.059 663.224 86.9754 663.064 86.841C662.957 86.7517 662.869 86.6422 662.805 86.5188C662.74 86.3954 662.701 86.2604 662.688 86.1216C662.676 85.9828 662.691 85.8429 662.732 85.7098C662.773 85.5768 662.841 85.4533 662.929 85.3463Z" fill="#A3A3A3"/>
<path d="M660.671 91.8351C660.804 91.6727 660.982 91.5537 661.182 91.493C661.382 91.4323 661.596 91.4327 661.796 91.4942C661.996 91.5556 662.173 91.6754 662.306 91.8382C662.438 92.0011 662.519 92.1997 662.539 92.4089C662.558 92.6181 662.516 92.8284 662.416 93.0133C662.317 93.1981 662.165 93.3491 661.98 93.4471C661.795 93.5452 661.585 93.5858 661.377 93.5638C661.169 93.5419 660.972 93.4584 660.811 93.3239C660.597 93.1446 660.462 92.8874 660.435 92.6085C660.409 92.3296 660.494 92.0515 660.671 91.8351Z" fill="#A3A3A3"/>
<path d="M663.355 78.5587C663.489 78.3976 663.668 78.2801 663.868 78.2209C664.069 78.1616 664.282 78.1634 664.481 78.226C664.681 78.2886 664.857 78.4092 664.988 78.5724C665.12 78.7357 665.2 78.9344 665.218 79.1434C665.237 79.3523 665.194 79.5622 665.094 79.7464C664.994 79.9306 664.842 80.0809 664.657 80.1783C664.472 80.2758 664.262 80.3159 664.054 80.2936C663.847 80.2714 663.65 80.1878 663.49 80.0534C663.276 79.8722 663.142 79.6136 663.117 79.3338C663.092 79.0539 663.177 78.7754 663.355 78.5587Z" fill="#A3A3A3"/>
<path d="M651.852 100.428C652.062 100.434 652.264 100.502 652.435 100.624C652.605 100.746 652.736 100.916 652.81 101.113C652.884 101.309 652.899 101.524 652.851 101.729C652.804 101.933 652.697 102.119 652.544 102.263C652.391 102.407 652.199 102.502 651.992 102.535C651.786 102.569 651.574 102.541 651.383 102.453C651.193 102.366 651.033 102.224 650.923 102.045C650.813 101.866 650.759 101.658 650.767 101.448C650.771 101.309 650.803 101.173 650.86 101.047C650.917 100.92 650.998 100.807 651.099 100.712C651.2 100.617 651.318 100.543 651.447 100.495C651.577 100.446 651.714 100.423 651.852 100.428Z" fill="#A3A3A3"/>
<path d="M645.374 102.626C645.583 102.632 645.786 102.7 645.956 102.821C646.127 102.943 646.257 103.113 646.332 103.309C646.406 103.506 646.421 103.72 646.374 103.924C646.327 104.129 646.22 104.315 646.068 104.459C645.916 104.603 645.724 104.698 645.518 104.733C645.312 104.767 645.1 104.74 644.909 104.653C644.719 104.567 644.558 104.425 644.448 104.247C644.337 104.069 644.282 103.861 644.288 103.652C644.299 103.372 644.419 103.107 644.622 102.915C644.825 102.723 645.095 102.619 645.374 102.626Z" fill="#A3A3A3"/>
<path d="M657.443 96.5887C657.652 96.5946 657.855 96.6627 658.026 96.7843C658.196 96.906 658.327 97.0757 658.401 97.2721C658.475 97.4684 658.49 97.6825 658.443 97.8871C658.396 98.0918 658.29 98.2779 658.138 98.4219C657.985 98.5658 657.794 98.6611 657.587 98.6956C657.381 98.7302 657.169 98.7025 656.979 98.616C656.788 98.5296 656.627 98.3882 656.517 98.2099C656.406 98.0316 656.351 97.8243 656.358 97.6144C656.369 97.3346 656.488 97.0701 656.691 96.8782C656.895 96.6863 657.165 96.5823 657.443 96.5887Z" fill="#A3A3A3"/>
<path d="M633.071 100.797C633.195 100.966 633.267 101.168 633.277 101.377C633.287 101.587 633.235 101.795 633.127 101.975C633.019 102.155 632.861 102.298 632.672 102.388C632.483 102.477 632.272 102.508 632.065 102.477C631.858 102.446 631.666 102.354 631.511 102.213C631.356 102.071 631.247 101.887 631.197 101.684C631.146 101.48 631.157 101.266 631.228 101.068C631.299 100.871 631.426 100.699 631.595 100.574C631.706 100.491 631.832 100.431 631.967 100.397C632.102 100.363 632.242 100.356 632.379 100.376C632.516 100.397 632.648 100.445 632.767 100.517C632.886 100.589 632.989 100.685 633.071 100.797Z" fill="#A3A3A3"/>
<path d="M627.661 97.1101C627.785 97.2789 627.857 97.4808 627.867 97.6905C627.877 97.9001 627.825 98.108 627.717 98.2879C627.609 98.4677 627.451 98.6114 627.262 98.7009C627.073 98.7903 626.861 98.8214 626.655 98.7902C626.448 98.759 626.255 98.667 626.101 98.5257C625.946 98.3845 625.837 98.2004 625.786 97.9967C625.736 97.793 625.747 97.5789 625.818 97.3814C625.889 97.1839 626.016 97.012 626.184 96.8874C626.296 96.804 626.422 96.7435 626.557 96.7095C626.692 96.6756 626.832 96.6687 626.969 96.6894C627.106 96.7101 627.238 96.758 627.357 96.8302C627.476 96.9024 627.579 96.9976 627.661 97.1101Z" fill="#A3A3A3"/>
<path d="M639.462 102.597C639.588 102.765 639.661 102.967 639.672 103.177C639.684 103.387 639.633 103.595 639.526 103.776C639.419 103.957 639.261 104.102 639.072 104.192C638.883 104.282 638.671 104.314 638.464 104.284C638.257 104.253 638.063 104.162 637.908 104.02C637.753 103.879 637.643 103.695 637.593 103.491C637.542 103.287 637.553 103.072 637.624 102.875C637.695 102.677 637.823 102.504 637.991 102.38C638.102 102.297 638.228 102.237 638.362 102.203C638.495 102.169 638.635 102.162 638.771 102.182C638.908 102.202 639.039 102.249 639.158 102.32C639.276 102.391 639.38 102.485 639.462 102.597Z" fill="#A3A3A3"/>
<path d="M622.047 86.5127C621.996 86.7147 621.887 86.897 621.733 87.0367C621.579 87.1764 621.387 87.2673 621.182 87.2979C620.977 87.3285 620.768 87.2975 620.58 87.2087C620.393 87.1199 620.235 86.9773 620.128 86.7989C620.021 86.6206 619.969 86.4144 619.979 86.2063C619.988 85.9983 620.059 85.7977 620.181 85.6298C620.304 85.4619 620.473 85.3343 620.668 85.263C620.863 85.1917 621.075 85.1799 621.276 85.2291C621.411 85.262 621.538 85.3214 621.65 85.4039C621.762 85.4864 621.856 85.5903 621.928 85.7096C621.999 85.829 622.047 85.9614 622.067 86.0993C622.088 86.2371 622.081 86.3776 622.047 86.5127Z" fill="#A3A3A3"/>
<path d="M621.369 80.235C621.319 80.4388 621.21 80.6232 621.056 80.7646C620.901 80.9061 620.709 80.9984 620.502 81.0298C620.295 81.0613 620.084 81.0304 619.895 80.9412C619.706 80.8519 619.547 80.7083 619.439 80.5285C619.331 80.3487 619.279 80.1408 619.289 79.9311C619.298 79.7214 619.37 79.5194 619.494 79.3505C619.618 79.1817 619.79 79.0536 619.986 78.9825C620.183 78.9115 620.396 78.9006 620.599 78.9513C620.871 79.0192 621.104 79.1925 621.249 79.4332C621.393 79.6738 621.437 79.9622 621.369 80.235Z" fill="#A3A3A3"/>
<path d="M624.194 92.8019C624.144 93.0057 624.035 93.19 623.881 93.3315C623.726 93.473 623.533 93.5653 623.327 93.5967C623.12 93.6282 622.909 93.5973 622.72 93.5081C622.53 93.4188 622.372 93.2752 622.264 93.0954C622.156 92.9156 622.104 92.7077 622.113 92.498C622.123 92.2883 622.195 92.0863 622.319 91.9174C622.443 91.7486 622.614 91.6205 622.811 91.5494C623.008 91.4784 623.221 91.4675 623.424 91.5182C623.695 91.5861 623.929 91.7594 624.073 92.0001C624.218 92.2407 624.261 92.5291 624.194 92.8019Z" fill="#A3A3A3"/>
<path d="M624.971 68.6231C624.843 68.6904 624.702 68.7307 624.558 68.7415C624.414 68.7523 624.27 68.7333 624.133 68.6857C623.997 68.6381 623.872 68.5629 623.765 68.4648C623.659 68.3667 623.574 68.2477 623.515 68.1152C623.456 67.9827 623.425 67.8395 623.424 67.6945C623.422 67.5495 623.45 67.4057 623.506 67.272C623.562 67.1383 623.645 67.0176 623.749 66.9173C623.854 66.817 623.977 66.7392 624.113 66.6888C624.364 66.595 624.642 66.601 624.89 66.7056C625.137 66.8102 625.336 67.0055 625.445 67.2518C625.554 67.4981 625.566 67.7769 625.478 68.0317C625.39 68.2864 625.208 68.4978 624.971 68.6231Z" fill="#A3A3A3"/>
<path d="M629.762 63.8225C629.571 63.9086 629.36 63.9359 629.154 63.9011C628.947 63.8663 628.756 63.7708 628.604 63.6268C628.452 63.4828 628.346 63.2967 628.299 63.0921C628.253 62.8875 628.267 62.6735 628.342 62.4774C628.416 62.2812 628.547 62.1116 628.717 61.99C628.887 61.8684 629.09 61.8003 629.299 61.7944C629.508 61.7884 629.714 61.8448 629.891 61.9565C630.068 62.0681 630.208 62.23 630.293 62.4216C630.407 62.6782 630.416 62.9698 630.316 63.2324C630.217 63.495 630.017 63.7073 629.762 63.8225Z" fill="#A3A3A3"/>
<path d="M622.169 74.5259C621.978 74.6109 621.766 74.6372 621.561 74.6014C621.355 74.5656 621.164 74.4694 621.013 74.3248C620.861 74.1802 620.756 73.9938 620.71 73.7891C620.664 73.5844 620.68 73.3707 620.755 73.1749C620.83 72.9791 620.961 72.8101 621.132 72.6892C621.303 72.5682 621.505 72.5008 621.714 72.4955C621.923 72.4901 622.128 72.5471 622.305 72.6591C622.482 72.7712 622.621 72.9333 622.706 73.125C622.762 73.2524 622.793 73.3897 622.797 73.529C622.8 73.6684 622.777 73.8071 622.727 73.9372C622.677 74.0673 622.602 74.1862 622.506 74.2873C622.411 74.3883 622.296 74.4694 622.169 74.5259Z" fill="#A3A3A3"/>
<path d="M642.117 59.9072C641.934 59.8096 641.784 59.6598 641.685 59.4765C641.587 59.2932 641.544 59.0847 641.563 58.8773C641.583 58.6699 641.662 58.4728 641.793 58.3109C641.924 58.149 642.099 58.0296 642.297 57.9677C642.495 57.9057 642.707 57.904 642.906 57.9628C643.105 58.0216 643.282 58.1382 643.415 58.298C643.548 58.4578 643.631 58.6536 643.654 58.8607C643.676 59.0678 643.637 59.2769 643.541 59.4617C643.477 59.5853 643.39 59.6949 643.283 59.7842C643.177 59.8736 643.054 59.9409 642.922 59.9823C642.789 60.0237 642.65 60.0384 642.512 60.0255C642.374 60.0126 642.24 59.9724 642.117 59.9072Z" fill="#A3A3A3"/>
<path d="M648.66 61.0561C648.477 60.9586 648.326 60.8087 648.228 60.6254C648.129 60.4421 648.087 60.2337 648.106 60.0262C648.125 59.8188 648.205 59.6217 648.336 59.4599C648.466 59.298 648.641 59.1785 648.839 59.1166C649.037 59.0546 649.249 59.0529 649.448 59.1117C649.647 59.1705 649.825 59.2872 649.958 59.4469C650.091 59.6067 650.174 59.8025 650.196 60.0096C650.219 60.2167 650.18 60.4258 650.084 60.6107C649.954 60.8591 649.73 61.0454 649.464 61.1289C649.197 61.2124 648.908 61.1863 648.66 61.0561Z" fill="#A3A3A3"/>
<path d="M635.295 60.8921C635.111 60.7952 634.959 60.6458 634.86 60.4626C634.76 60.2794 634.717 60.0707 634.736 59.8629C634.755 59.6551 634.834 59.4575 634.964 59.2951C635.095 59.1327 635.27 59.0127 635.469 58.9504C635.667 58.8882 635.879 58.8863 636.078 58.9452C636.278 59.004 636.455 59.1209 636.588 59.281C636.722 59.4412 636.805 59.6374 636.827 59.8448C636.849 60.0523 636.809 60.2617 636.713 60.4466C636.649 60.5694 636.562 60.6783 636.456 60.7672C636.35 60.856 636.227 60.923 636.096 60.9644C635.964 61.0058 635.826 61.0207 635.688 61.0082C635.551 60.9958 635.417 60.9564 635.295 60.8921Z" fill="#A3A3A3"/>
<path d="M658.541 66.7535C658.499 66.5495 658.519 66.3376 658.597 66.1447C658.675 65.9518 658.808 65.7865 658.98 65.6695C659.151 65.5525 659.354 65.4891 659.561 65.4873C659.768 65.4856 659.971 65.5454 660.145 65.6595C660.319 65.7735 660.455 65.9365 660.536 66.128C660.617 66.3196 660.641 66.531 660.603 66.7358C660.565 66.9405 660.467 67.1293 660.322 67.2785C660.178 67.4277 659.992 67.5306 659.79 67.5741C659.654 67.6033 659.514 67.6051 659.377 67.5796C659.241 67.554 659.111 67.5016 658.995 67.4253C658.879 67.349 658.779 67.2503 658.701 67.135C658.623 67.0197 658.568 66.8901 658.541 66.7535Z" fill="#D4D4D4"/>
<path d="M662.223 72.5562C662.182 72.3522 662.201 72.1404 662.279 71.9475C662.358 71.7546 662.491 71.5892 662.662 71.4722C662.834 71.3552 663.036 71.2919 663.244 71.2901C663.451 71.2883 663.654 71.3482 663.828 71.4622C664.001 71.5762 664.137 71.7392 664.219 71.9308C664.3 72.1223 664.323 72.3338 664.285 72.5385C664.247 72.7432 664.15 72.9321 664.005 73.0813C663.86 73.2305 663.675 73.3333 663.472 73.3769C663.198 73.4341 662.913 73.3798 662.679 73.226C662.445 73.0721 662.281 72.8313 662.223 72.5562Z" fill="#D4D4D4"/>
<path d="M654.385 62.7557C654.343 62.5517 654.361 62.3396 654.438 62.1461C654.516 61.9526 654.648 61.7865 654.819 61.6687C654.991 61.5508 655.193 61.4866 655.4 61.484C655.608 61.4814 655.811 61.5406 655.986 61.6541C656.16 61.7677 656.296 61.9305 656.378 62.122C656.46 62.3135 656.484 62.525 656.446 62.7301C656.409 62.9351 656.312 63.1243 656.167 63.2739C656.023 63.4234 655.837 63.5266 655.634 63.5705C655.499 63.5997 655.359 63.6018 655.223 63.5766C655.087 63.5514 654.957 63.4995 654.841 63.4238C654.725 63.3481 654.625 63.2501 654.547 63.1354C654.469 63.0208 654.414 62.8917 654.385 62.7557Z" fill="#D4D4D4"/>
<path d="M663.151 85.1236C663.285 84.9626 663.464 84.845 663.664 84.7858C663.864 84.7266 664.078 84.7284 664.277 84.791C664.477 84.8535 664.653 84.9741 664.784 85.1374C664.915 85.3007 664.995 85.4993 665.014 85.7083C665.033 85.9173 664.99 86.1271 664.89 86.3113C664.79 86.4956 664.638 86.6459 664.453 86.7433C664.267 86.8407 664.058 86.8808 663.85 86.8586C663.642 86.8363 663.446 86.7527 663.285 86.6183C663.179 86.5291 663.091 86.4196 663.026 86.2961C662.962 86.1727 662.922 86.0377 662.91 85.8989C662.898 85.7601 662.912 85.6202 662.954 85.4872C662.995 85.3542 663.062 85.2306 663.151 85.1236Z" fill="#D4D4D4"/>
<path d="M660.893 91.612C661.025 91.4522 661.202 91.3351 661.401 91.2755C661.6 91.2158 661.811 91.2161 662.01 91.2765C662.208 91.3368 662.384 91.4544 662.517 91.6147C662.649 91.775 662.732 91.9708 662.754 92.1779C662.776 92.3849 662.737 92.5939 662.642 92.7789C662.547 92.9639 662.4 93.1166 662.219 93.2182C662.038 93.3197 661.831 93.3655 661.624 93.3498C661.417 93.3342 661.22 93.2578 661.056 93.1301C660.944 93.0428 660.85 92.9336 660.781 92.8092C660.712 92.6848 660.669 92.5476 660.653 92.4059C660.638 92.2642 660.651 92.1209 660.693 91.9845C660.734 91.8481 660.802 91.7214 660.893 91.612Z" fill="#D4D4D4"/>
<path d="M663.577 78.3356C663.711 78.1745 663.89 78.0569 664.09 77.9977C664.29 77.9385 664.504 77.9403 664.703 78.0029C664.903 78.0655 665.079 78.186 665.21 78.3493C665.341 78.5126 665.421 78.7113 665.44 78.9202C665.459 79.1292 665.416 79.339 665.316 79.5233C665.216 79.7075 665.064 79.8578 664.879 79.9552C664.694 80.0526 664.484 80.0927 664.276 80.0705C664.068 80.0482 663.872 79.9646 663.712 79.8302C663.498 79.6491 663.364 79.3905 663.338 79.1106C663.313 78.8308 663.399 78.5522 663.577 78.3356Z" fill="#D4D4D4"/>
<path d="M652.074 100.205C652.283 100.211 652.486 100.279 652.657 100.401C652.827 100.523 652.958 100.693 653.032 100.89C653.106 101.087 653.12 101.301 653.073 101.506C653.026 101.711 652.919 101.897 652.766 102.04C652.613 102.184 652.421 102.279 652.214 102.313C652.008 102.347 651.796 102.318 651.605 102.231C651.415 102.143 651.254 102.001 651.145 101.822C651.035 101.643 650.98 101.435 650.989 101.225C650.993 101.087 651.025 100.95 651.082 100.824C651.139 100.698 651.22 100.584 651.321 100.489C651.422 100.394 651.54 100.321 651.669 100.272C651.799 100.223 651.936 100.2 652.074 100.205Z" fill="#D4D4D4"/>
<path d="M645.596 102.403C645.805 102.409 646.007 102.477 646.178 102.599C646.348 102.72 646.479 102.89 646.553 103.087C646.628 103.283 646.642 103.497 646.596 103.702C646.549 103.906 646.442 104.092 646.29 104.236C646.138 104.38 645.946 104.476 645.74 104.51C645.534 104.545 645.322 104.517 645.131 104.43C644.941 104.344 644.78 104.203 644.669 104.024C644.559 103.846 644.503 103.639 644.51 103.429C644.521 103.149 644.641 102.885 644.844 102.693C645.047 102.501 645.317 102.397 645.596 102.403Z" fill="#D4D4D4"/>
<path d="M657.665 96.366C657.874 96.3719 658.077 96.44 658.247 96.5617C658.418 96.6833 658.548 96.8531 658.623 97.0494C658.697 97.2457 658.712 97.4598 658.665 97.6645C658.618 97.8692 658.512 98.0553 658.359 98.1992C658.207 98.3431 658.016 98.4384 657.809 98.473C657.603 98.5075 657.391 98.4798 657.201 98.3934C657.01 98.3069 656.849 98.1656 656.739 97.9872C656.628 97.8089 656.573 97.6017 656.58 97.3918C656.59 97.1119 656.71 96.8475 656.913 96.6556C657.116 96.4636 657.386 96.3596 657.665 96.366Z" fill="#D4D4D4"/>
<path d="M633.293 100.574C633.417 100.743 633.489 100.945 633.499 101.155C633.509 101.364 633.457 101.572 633.349 101.752C633.241 101.932 633.083 102.076 632.894 102.165C632.705 102.255 632.493 102.286 632.287 102.255C632.08 102.223 631.887 102.131 631.733 101.99C631.578 101.849 631.469 101.665 631.418 101.461C631.368 101.257 631.379 101.043 631.45 100.846C631.521 100.648 631.648 100.476 631.816 100.352C631.928 100.268 632.054 100.208 632.189 100.174C632.324 100.14 632.464 100.133 632.601 100.154C632.738 100.175 632.87 100.222 632.989 100.295C633.108 100.367 633.211 100.462 633.293 100.574Z" fill="#D4D4D4"/>
<path d="M627.883 96.8875C628.007 97.0562 628.079 97.2582 628.089 97.4678C628.099 97.6775 628.046 97.8854 627.939 98.0652C627.831 98.2451 627.673 98.3888 627.484 98.4782C627.294 98.5676 627.083 98.5987 626.877 98.5675C626.67 98.5364 626.477 98.4443 626.323 98.3031C626.168 98.1618 626.059 97.9777 626.008 97.774C625.958 97.5703 625.969 97.3562 626.04 97.1587C626.11 96.9613 626.238 96.7894 626.406 96.6647C626.517 96.5813 626.644 96.5209 626.779 96.4869C626.913 96.4529 627.053 96.4461 627.191 96.4668C627.328 96.4875 627.46 96.5353 627.579 96.6075C627.697 96.6798 627.801 96.7749 627.883 96.8875Z" fill="#D4D4D4"/>
<path d="M639.678 102.374C639.804 102.542 639.877 102.744 639.888 102.954C639.9 103.164 639.849 103.373 639.742 103.553C639.635 103.734 639.477 103.879 639.288 103.969C639.099 104.06 638.887 104.092 638.68 104.061C638.473 104.031 638.279 103.939 638.124 103.798C637.969 103.657 637.859 103.472 637.808 103.268C637.758 103.064 637.769 102.85 637.84 102.652C637.911 102.454 638.038 102.282 638.207 102.157C638.318 102.074 638.444 102.014 638.578 101.98C638.711 101.946 638.851 101.939 638.987 101.959C639.124 101.98 639.255 102.027 639.374 102.098C639.492 102.169 639.595 102.263 639.678 102.374Z" fill="#D4D4D4"/>
<path d="M622.268 86.2901C622.218 86.492 622.108 86.6743 621.955 86.814C621.801 86.9538 621.609 87.0447 621.404 87.0753C621.199 87.1059 620.99 87.0748 620.802 86.986C620.614 86.8972 620.457 86.7547 620.35 86.5763C620.243 86.3979 620.191 86.1917 620.2 85.9837C620.21 85.7756 620.28 85.575 620.403 85.4071C620.526 85.2393 620.695 85.1116 620.89 85.0403C621.085 84.969 621.296 84.9572 621.498 85.0064C621.633 85.0393 621.76 85.0987 621.872 85.1812C621.983 85.2637 622.078 85.3676 622.15 85.487C622.221 85.6063 622.269 85.7388 622.289 85.8766C622.309 86.0144 622.302 86.155 622.268 86.2901Z" fill="#D4D4D4"/>
<path d="M621.562 80.0006C621.512 80.2045 621.403 80.3888 621.248 80.5303C621.094 80.6717 620.901 80.764 620.695 80.7955C620.488 80.8269 620.277 80.796 620.087 80.7068C619.898 80.6176 619.74 80.4739 619.632 80.2942C619.524 80.1144 619.472 79.9065 619.481 79.6968C619.491 79.4871 619.563 79.285 619.687 79.1161C619.811 78.9473 619.982 78.8192 620.179 78.7482C620.376 78.6771 620.589 78.6663 620.792 78.717C621.063 78.7849 621.297 78.9581 621.441 79.1988C621.586 79.4395 621.629 79.7278 621.562 80.0006Z" fill="#D4D4D4"/>
<path d="M624.416 92.5793C624.366 92.7831 624.257 92.9674 624.102 93.1089C623.948 93.2504 623.755 93.3427 623.549 93.3741C623.342 93.4055 623.131 93.3746 622.941 93.2854C622.752 93.1962 622.594 93.0526 622.486 92.8728C622.378 92.693 622.325 92.4851 622.335 92.2754C622.345 92.0657 622.417 91.8636 622.541 91.6948C622.665 91.5259 622.836 91.3978 623.033 91.3268C623.23 91.2557 623.443 91.2449 623.646 91.2956C623.917 91.3635 624.151 91.5368 624.295 91.7774C624.44 92.0181 624.483 92.3065 624.416 92.5793Z" fill="#D4D4D4"/>
<path d="M625.192 68.4004C625.064 68.4678 624.924 68.5081 624.78 68.5188C624.636 68.5296 624.491 68.5106 624.355 68.463C624.219 68.4154 624.093 68.3402 623.987 68.2421C623.881 68.144 623.795 68.025 623.737 67.8925C623.678 67.7601 623.647 67.6169 623.645 67.4719C623.644 67.3268 623.672 67.183 623.728 67.0494C623.784 66.9157 623.867 66.7949 623.971 66.6946C624.075 66.5943 624.199 66.5165 624.334 66.4661C624.586 66.3723 624.864 66.3784 625.111 66.4829C625.359 66.5875 625.557 66.7828 625.667 67.0291C625.776 67.2754 625.788 67.5543 625.699 67.809C625.611 68.0637 625.43 68.2752 625.192 68.4004Z" fill="#D4D4D4"/>
<path d="M629.984 63.6174C629.793 63.7035 629.581 63.7309 629.375 63.696C629.169 63.6612 628.978 63.5657 628.826 63.4217C628.674 63.2777 628.568 63.0916 628.521 62.887C628.474 62.6824 628.489 62.4685 628.563 62.2723C628.638 62.0761 628.768 61.9065 628.939 61.7849C629.109 61.6633 629.312 61.5953 629.521 61.5893C629.73 61.5833 629.936 61.6397 630.113 61.7514C630.29 61.8631 630.43 62.0249 630.515 62.2165C630.629 62.4731 630.637 62.7647 630.538 63.0273C630.438 63.29 630.239 63.5022 629.984 63.6174Z" fill="#D4D4D4"/>
<path d="M622.391 74.3032C622.2 74.3883 621.988 74.4146 621.782 74.3788C621.576 74.343 621.386 74.2467 621.234 74.1021C621.083 73.9575 620.978 73.7711 620.932 73.5664C620.886 73.3618 620.902 73.1481 620.977 72.9523C621.052 72.7565 621.183 72.5874 621.354 72.4665C621.524 72.3456 621.727 72.2782 621.936 72.2728C622.144 72.2675 622.35 72.3244 622.527 72.4365C622.703 72.5485 622.843 72.7106 622.928 72.9023C622.984 73.0297 623.015 73.167 623.019 73.3064C623.022 73.4457 622.998 73.5844 622.948 73.7145C622.899 73.8446 622.824 73.9636 622.728 74.0646C622.632 74.1656 622.518 74.2467 622.391 74.3032Z" fill="#D4D4D4"/>
<path d="M642.339 59.6846C642.156 59.587 642.005 59.4371 641.907 59.2538C641.808 59.0706 641.766 58.8621 641.785 58.6546C641.804 58.4472 641.884 58.2502 642.015 58.0883C642.145 57.9264 642.321 57.8069 642.519 57.745C642.717 57.683 642.929 57.6814 643.128 57.7402C643.327 57.7989 643.504 57.9156 643.637 58.0754C643.77 58.2352 643.853 58.4309 643.876 58.638C643.898 58.8451 643.859 59.0543 643.763 59.2391C643.699 59.3626 643.612 59.4722 643.505 59.5616C643.399 59.6509 643.276 59.7183 643.144 59.7597C643.011 59.8011 642.872 59.8158 642.734 59.8029C642.596 59.79 642.462 59.7498 642.339 59.6846Z" fill="#D4D4D4"/>
<path d="M648.882 60.8335C648.698 60.7359 648.548 60.5861 648.449 60.4028C648.351 60.2195 648.308 60.011 648.328 59.8036C648.347 59.5962 648.427 59.3991 648.557 59.2372C648.688 59.0753 648.863 58.9559 649.061 58.8939C649.259 58.832 649.471 58.8303 649.67 58.8891C649.869 58.9479 650.046 59.0645 650.179 59.2243C650.312 59.3841 650.395 59.5799 650.418 59.7869C650.44 59.994 650.401 60.2032 650.306 60.388C650.175 60.6364 649.952 60.8228 649.685 60.9063C649.418 60.9898 649.129 60.9636 648.882 60.8335Z" fill="#D4D4D4"/>
<path d="M635.517 60.6518C635.333 60.555 635.181 60.4056 635.082 60.2224C634.982 60.0392 634.939 59.8305 634.958 59.6227C634.976 59.4149 635.056 59.2173 635.186 59.0548C635.317 58.8924 635.492 58.7725 635.69 58.7102C635.889 58.6479 636.101 58.6461 636.3 58.7049C636.5 58.7638 636.677 58.8807 636.81 59.0408C636.943 59.2009 637.026 59.3971 637.049 59.6046C637.071 59.8121 637.031 60.0215 636.935 60.2063C636.871 60.3291 636.783 60.4381 636.677 60.5269C636.572 60.6158 636.449 60.6828 636.318 60.7242C636.186 60.7655 636.047 60.7804 635.91 60.768C635.772 60.7556 635.639 60.7161 635.517 60.6518Z" fill="#D4D4D4"/>
<path d="M658.804 65.9187L660.195 67.3154L660.343 67.1662L658.953 65.7695L658.804 65.9187Z" fill="#B9B9B9"/>
<path d="M662.465 71.7194L663.856 73.1162L664.004 72.967L662.613 71.5702L662.465 71.7194Z" fill="#B9B9B9"/>
<path d="M654.646 61.9118L656.036 63.3086L656.185 63.1594L654.794 61.7626L654.646 61.9118Z" fill="#B9B9B9"/>
<path d="M663.192 85.1779L664.583 86.5747L664.731 86.4255L663.34 85.0287L663.192 85.1779Z" fill="#B9B9B9"/>
<path d="M660.933 91.6657L662.324 93.0625L662.472 92.9133L661.082 91.5165L660.933 91.6657Z" fill="#B9B9B9"/>
<path d="M663.621 78.3913L665.012 79.7881L665.16 79.6389L663.77 78.2421L663.621 78.3913Z" fill="#B9B9B9"/>
<path d="M651.272 100.636L652.662 102.033L652.811 101.884L651.42 100.487L651.272 100.636Z" fill="#B9B9B9"/>
<path d="M644.792 102.841L646.183 104.237L646.331 104.088L644.94 102.691L644.792 102.841Z" fill="#B9B9B9"/>
<path d="M656.864 96.8029L658.254 98.1997L658.403 98.0505L657.012 96.6537L656.864 96.8029Z" fill="#B9B9B9"/>
<path d="M631.676 100.581L633.066 101.978L633.215 101.828L631.824 100.432L631.676 100.581Z" fill="#B9B9B9"/>
<path d="M626.27 96.8952L627.66 98.292L627.809 98.1428L626.418 96.746L626.27 96.8952Z" fill="#B9B9B9"/>
<path d="M638.064 102.38L639.454 103.777L639.603 103.628L638.212 102.231L638.064 102.38Z" fill="#B9B9B9"/>
<path d="M620.48 85.4123L621.87 86.8091L622.019 86.6599L620.628 85.2631L620.48 85.4123Z" fill="#B9B9B9"/>
<path d="M619.763 79.1232L621.153 80.52L621.302 80.3708L619.911 78.974L619.763 79.1232Z" fill="#B9B9B9"/>
<path d="M622.625 91.7024L624.015 93.0991L624.164 92.9499L622.773 91.5531L622.625 91.7024Z" fill="#B9B9B9"/>
<path d="M623.995 66.8078L625.385 68.2046L625.534 68.0554L624.143 66.6586L623.995 66.8078Z" fill="#B9B9B9"/>
<path d="M628.781 62.0261L630.172 63.4229L630.321 63.2736L628.93 61.8769L628.781 62.0261Z" fill="#B9B9B9"/>
<path d="M621.196 72.7126L622.587 74.1094L622.735 73.9602L621.345 72.5634L621.196 72.7126Z" fill="#B9B9B9"/>
<path d="M642.061 58.1237L643.452 59.5205L643.601 59.3713L642.21 57.9745L642.061 58.1237Z" fill="#B9B9B9"/>
<path d="M648.597 59.2712L649.988 60.668L650.137 60.5188L648.746 59.122L648.597 59.2712Z" fill="#B9B9B9"/>
<path d="M635.229 59.0905L636.619 60.4873L636.768 60.3381L635.377 58.9413L635.229 59.0905Z" fill="#B9B9B9"/>
<g style="mix-blend-mode:soft-light" opacity="0.33">
<path d="M578.035 16.3444C578.035 16.3444 583.79 11.6552 608.051 15.5765C633.672 19.7499 649.967 35.5702 661.015 46.5722C675.349 60.804 698.98 93.5582 710.151 121.436C710.151 121.436 658.587 12.7923 578.035 16.3444Z" fill="white"/>
</g>
<g style="mix-blend-mode:soft-light" opacity="0.33">
<path d="M707.197 124.319L709.748 126.834L710.647 125.955L708.131 123.417L707.197 124.319Z" fill="white"/>
</g>
<g opacity="0.48">
<mask id="mask3_272_2502" style="mask-type:luminance" maskUnits="userSpaceOnUse" x="575" y="14" width="136" height="136">
<path d="M577.014 46.4198C573.267 22.077 578.036 16.3444 578.036 16.3444C578.036 16.3444 583.79 11.6552 608.051 15.5765C633.672 19.7499 649.967 35.5702 661.015 46.5722C672.449 57.9319 689.806 81.0731 702.027 104.126C705.037 109.748 707.749 115.526 710.151 121.436L695.893 135.456L681.787 149.624C654.053 138.194 621.574 114.232 607.491 99.7596C596.606 88.5641 580.954 72.1343 577.014 46.4198Z" fill="white"/>
</mask>
<g mask="url(#mask3_272_2502)">
<path style="mix-blend-mode:soft-light" d="M681.786 149.623C681.786 149.623 578.911 97.2332 578.035 16.3442L549 29.1458L645.082 177.747C645.082 177.747 664.447 170.444 681.786 149.623Z" fill="url(#paint20_linear_272_2502)"/>
</g>
</g>
<path style="mix-blend-mode:soft-light" d="M681.786 149.623L679.732 157.021C679.732 157.021 659.953 147.226 647.825 131.388C647.825 131.388 669.74 144.6 681.786 149.623Z" fill="url(#paint21_linear_272_2502)"/>
<g style="mix-blend-mode:soft-light" opacity="0.33">
<path d="M690.745 179.406C684.664 173.427 682.382 167.642 681.991 166.54C682.199 167.04 682.447 167.522 682.732 167.982C684.476 171.01 686.566 173.823 688.959 176.364C692.613 180.426 697.906 185.819 698.682 188.146C698.822 188.644 698.752 188.96 698.531 189.16C698.531 189.16 697.492 186.047 690.745 179.406Z" fill="white"/>
</g>
<defs>
<filter id="filter0_n_272_2502" x="0" y="0" width="820" height="247" filterUnits="userSpaceOnUse" color-interpolation-filters="sRGB">
<feFlood flood-opacity="0" result="BackgroundImageFix"/>
<feBlend mode="normal" in="SourceGraphic" in2="BackgroundImageFix" result="shape"/>
<feTurbulence type="fractalNoise" baseFrequency="2 2" stitchTiles="stitch" numOctaves="3" result="noise" seed="6037" />
<feColorMatrix in="noise" type="luminanceToAlpha" result="alphaNoise" />
<feComponentTransfer in="alphaNoise" result="coloredNoise1">
<feFuncA type="discrete" tableValues="1 1 1 1 1 1 1 1 1 1 1 1 1 1 1 1 1 1 1 1 1 1 1 1 1 1 1 1 1 1 1 1 1 1 1 1 1 1 1 1 1 1 1 1 1 1 1 1 1 1 1 0 0 0 0 0 0 0 0 0 0 0 0 0 0 0 0 0 0 0 0 0 0 0 0 0 0 0 0 0 0 0 0 0 0 0 0 0 0 0 0 0 0 0 0 0 0 0 0 0 "/>
</feComponentTransfer>
<feComposite operator="in" in2="shape" in="coloredNoise1" result="noise1Clipped" />
<feFlood flood-color="rgba(0, 0, 0, 0.25)" result="color1Flood" />
<feComposite operator="in" in2="noise1Clipped" in="color1Flood" result="color1" />
<feMerge result="effect1_noise_272_2502">
<feMergeNode in="shape" />
<feMergeNode in="color1" />
</feMerge>
</filter>
<linearGradient id="paint0_linear_272_2502" x1="-8.03923" y1="-11.5" x2="746.785" y2="309.998" gradientUnits="userSpaceOnUse">
<stop stop-color="#213536"/>
<stop offset="1" stop-color="#60E5A3"/>
</linearGradient>
<linearGradient id="paint1_linear_272_2502" x1="81.9011" y1="48.1358" x2="314.304" y2="463.707" gradientUnits="userSpaceOnUse">
<stop stop-color="#0036A9"/>
<stop offset="1" stop-color="#00A944"/>
</linearGradient>
<linearGradient id="paint2_linear_272_2502" x1="772.429" y1="211.187" x2="711.937" y2="154.45" gradientUnits="userSpaceOnUse">
<stop stop-color="#FF8533"/>
<stop offset="1" stop-color="#FFD052"/>
</linearGradient>
<linearGradient id="paint3_linear_272_2502" x1="744.894" y1="185.367" x2="707.6" y2="148.829" gradientUnits="userSpaceOnUse">
<stop stop-color="#FFD052"/>
<stop offset="1" stop-color="#FFE9AE"/>
</linearGradient>
<linearGradient id="paint4_linear_272_2502" x1="675.542" y1="166.891" x2="710.527" y2="109.947" gradientUnits="userSpaceOnUse">
<stop stop-color="#767B7F"/>
<stop offset="1" stop-color="#A3A3A3"/>
</linearGradient>
<linearGradient id="paint5_linear_272_2502" x1="727.403" y1="105.422" x2="671.417" y2="169.131" gradientUnits="userSpaceOnUse">
<stop stop-color="#F02E54"/>
<stop offset="1" stop-color="#8F1931"/>
</linearGradient>
<linearGradient id="paint6_linear_272_2502" x1="668.433" y1="184.792" x2="686.488" y2="94.209" gradientUnits="userSpaceOnUse">
<stop stop-color="#F02E54"/>
<stop offset="1" stop-color="#8F1931"/>
</linearGradient>
<linearGradient id="paint7_linear_272_2502" x1="652.092" y1="49.7375" x2="610.573" y2="147.379" gradientUnits="userSpaceOnUse">
<stop stop-color="#EEF4FA"/>
<stop offset="1" stop-color="#CDDEED"/>
</linearGradient>
<linearGradient id="paint8_linear_272_2502" x1="646.465" y1="60.5752" x2="611.243" y2="143.412" gradientUnits="userSpaceOnUse">
<stop stop-color="#EEF4FA"/>
<stop offset="1" stop-color="#CDDEED"/>
</linearGradient>
<linearGradient id="paint9_linear_272_2502" x1="712.222" y1="100.586" x2="674.828" y2="146.523" gradientUnits="userSpaceOnUse">
<stop stop-color="#C7C7C7"/>
<stop offset="1" stop-color="#A3A3A3"/>
</linearGradient>
<linearGradient id="paint10_linear_272_2502" x1="685.16" y1="123.165" x2="677.49" y2="146.72" gradientUnits="userSpaceOnUse">
<stop stop-color="#1D262D"/>
<stop offset="1" stop-color="#1D262D" stop-opacity="0"/>
</linearGradient>
<linearGradient id="paint11_linear_272_2502" x1="602.863" y1="24.1578" x2="525.681" y2="85.7886" gradientUnits="userSpaceOnUse">
<stop stop-color="#F02E54"/>
<stop offset="1" stop-color="#8F1931"/>
</linearGradient>
<linearGradient id="paint12_linear_272_2502" x1="505.01" y1="157.109" x2="648.099" y2="10.3269" gradientUnits="userSpaceOnUse">
<stop stop-color="#8F1931"/>
<stop offset="1" stop-color="#F02E54"/>
</linearGradient>
<linearGradient id="paint13_linear_272_2502" x1="509.317" y1="161.297" x2="652.406" y2="14.5148" gradientUnits="userSpaceOnUse">
<stop stop-color="#8F1931"/>
<stop offset="1" stop-color="#F02E54"/>
</linearGradient>
<linearGradient id="paint14_linear_272_2502" x1="713.22" y1="123.997" x2="669.353" y2="186.473" gradientUnits="userSpaceOnUse">
<stop stop-color="#F02E54"/>
<stop offset="1" stop-color="#8F1931"/>
</linearGradient>
<linearGradient id="paint15_linear_272_2502" x1="637.536" y1="91.8526" x2="621.679" y2="124.917" gradientUnits="userSpaceOnUse">
<stop stop-color="#1D262D"/>
<stop offset="0.68" stop-color="#1D262D" stop-opacity="0.32"/>
<stop offset="1" stop-color="#1D262D" stop-opacity="0"/>
</linearGradient>
<linearGradient id="paint16_linear_272_2502" x1="653.697" y1="54.3507" x2="622.538" y2="126.93" gradientUnits="userSpaceOnUse">
<stop stop-color="#C7C7C7"/>
<stop offset="1" stop-color="#A3A3A3"/>
</linearGradient>
<linearGradient id="paint17_linear_272_2502" x1="657.379" y1="58.565" x2="620.599" y2="114.532" gradientUnits="userSpaceOnUse">
<stop stop-color="#ADE5FF"/>
<stop offset="1" stop-color="#76C9F0"/>
</linearGradient>
<linearGradient id="paint18_linear_272_2502" x1="625.561" y1="65.2808" x2="664.465" y2="91.0299" gradientUnits="userSpaceOnUse">
<stop stop-color="#F9FBFC"/>
<stop offset="1" stop-color="#F9FBFC" stop-opacity="0"/>
</linearGradient>
<linearGradient id="paint19_linear_272_2502" x1="620.577" y1="72.8168" x2="659.48" y2="98.5658" gradientUnits="userSpaceOnUse">
<stop stop-color="#F9FBFC"/>
<stop offset="1" stop-color="#F9FBFC" stop-opacity="0"/>
</linearGradient>
<linearGradient id="paint20_linear_272_2502" x1="549.158" y1="134.067" x2="633.649" y2="81.5357" gradientUnits="userSpaceOnUse">
<stop stop-color="#1D262D"/>
<stop offset="1" stop-color="#1D262D" stop-opacity="0"/>
</linearGradient>
<linearGradient id="paint21_linear_272_2502" x1="669.752" y1="130.837" x2="660.964" y2="150.433" gradientUnits="userSpaceOnUse">
<stop stop-color="#1D262D"/>
<stop offset="1" stop-color="#1D262D" stop-opacity="0"/>
</linearGradient>
</defs>
</svg>
