<svg width="358" height="365" viewBox="0 0 358 365" fill="none" xmlns="http://www.w3.org/2000/svg">
<path d="M258.389 99.2768C256.035 123.318 247.974 146.449 234.879 166.747C231.433 171.958 227.223 176.62 222.389 180.577C215.389 186.387 207.199 183.777 204.219 175.157C202.469 170.107 201.529 164.777 200.219 159.577C199.883 158.401 199.479 157.246 199.009 156.117C198.548 154.776 197.671 153.618 196.505 152.812C195.339 152.006 193.945 151.594 192.529 151.637C191.168 151.633 189.844 152.077 188.76 152.899C187.676 153.721 186.892 154.876 186.529 156.187C185.199 159.967 184.529 163.947 183.369 167.807C182.369 171.227 181.579 174.807 179.969 177.927C177.209 183.267 171.309 184.927 165.849 182.347C160.389 179.767 156.379 175.217 152.969 170.347C141.409 153.777 134.109 135.347 129.729 115.707C128.789 111.517 128.159 107.257 127.669 103.637C126.687 96.8782 126.741 90.0093 127.829 83.2669C129.075 74.874 132.557 66.9711 137.909 60.3869C147.059 49.2069 160.909 46.6469 173.479 53.7969C176.969 55.7969 180.369 58.0868 184.109 59.4468C192.299 62.4468 200.049 60.8568 207.609 56.5768C212.309 53.9268 217.369 51.2469 222.609 50.2969C235.219 47.9969 244.029 54.5168 250.609 64.5668C257.519 75.1268 259.609 87.0068 258.389 99.2768Z" fill="#213536"/>
<path d="M191.328 214.197C191.028 215.549 190.452 216.825 189.637 217.945C188.822 219.066 187.785 220.006 186.591 220.709C185.397 221.411 184.072 221.861 182.697 222.029C181.322 222.197 179.927 222.081 178.598 221.687C164.271 217.354 150.543 211.239 137.738 203.487C119.028 192.127 104.858 178.487 96.7385 163.897C89.2685 150.517 86.8685 136.247 89.6385 122.177C72.6385 111.987 52.4185 99.177 51.0685 75.177C50.2585 60.797 56.6385 47.907 70.0685 36.887C81.0685 27.797 95.2885 21.457 104.978 17.477C163.318 -6.413 235.558 -5.723 300.168 19.007C301.439 19.4917 302.598 20.2275 303.577 21.1705C304.556 22.1135 305.335 23.2443 305.867 24.4952C306.399 25.7462 306.674 27.0916 306.674 28.451C306.674 29.8104 306.4 31.1559 305.868 32.407C304.851 34.8097 302.941 36.7233 300.539 37.7439C298.138 38.7645 295.434 38.8122 292.998 37.877C233.088 14.877 166.338 14.147 112.588 36.187C83.5885 48.077 70.4385 60.107 71.2285 74.067C71.9385 86.597 84.0585 95.127 97.0285 103.067C103.108 93.177 112.458 84.567 124.218 78.187C145.298 66.747 172.218 61.307 201.888 62.467C225.758 63.397 258.548 67.727 279.248 83.107C286.568 88.557 291.018 95.757 291.758 103.377C292.279 110.079 290.255 116.731 286.088 122.007C281.088 128.597 273.088 134.007 262.178 138.157C239.645 146.6 215.772 150.906 191.708 150.867C180.806 150.874 169.922 149.978 159.168 148.187C141.707 145.237 124.726 139.936 108.688 132.427C108.448 139.667 110.338 146.817 114.368 154.047C126.758 176.237 157.368 194.197 184.368 202.317C186.821 203.042 188.908 204.67 190.207 206.873C191.506 209.076 191.921 211.69 191.368 214.187L191.328 214.197ZM114.688 112.937C129.814 120.311 145.917 125.48 162.508 128.287C193.602 133.414 225.496 130.311 255.018 119.287C262.188 116.567 267.368 113.287 270.018 109.827C271.09 108.572 271.678 106.977 271.678 105.327C271.508 103.527 269.798 101.217 267.218 99.327C254.288 89.707 230.828 83.787 201.108 82.637C182.898 81.927 156.458 83.637 133.848 95.927C125.628 100.387 118.968 106.357 114.688 112.937Z" fill="#60E5A3"/>
<path d="M258.658 95.3668C245.088 88.7768 225.138 84.7168 201.108 83.7868C182.908 83.0768 156.458 84.7868 133.848 97.0868C131.574 98.312 129.383 99.6849 127.288 101.197C126.653 95.2234 126.834 89.1911 127.828 83.2668C128.193 81.0704 128.684 78.8968 129.298 76.7568C131.016 70.7706 133.947 65.2017 137.908 60.3968C147.048 49.2068 160.908 46.6468 173.458 53.7968C176.958 55.7968 180.358 58.0968 184.098 59.4468C192.288 62.4468 200.038 60.8568 207.588 56.5768C212.298 53.9268 217.358 51.2468 222.588 50.2868C235.188 47.9868 243.998 54.5068 250.588 64.5568C252.142 66.9332 253.48 69.4431 254.588 72.0568C257.699 79.4165 259.091 87.3885 258.658 95.3668Z" fill="#213536"/>
<path d="M97.0285 103.057L114.689 112.937C114.689 112.937 122.099 102.327 126.919 100.307L117.118 82.4971C117.118 82.4971 105.019 90.7671 97.0285 103.057Z" fill="url(#paint0_linear_11_87)"/>
<path d="M89.6385 122.177L108.688 132.437C108.688 132.437 107.518 140.967 114.368 154.057L95.2185 161.057C95.2185 161.057 85.8285 146.937 89.6385 122.177Z" fill="url(#paint1_linear_11_87)"/>
<path d="M35.0707 290.747H25.1263V335.638H6.68764V290.747H0V275.424H6.68764V273.7C6.68764 266.292 8.80912 260.662 13.0521 256.811C17.295 252.961 23.5186 251.027 31.7228 251.01C32.7322 250.995 33.7418 251.031 34.7475 251.118V266.764C31.2173 266.549 28.7394 267.046 27.2892 268.272C25.839 269.499 25.1346 271.687 25.1346 274.852V275.391H35.079L35.0707 290.747Z" fill="#213536"/>
<path d="M62.1527 255.792V335.638H43.6975V255.792H62.1527Z" fill="#213536"/>
<path d="M87.0139 332.721C82.3551 330.267 78.4981 326.528 75.901 321.948C73.237 316.9 71.8487 311.278 71.8573 305.57C71.866 299.863 73.2714 294.245 75.9507 289.206C78.5823 284.593 82.4785 280.829 87.1797 278.358C92.1363 275.873 97.6043 274.579 103.149 274.579C108.693 274.579 114.161 275.873 119.118 278.358C123.817 280.829 127.71 284.593 130.339 289.206C133.041 294.232 134.45 299.852 134.44 305.559C134.43 311.266 133.001 316.881 130.281 321.898C127.611 326.514 123.681 330.274 118.952 332.737C114.005 335.296 108.503 336.594 102.933 336.516C97.3934 336.599 91.9208 335.294 87.0139 332.721ZM111.941 316.644C114.422 314.058 115.662 310.354 115.662 305.531C115.662 300.708 114.458 297.004 112.049 294.418C110.906 293.196 109.526 292.221 107.992 291.553C106.458 290.884 104.804 290.537 103.131 290.533C101.457 290.528 99.8012 290.866 98.2637 291.526C96.7261 292.185 95.34 293.153 94.1905 294.368C91.8094 296.921 90.6216 300.642 90.6271 305.531C90.6326 310.42 91.8011 314.125 94.1325 316.644C95.2251 317.897 96.5797 318.895 98.1005 319.566C99.6214 320.238 101.271 320.567 102.933 320.531C104.625 320.554 106.303 320.22 107.857 319.55C109.41 318.88 110.805 317.89 111.95 316.644H111.941Z" fill="#213536"/>
<path d="M154.727 333.806C150.911 332.218 147.568 329.672 145.023 326.414C142.679 323.379 141.289 319.716 141.029 315.89H159.26C159.353 316.895 159.662 317.869 160.165 318.744C160.669 319.619 161.355 320.376 162.177 320.961C164.025 322.296 166.263 322.981 168.542 322.909C170.42 323.021 172.287 322.549 173.887 321.558C174.471 321.179 174.95 320.66 175.28 320.047C175.611 319.434 175.781 318.749 175.776 318.053C175.776 316.323 174.876 315.044 173.075 314.216C170.241 313.06 167.317 312.14 164.332 311.464C160.671 310.655 157.072 309.592 153.559 308.282C150.67 307.17 148.106 305.352 146.1 302.995C144.012 300.586 142.968 297.332 142.968 293.233C142.948 289.867 143.954 286.574 145.852 283.794C147.957 280.788 150.878 278.447 154.272 277.048C158.466 275.292 162.985 274.445 167.531 274.562C175.077 274.562 181.03 276.432 185.389 280.173C189.748 283.913 192.248 288.885 192.889 295.089H175.776C175.669 294.12 175.37 293.181 174.898 292.328C174.426 291.474 173.789 290.723 173.025 290.117C171.26 288.829 169.108 288.183 166.926 288.286C165.179 288.173 163.441 288.607 161.954 289.529C161.403 289.903 160.956 290.411 160.654 291.006C160.353 291.6 160.207 292.26 160.23 292.926C160.23 294.65 161.141 295.943 162.981 296.813C165.74 297.958 168.608 298.818 171.542 299.382C175.239 300.296 178.878 301.43 182.439 302.78C185.308 303.945 187.846 305.798 189.831 308.174C191.953 310.661 193.058 313.989 193.146 318.16C193.192 321.543 192.152 324.851 190.179 327.599C187.998 330.525 185.045 332.786 181.652 334.129C177.558 335.785 173.172 336.591 168.757 336.5C163.944 336.587 159.166 335.67 154.727 333.806Z" fill="#213536"/>
<path d="M214.941 333.806C211.121 332.219 207.776 329.673 205.228 326.414C202.892 323.375 201.502 319.714 201.234 315.89H219.466C219.556 316.896 219.864 317.87 220.368 318.746C220.871 319.621 221.559 320.377 222.383 320.961C224.23 322.296 226.469 322.981 228.747 322.909C230.623 323.019 232.487 322.548 234.084 321.558C234.668 321.179 235.147 320.66 235.477 320.047C235.808 319.435 235.978 318.749 235.973 318.053C235.976 317.213 235.719 316.393 235.236 315.706C234.754 315.019 234.071 314.498 233.28 314.216C230.46 313.062 227.55 312.142 224.579 311.464C220.918 310.655 217.318 309.592 213.806 308.282C210.919 307.167 208.356 305.35 206.347 302.995C204.27 300.586 203.229 297.332 203.223 293.233C203.196 289.869 204.193 286.577 206.082 283.794C208.185 280.786 211.107 278.445 214.502 277.048C218.683 275.296 223.188 274.449 227.72 274.562C235.272 274.562 241.225 276.432 245.578 280.173C249.932 283.913 252.418 288.885 253.036 295.089H235.982C235.876 294.119 235.578 293.18 235.106 292.326C234.634 291.473 233.996 290.722 233.23 290.117C231.466 288.829 229.314 288.183 227.131 288.286C225.385 288.174 223.647 288.608 222.159 289.529C221.609 289.904 221.163 290.413 220.862 291.007C220.56 291.601 220.414 292.261 220.435 292.926C220.435 294.65 221.352 295.946 223.186 296.813C225.951 297.962 228.825 298.828 231.764 299.398C235.461 300.311 239.1 301.446 242.661 302.796C245.531 303.96 248.07 305.813 250.053 308.191C252.175 310.677 253.279 314.006 253.368 318.177C253.411 321.56 252.368 324.868 250.393 327.616C248.216 330.543 245.266 332.805 241.874 334.146C237.78 335.801 233.393 336.607 228.979 336.516C224.162 336.6 219.381 335.677 214.941 333.806Z" fill="#213536"/>
<path d="M283.135 255.792V335.638H264.688V255.792H283.135Z" fill="#213536"/>
<path d="M358 275.424L320.253 364.236H300.405L314.211 333.574L289.723 275.407H310.325L324.247 313.072L338.061 275.407L358 275.424Z" fill="#213536"/>
<defs>
<linearGradient id="paint0_linear_11_87" x1="104.069" y1="108.067" x2="129.249" y2="85.3071" gradientUnits="userSpaceOnUse">
<stop stop-color="#60B5A3"/>
<stop offset="0.19" stop-color="#60C9A3"/>
<stop offset="0.4" stop-color="#60D9A3"/>
<stop offset="0.65" stop-color="#60E2A3"/>
<stop offset="1" stop-color="#60E5A3"/>
</linearGradient>
<linearGradient id="paint1_linear_11_87" x1="99.2285" y1="125.697" x2="103.828" y2="165.627" gradientUnits="userSpaceOnUse">
<stop stop-color="#60B5A3"/>
<stop offset="0.19" stop-color="#60C9A3"/>
<stop offset="0.4" stop-color="#60D9A3"/>
<stop offset="0.65" stop-color="#60E2A3"/>
<stop offset="1" stop-color="#60E5A3"/>
</linearGradient>
</defs>
</svg>
