<svg width="1410" height="1080" viewBox="0 0 1410 1080" fill="none" xmlns="http://www.w3.org/2000/svg">
<path d="M1594.06 1194.6C1485.87 1366.93 1312.4 1485.02 1118.2 1518.49C951.57 1547.25 788.774 1510.55 671.698 1418.21C562.995 1332.32 496.26 1201 480.793 1044.69C315.397 1025.51 172.539 948.865 88.9043 834.218C5.87132 720.395 -19.8486 569.008 16.6236 408.032C63.947 199.251 210.77 1.5075 390.963 -95.8745C641.851 -231.506 902.894 -156.876 1003.64 -118.593L945.514 33.7868C883.438 10.1226 665.567 -58.907 468.683 47.5113C327.988 123.578 212.955 279.209 175.672 444.007C149.693 558.461 165.814 662.964 220.692 738.104C275.037 812.589 370.238 863.922 483.705 880.534C503.59 727.963 570.43 586.579 666.758 501.293C791.654 391.024 943.26 412.55 1022.55 488.741C1062.74 527.393 1083.86 584.122 1082.19 648.401C1079.62 745.618 1027.41 845.178 938.853 921.453C862.336 987.578 758.505 1029.99 644.987 1044.01C654.987 1120.28 685.624 1221.29 772.668 1290.01C853.65 1354.05 969.592 1378.61 1090.46 1357.8C1239.12 1332.17 1372.31 1241.09 1455.95 1107.86L1594.06 1194.6ZM648.787 878.714C720.904 866.264 785.719 838.522 832.342 798.299C894.784 744.347 918.159 683.33 919.169 644.175C919.743 623.725 914.542 611.263 909.527 606.438C886.603 584.376 829.578 575.083 774.687 623.651C712.328 678.711 666.572 773.99 648.787 878.714Z" fill="url(#paint0_linear_11_84)"/>
<defs>
<linearGradient id="paint0_linear_11_84" x1="344.049" y1="378.85" x2="382.736" y2="-4.39178" gradientUnits="userSpaceOnUse">
<stop stop-color="#60E5A3"/>
<stop offset="1" stop-color="#60E5A3" stop-opacity="0"/>
</linearGradient>
</defs>
</svg>
