<svg width="52" height="56" viewBox="0 0 52 56" fill="none" xmlns="http://www.w3.org/2000/svg">
<path d="M30.3332 4.91797V13.8675C30.3332 15.0809 30.3332 15.6876 30.5693 16.1511C30.7771 16.5588 31.1084 16.8902 31.5162 17.098C31.9796 17.3341 32.5863 17.3341 33.7998 17.3341H42.7493M30.3332 36.834H17.3332M34.6665 28.1673H17.3332M43.3332 21.6418V37.2673C43.3332 40.9077 43.3332 42.7277 42.6247 44.1183C42.0015 45.3414 41.0073 46.3357 39.7842 46.9588C38.3936 47.6673 36.5736 47.6673 32.9332 47.6673H19.0665C15.4262 47.6673 13.606 47.6673 12.2156 46.9588C10.9925 46.3357 9.99814 45.3414 9.37496 44.1183C8.6665 42.7277 8.6665 40.9077 8.6665 37.2673V14.734C8.6665 11.0936 8.6665 9.27346 9.37496 7.88305C9.99814 6.65999 10.9925 5.66562 12.2156 5.04244C13.606 4.33398 15.4262 4.33398 19.0665 4.33398H26.0254C27.6151 4.33398 28.41 4.33398 29.1582 4.51358C29.8214 4.67281 30.4554 4.93543 31.0371 5.29182C31.693 5.69378 32.255 6.25588 33.3793 7.38008L40.2871 14.2879C41.4113 15.4121 41.9734 15.9742 42.3753 16.6301C42.7317 17.2117 42.9943 17.8458 43.1536 18.509C43.3332 19.2571 43.3332 20.052 43.3332 21.6418Z" stroke="#60E5A3" stroke-width="2" stroke-linecap="round" stroke-linejoin="round"/>
<circle cx="41" cy="45" r="11" fill="#60E5A3"/>
<path d="M45.5 40.5H36.5M44 45.5L41 42.5M41 42.5L38 45.5M41 42.5V49.5" stroke="white" stroke-linecap="round" stroke-linejoin="round"/>
</svg>
