<svg width="34" height="46" viewBox="0 0 34 46" fill="none" xmlns="http://www.w3.org/2000/svg">
<g clip-path="url(#clip0_1203_11504)">
<path d="M23.5079 0H3.41851C2.51186 0 1.64235 0.360163 1.00126 1.00126C0.360163 1.64235 0 2.51186 0 3.41851L0 42.3902C-4.97932e-08 42.839 0.088434 43.2835 0.26025 43.6981C0.432066 44.1128 0.683897 44.4895 1.00136 44.8068C1.31881 45.1241 1.69568 45.3758 2.11042 45.5474C2.52517 45.719 2.96966 45.8073 3.41851 45.807H30.5799C31.0287 45.8073 31.4732 45.719 31.888 45.5474C32.3027 45.3758 32.6796 45.1241 32.997 44.8068C33.3145 44.4895 33.5663 44.1128 33.7381 43.6981C33.91 43.2835 33.9984 42.839 33.9984 42.3902V10.4921L23.5079 0Z" fill="#008AFE"/>
<path d="M28.2687 19.9121H5.53818V21.5634H28.2687V19.9121Z" fill="white"/>
<path d="M28.2687 23.9922H5.53818V25.6435H28.2687V23.9922Z" fill="white"/>
<path d="M28.2687 28.5859H5.53818V30.2373H28.2687V28.5859Z" fill="white"/>
<path d="M17.3903 32.8613H5.53818V34.5126H17.3903V32.8613Z" fill="white"/>
<path d="M26.9264 10.4921H34L23.5079 0V7.08166C23.51 7.98691 23.8711 8.85435 24.512 9.49371C25.1529 10.1331 26.0212 10.4921 26.9264 10.4921Z" fill="#55C2F9"/>
</g>
<defs>
<clipPath id="clip0_1203_11504">
<rect width="34" height="45.807" fill="white"/>
</clipPath>
</defs>
</svg>
