<svg width="47" height="37" viewBox="0 0 47 37" fill="none" xmlns="http://www.w3.org/2000/svg">
<path d="M3.0282 0.632684H13.4912C15.2563 0.540305 15.5807 1.30055 16.0522 1.85498L17.7075 3.94239C17.8421 4.11083 17.9722 4.17323 18.2578 4.17187H44.8716C46.1962 4.17187 47 5.06394 47 6.30029V35.7889C47 36.4079 46.5017 36.9062 45.8828 36.9062H2.01701C1.39806 36.9062 0.89978 36.4079 0.89978 35.7889V2.76111C0.89978 1.61295 1.76245 0.632684 3.0282 0.632684Z" fill="#EDC26F"/>
<path d="M3.0282 6.44531H44.8716C46.1962 6.44531 47 7.33738 47 8.57373V35.7872C47 36.4061 46.5017 36.9044 45.8828 36.9044H2.01701C1.39806 36.9044 0.89978 36.4061 0.89978 35.7872V8.57373C0.89978 7.42558 1.76245 6.44531 3.0282 6.44531Z" fill="#EDC26F"/>
<path d="M44.9419 34.3203H2.95776V34.6731H44.9419V34.3203Z" fill="white" fill-opacity="0.2"/>
<path d="M44.9419 33.1816H2.95776V33.5344H44.9419V33.1816Z" fill="white" fill-opacity="0.2"/>
<path d="M44.9419 32.043H2.95776V32.3958H44.9419V32.043Z" fill="white" fill-opacity="0.2"/>
</svg>
