<svg width="52" height="52" viewBox="0 0 52 52" fill="none" xmlns="http://www.w3.org/2000/svg">
<rect width="52" height="52" rx="12" fill="#FF2531"/>
<path d="M36 25.0857V26.0057C35.9988 28.1621 35.3005 30.2604 34.0093 31.9875C32.7182 33.7147 30.9033 34.9782 28.8354 35.5896C26.7674 36.201 24.5573 36.1276 22.5345 35.3803C20.5117 34.633 18.7846 33.2518 17.611 31.4428C16.4373 29.6338 15.8798 27.4938 16.0217 25.342C16.1636 23.1903 16.9972 21.1421 18.3983 19.5028C19.7993 17.8635 21.6928 16.7211 23.7962 16.2459C25.8996 15.7706 28.1003 15.9881 30.07 16.8657M36 18L26 28.01L23 25.01" stroke="white" stroke-width="2" stroke-linecap="round" stroke-linejoin="round"/>
</svg>
