<svg width="40" height="40" viewBox="0 0 40 40" fill="none" xmlns="http://www.w3.org/2000/svg">
<rect width="40" height="40" rx="20" fill="#213536"/>
<path d="M31.7762 20.0034C31.7778 21.5225 31.4849 23.0275 30.9136 24.4351C30.3239 25.8842 29.5247 27.1708 28.1113 27.9392C27.0315 28.5156 25.8248 28.8132 24.6007 28.805C23.0497 28.8237 21.5347 28.3373 20.2844 27.4193L20.1593 27.3235C20.9517 26.3457 21.9735 25.5789 23.1338 25.0914C24.0395 24.7152 25.0036 24.4992 25.9832 24.453C26.4856 24.4338 26.988 24.4886 27.4745 24.6154C27.9619 24.7324 28.459 24.8558 28.948 24.7876C29.3065 24.7376 29.6507 24.6132 29.9585 24.4224C30.2662 24.2316 30.5307 23.9786 30.7349 23.6797C31.3098 21.9956 31.4806 20.1998 31.2334 18.4376C30.9863 16.6753 30.3281 14.9958 29.312 13.5348C28.296 12.0739 26.9506 10.8724 25.3845 10.0273C23.8184 9.18231 22.0755 8.71747 20.2965 8.67036C18.5176 8.62326 16.7526 8.99521 15.1439 9.75616C13.5353 10.5171 12.1282 11.6458 11.0362 13.0509C9.94429 14.456 9.19814 16.0983 8.85805 17.8451C8.51795 19.5918 8.59345 21.394 9.07845 23.1062C9.07845 23.1355 9.09632 23.1631 9.10444 23.1923C9.36761 24.029 10.2124 24.6658 11.127 24.7925C11.6143 24.8607 12.1195 24.7372 12.6004 24.6203C13.0869 24.4934 13.5893 24.4387 14.0917 24.4578C15.0713 24.504 16.0355 24.7201 16.9411 25.0963C18.1015 25.5822 19.1238 26.3472 19.9172 27.3235L19.7922 27.4193C18.5418 28.3373 17.0268 28.8237 15.4758 28.805C14.1853 28.8138 12.9154 28.4815 11.7946 27.8417C10.1116 26.8572 9.21166 25.0995 8.68531 23.2719C8.21623 21.6517 8.10063 19.9497 8.34632 18.2809C8.59202 16.6122 9.19328 15.0157 10.1094 13.5994C11.0256 12.1832 12.2352 10.9803 13.6565 10.072C15.0779 9.16377 16.6777 8.5714 18.3478 8.335C20.0179 8.0986 21.7192 8.22368 23.3368 8.70177C24.9544 9.17986 26.4504 9.99982 27.7236 11.1062C28.9968 12.2125 30.0175 13.5794 30.7167 15.1144C31.4159 16.6494 31.7772 18.3167 31.7762 20.0034Z" fill="url(#paint0_radial_2010_500)"/>
<path d="M23.5263 18.1182C22.7727 18.0993 22.0224 18.0129 21.2843 17.8598C20.539 17.7075 19.8095 17.4855 19.1056 17.197C18.7498 17.0491 18.4119 16.8883 18.0837 16.7405C17.7699 16.5951 17.4477 16.4686 17.1187 16.3619C16.8242 16.2626 16.5164 16.2078 16.2057 16.1995C16.1326 16.1995 16.0594 16.1995 15.988 16.2092C15.9165 16.2162 15.8454 16.227 15.7751 16.2417C15.7053 16.2596 15.6305 16.2693 15.5623 16.2937C15.4941 16.3181 15.4258 16.3359 15.3625 16.3652C15.1032 16.4682 14.8721 16.6314 14.6883 16.8412C14.4903 17.066 14.3356 17.3254 14.2317 17.6064C14.1191 17.9085 14.0443 18.2233 14.0092 18.5438C13.9743 18.8854 13.9635 19.2291 13.9767 19.5722C14.0071 20.2898 14.0924 21.004 14.2317 21.7086C14.3617 22.4283 14.5339 23.1513 14.685 23.8872C14.2876 23.245 13.9447 22.5706 13.6599 21.8711C13.3672 21.161 13.1573 20.4196 13.0344 19.6616C12.8822 18.8512 12.9228 18.0164 13.153 17.2246C13.2858 16.7997 13.4998 16.4046 13.7833 16.0614C14.0843 15.7058 14.4658 15.4273 14.8962 15.249C15.0018 15.2036 15.1107 15.1743 15.2211 15.1369C15.3316 15.0996 15.4388 15.0866 15.5461 15.0622C15.7684 15.0217 15.9943 15.0037 16.2203 15.0086C16.6527 15.0331 17.0784 15.1269 17.481 15.2864C18.2527 15.5772 18.8879 16.0013 19.5086 16.3489C20.7546 17.0524 22.1242 17.5869 23.5263 18.1182Z" fill="url(#paint1_radial_2010_500)"/>
<path d="M20.5833 15.7783C21.1022 15.5077 21.6552 15.3083 22.2274 15.1853C22.813 15.0516 23.4152 15.0045 24.0145 15.0456C24.6703 15.0852 25.3041 15.2971 25.8519 15.6597C26.14 15.8587 26.3899 16.108 26.5895 16.3957C26.7861 16.6796 26.9369 16.9927 27.0363 17.3234C27.1271 17.6384 27.1816 17.9627 27.1988 18.29C27.2112 18.603 27.1982 18.9165 27.1598 19.2274C27.0819 19.8232 26.938 20.4084 26.7309 20.9723C26.3304 22.0676 25.7632 23.0946 25.0494 24.0169C25.3012 22.8796 25.6148 21.8025 25.8162 20.7237C25.9207 20.1983 25.9891 19.6664 26.0209 19.1316C26.0563 18.64 26.0102 18.146 25.8844 17.6694C25.825 17.4547 25.7341 17.25 25.6148 17.0618C25.4986 16.8761 25.3519 16.7114 25.181 16.5744C24.9997 16.4296 24.8004 16.3089 24.588 16.2154C24.3582 16.1152 24.1201 16.0353 23.8764 15.9765C23.3525 15.8565 22.8182 15.788 22.281 15.7718C21.727 15.7458 21.1616 15.7556 20.5833 15.7783Z" fill="url(#paint2_radial_2010_500)"/>
<path d="M20.0566 27.7869C20.0989 27.8226 20.1395 27.8551 20.1834 27.8876C21.4656 28.8291 23.0195 29.3275 24.6102 29.3075C25.7474 29.314 26.8715 29.0653 27.8998 28.5797C27.9052 28.5777 27.911 28.5776 27.9164 28.5792C27.9218 28.5809 27.9265 28.5843 27.9298 28.5889C27.9331 28.5935 27.9349 28.5991 27.9347 28.6047C27.9346 28.6104 27.9326 28.6159 27.9291 28.6203C25.7309 30.6687 22.8335 31.8005 19.8289 31.7841C16.8242 31.7678 13.9393 30.6048 11.7635 28.5326C11.7599 28.5281 11.758 28.5227 11.7578 28.517C11.7577 28.5113 11.7594 28.5058 11.7627 28.5012C11.766 28.4966 11.7707 28.4932 11.7762 28.4915C11.7816 28.4899 11.7874 28.49 11.7927 28.4919C12.866 29.0331 14.0526 29.3115 15.2546 29.3042C16.8454 29.3241 18.3995 28.8251 19.6814 27.8828C19.7252 27.8503 19.7675 27.8178 19.8081 27.782L19.9332 27.6797L20.0566 27.7869Z" fill="url(#paint3_radial_2010_500)"/>
<path d="M20.3222 25.1343C20.3239 25.1421 20.3277 25.1493 20.3331 25.1551C20.3386 25.161 20.3455 25.1652 20.3532 25.1674C20.3609 25.1696 20.3691 25.1696 20.3768 25.1675C20.3845 25.1654 20.3915 25.1612 20.397 25.1554C21.0688 24.3934 21.4335 23.409 21.4206 22.3933C21.4206 21.0805 20.8552 19.9253 19.9989 19.2559C19.1427 19.922 18.5756 21.0723 18.5756 22.3852C18.5609 23.406 18.9277 24.3956 19.6041 25.1603C19.6092 25.1658 19.6157 25.1699 19.6229 25.1719C19.6301 25.174 19.6378 25.174 19.645 25.172C19.6523 25.17 19.6588 25.166 19.6639 25.1605C19.669 25.155 19.6725 25.1481 19.674 25.1408C19.7617 24.6712 19.8771 23.607 19.9989 21.2917C20.1191 23.5972 20.2329 24.6615 20.3222 25.1343Z" fill="url(#paint4_radial_2010_500)"/>
<path d="M22.8692 24.2661C22.8221 24.357 22.0276 25.8208 21.0821 26.4171C21.5273 26.394 21.9626 26.2763 22.3587 26.0719C22.7549 25.8674 23.103 25.5808 23.3797 25.2312C23.6564 24.8816 23.8554 24.477 23.9635 24.0445C24.0716 23.6119 24.0862 23.1613 24.0064 22.7227C23.5581 22.7348 23.1183 22.8479 22.7197 23.0535C22.3211 23.2591 21.9741 23.552 21.7043 23.9103C21.294 24.4198 21.0521 25.0443 21.0122 25.6974C21.3371 25.6048 22.0341 25.2945 22.874 24.2693" fill="url(#paint5_radial_2010_500)"/>
<path d="M17.1281 24.2722C17.9696 25.2974 18.6585 25.6077 18.9915 25.7003C18.9516 25.0473 18.7098 24.4228 18.2995 23.9132C18.0289 23.5558 17.6813 23.2639 17.2825 23.0591C16.8837 22.8544 16.4439 22.742 15.9957 22.7305C15.9159 23.1691 15.9305 23.6197 16.0386 24.0523C16.1467 24.4849 16.3457 24.8894 16.6224 25.239C16.8991 25.5886 17.2472 25.8752 17.6434 26.0797C18.0396 26.2842 18.4748 26.4018 18.9201 26.4249C17.9729 25.8287 17.1785 24.3649 17.133 24.2739" fill="url(#paint6_radial_2010_500)"/>
<defs>
<radialGradient id="paint0_radial_2010_500" cx="0" cy="0" r="1" gradientUnits="userSpaceOnUse" gradientTransform="translate(20.7393 19.4543) scale(13.1342 13.1342)">
<stop stop-color="#F4C12F"/>
<stop offset="0.01" stop-color="#976130"/>
<stop offset="0.5" stop-color="#DCB15F"/>
<stop offset="1" stop-color="#BE8845"/>
</radialGradient>
<radialGradient id="paint1_radial_2010_500" cx="0" cy="0" r="1" gradientUnits="userSpaceOnUse" gradientTransform="translate(20.74 19.4536) scale(13.1336 13.1336)">
<stop stop-color="#F4C12F"/>
<stop offset="0.01" stop-color="#976130"/>
<stop offset="0.5" stop-color="#DCB15F"/>
<stop offset="1" stop-color="#BE8845"/>
</radialGradient>
<radialGradient id="paint2_radial_2010_500" cx="0" cy="0" r="1" gradientUnits="userSpaceOnUse" gradientTransform="translate(20.7392 19.4533) scale(13.1352)">
<stop stop-color="#F4C12F"/>
<stop offset="0.01" stop-color="#976130"/>
<stop offset="0.5" stop-color="#DCB15F"/>
<stop offset="1" stop-color="#BE8845"/>
</radialGradient>
<radialGradient id="paint3_radial_2010_500" cx="0" cy="0" r="1" gradientUnits="userSpaceOnUse" gradientTransform="translate(20.7389 19.4531) scale(13.1342)">
<stop stop-color="#F4C12F"/>
<stop offset="0.01" stop-color="#976130"/>
<stop offset="0.5" stop-color="#DCB15F"/>
<stop offset="1" stop-color="#BE8845"/>
</radialGradient>
<radialGradient id="paint4_radial_2010_500" cx="0" cy="0" r="1" gradientUnits="userSpaceOnUse" gradientTransform="translate(20.7398 19.4525) scale(13.1362 13.1362)">
<stop stop-color="#F4C12F"/>
<stop offset="0.01" stop-color="#976130"/>
<stop offset="0.5" stop-color="#DCB15F"/>
<stop offset="1" stop-color="#BE8845"/>
</radialGradient>
<radialGradient id="paint5_radial_2010_500" cx="0" cy="0" r="1" gradientUnits="userSpaceOnUse" gradientTransform="translate(20.7393 19.4539) scale(13.1352)">
<stop stop-color="#F4C12F"/>
<stop offset="0.01" stop-color="#976130"/>
<stop offset="0.5" stop-color="#DCB15F"/>
<stop offset="1" stop-color="#BE8845"/>
</radialGradient>
<radialGradient id="paint6_radial_2010_500" cx="0" cy="0" r="1" gradientUnits="userSpaceOnUse" gradientTransform="translate(20.7397 19.4552) scale(13.1352 13.1352)">
<stop stop-color="#F4C12F"/>
<stop offset="0.01" stop-color="#976130"/>
<stop offset="0.5" stop-color="#DCB15F"/>
<stop offset="1" stop-color="#BE8845"/>
</radialGradient>
</defs>
</svg>
