<svg width="16" height="19" viewBox="0 0 16 19" fill="none" xmlns="http://www.w3.org/2000/svg">
<path d="M9.66683 1.62343V5.01159C9.66683 5.47098 9.66683 5.70068 9.75766 5.87614C9.83758 6.03049 9.965 6.15597 10.1218 6.23462C10.3001 6.32402 10.5334 6.32402 11.0002 6.32402H14.4422M9.66683 13.7064H4.66683M11.3335 10.4253H4.66683M14.6668 7.95484V13.8704C14.6668 15.2487 14.6668 15.9377 14.3943 16.4641C14.1547 16.9272 13.7722 17.3036 13.3018 17.5395C12.767 17.8077 12.067 17.8077 10.6668 17.8077H5.3335C3.93336 17.8077 3.2333 17.8077 2.69852 17.5395C2.22811 17.3036 1.84566 16.9272 1.60598 16.4641C1.3335 15.9377 1.3335 15.2487 1.3335 13.8704V5.33964C1.3335 3.96145 1.3335 3.27236 1.60598 2.74597C1.84566 2.28294 2.22811 1.90648 2.69852 1.67056C3.2333 1.40234 3.93336 1.40234 5.3335 1.40234H8.01C8.62141 1.40234 8.92716 1.40234 9.21491 1.47034C9.47 1.53062 9.71383 1.63004 9.93758 1.76497C10.1898 1.91715 10.406 2.12995 10.8384 2.55555L13.4952 5.17075C13.9277 5.59636 14.1438 5.80916 14.2984 6.0575C14.4355 6.27767 14.5365 6.51771 14.5977 6.76879C14.6668 7.05201 14.6668 7.35295 14.6668 7.95484Z" stroke="#1E1E1E" stroke-linecap="round" stroke-linejoin="round"/>
</svg>
