<svg width="20" height="21" viewBox="0 0 20 21" fill="none" xmlns="http://www.w3.org/2000/svg">
<path d="M13.3334 15.5L15.0001 17.1667L18.3334 13.8333M10.0001 13H6.66675C5.11361 13 4.33704 13 3.72447 13.2537C2.90771 13.5921 2.2588 14.241 1.92048 15.0577C1.66675 15.6703 1.66675 16.4468 1.66675 18M12.9167 3.2423C14.1383 3.73679 15.0001 4.93442 15.0001 6.33333C15.0001 7.73224 14.1383 8.92992 12.9167 9.42433M11.2501 6.33333C11.2501 8.17428 9.75766 9.66667 7.91675 9.66667C6.0758 9.66667 4.58341 8.17428 4.58341 6.33333C4.58341 4.49238 6.0758 3 7.91675 3C9.75766 3 11.2501 4.49238 11.2501 6.33333Z" stroke="black" stroke-linecap="round" stroke-linejoin="round"/>
</svg>
