<svg width="20" height="21" viewBox="0 0 20 21" fill="none" xmlns="http://www.w3.org/2000/svg">
<path d="M16.6666 18C16.6666 16.837 16.6666 16.2556 16.5231 15.7824C16.1999 14.7171 15.3662 13.8833 14.3008 13.5602C13.8277 13.4167 13.2463 13.4167 12.0833 13.4167H7.91659C6.75362 13.4167 6.17213 13.4167 5.69897 13.5602C4.63363 13.8833 3.79995 14.7171 3.47679 15.7824C3.33325 16.2556 3.33325 16.837 3.33325 18M13.7499 6.75C13.7499 8.82107 12.071 10.5 9.99992 10.5C7.92885 10.5 6.24992 8.82107 6.24992 6.75C6.24992 4.67893 7.92885 3 9.99992 3C12.071 3 13.7499 4.67893 13.7499 6.75Z" stroke="black" stroke-linecap="round" stroke-linejoin="round"/>
</svg>
