<svg width="20" height="21" viewBox="0 0 20 21" fill="none" xmlns="http://www.w3.org/2000/svg">
<path d="M13.3333 3.83268C14.1083 3.83268 14.4958 3.83268 14.8137 3.91787C15.6763 4.14903 16.3503 4.82291 16.5814 5.68563C16.6666 6.00355 16.6666 6.39104 16.6666 7.16602V14.8327C16.6666 16.2328 16.6666 16.9328 16.3941 17.4677C16.1544 17.9381 15.772 18.3205 15.3016 18.5602C14.7668 18.8327 14.0668 18.8327 12.6666 18.8327H7.33325C5.93312 18.8327 5.23305 18.8327 4.69828 18.5602C4.22787 18.3205 3.84542 17.9381 3.60574 17.4677C3.33325 16.9328 3.33325 16.2328 3.33325 14.8327V7.16602C3.33325 6.39104 3.33325 6.00355 3.41844 5.68563C3.6496 4.82291 4.32348 4.14903 5.1862 3.91787C5.50412 3.83268 5.89161 3.83268 6.66659 3.83268M7.49992 12.9993L9.16659 14.666L12.9166 10.916M7.99992 5.49935H11.9999C12.4667 5.49935 12.7 5.49935 12.8783 5.40852C13.0351 5.32862 13.1625 5.20114 13.2424 5.04434C13.3333 4.86608 13.3333 4.63272 13.3333 4.16602V3.49935C13.3333 3.03264 13.3333 2.79928 13.2424 2.62102C13.1625 2.46422 13.0351 2.33674 12.8783 2.25684C12.7 2.16602 12.4667 2.16602 11.9999 2.16602H7.99992C7.53321 2.16602 7.29985 2.16602 7.12159 2.25684C6.96479 2.33674 6.83731 2.46422 6.75741 2.62102C6.66658 2.79928 6.66659 3.03264 6.66659 3.49935V4.16602C6.66659 4.63272 6.66658 4.86608 6.75741 5.04434C6.83731 5.20114 6.96479 5.32862 7.12159 5.40852C7.29985 5.49935 7.53321 5.49935 7.99992 5.49935Z" stroke="black" stroke-linecap="round" stroke-linejoin="round"/>
</svg>
