<svg width="20" height="20" viewBox="0 0 20 20" fill="none" xmlns="http://www.w3.org/2000/svg">
<path d="M2.01677 10.5937C1.90329 10.4139 1.84654 10.3241 1.81477 10.1855C1.79091 10.0814 1.79091 9.91727 1.81477 9.81318C1.84654 9.6746 1.90329 9.58477 2.01677 9.40502C2.95461 7.92005 5.74617 4.16602 10.0003 4.16602C14.2545 4.16602 17.0461 7.92005 17.9839 9.40502C18.0974 9.58477 18.1542 9.6746 18.1859 9.81318C18.2098 9.91727 18.2098 10.0814 18.1859 10.1855C18.1542 10.3241 18.0974 10.4139 17.9839 10.5937C17.0461 12.0787 14.2545 15.8327 10.0003 15.8327C5.74617 15.8327 2.95461 12.0787 2.01677 10.5937Z" stroke="#B9308A" stroke-linecap="round" stroke-linejoin="round"/>
<path d="M10.0004 12.5C11.3811 12.5 12.5004 11.3807 12.5004 10C12.5004 8.61925 11.3811 7.5 10.0004 7.5C8.61962 7.5 7.50037 8.61925 7.50037 10C7.50037 11.3807 8.61962 12.5 10.0004 12.5Z" stroke="#B9308A" stroke-linecap="round" stroke-linejoin="round"/>
</svg>
