<svg width="20" height="21" viewBox="0 0 20 21" fill="none" xmlns="http://www.w3.org/2000/svg">
<path d="M9.16675 4.24935H15.2501C16.1835 4.24935 16.6502 4.24935 17.0067 4.43101C17.3203 4.59079 17.5753 4.84576 17.7351 5.15937C17.9167 5.51588 17.9167 5.98259 17.9167 6.91602V7.99935C17.9167 8.77592 17.9167 9.16418 17.7899 9.47052C17.6207 9.87885 17.2962 10.2033 16.8879 10.3725C16.5816 10.4993 16.1933 10.4993 15.4167 10.4993M10.8334 16.7493H4.75008C3.81666 16.7493 3.34995 16.7493 2.99343 16.5677C2.67982 16.4079 2.42486 16.1529 2.26507 15.8393C2.08341 15.4828 2.08341 15.0161 2.08341 14.0827V12.9993C2.08341 12.2228 2.08341 11.8345 2.21028 11.5282C2.37944 11.1198 2.7039 10.7953 3.11227 10.6262C3.41856 10.4993 3.80685 10.4993 4.58341 10.4993M8.58341 12.5827H11.4167C11.6501 12.5827 11.7667 12.5827 11.8559 12.5373C11.9343 12.4973 11.9981 12.4336 12.038 12.3552C12.0834 12.266 12.0834 12.1493 12.0834 11.916V9.08268C12.0834 8.84935 12.0834 8.73265 12.038 8.64352C11.9981 8.56512 11.9343 8.50137 11.8559 8.46143C11.7667 8.41602 11.6501 8.41602 11.4167 8.41602H8.58341C8.35008 8.41602 8.23338 8.41602 8.14425 8.46143C8.06585 8.50137 8.00211 8.56512 7.96216 8.64352C7.91675 8.73265 7.91675 8.84935 7.91675 9.08268V11.916C7.91675 12.1493 7.91675 12.266 7.96216 12.3552C8.00211 12.4336 8.06585 12.4973 8.14425 12.5373C8.23338 12.5827 8.35008 12.5827 8.58341 12.5827ZM14.8334 18.8327H17.6667C17.9001 18.8327 18.0167 18.8327 18.1059 18.7873C18.1843 18.7473 18.2481 18.6836 18.288 18.6052C18.3334 18.516 18.3334 18.3993 18.3334 18.166V15.3327C18.3334 15.0993 18.3334 14.9827 18.288 14.8935C18.2481 14.8151 18.1843 14.7513 18.1059 14.7114C18.0167 14.666 17.9001 14.666 17.6667 14.666H14.8334C14.6001 14.666 14.4834 14.666 14.3942 14.7114C14.3158 14.7513 14.2521 14.8151 14.2122 14.8935C14.1667 14.9827 14.1667 15.0993 14.1667 15.3327V18.166C14.1667 18.3993 14.1667 18.516 14.2122 18.6052C14.2521 18.6836 14.3158 18.7473 14.3942 18.7873C14.4834 18.8327 14.6001 18.8327 14.8334 18.8327ZM2.33341 6.33268H5.16675C5.40011 6.33268 5.51678 6.33268 5.60591 6.28727C5.68431 6.24732 5.74806 6.18358 5.788 6.10518C5.83341 6.01605 5.83341 5.89937 5.83341 5.66602V2.83268C5.83341 2.59932 5.83341 2.48265 5.788 2.39352C5.74806 2.31512 5.68431 2.25137 5.60591 2.21143C5.51678 2.16602 5.40011 2.16602 5.16675 2.16602H2.33341C2.10006 2.16602 1.98338 2.16602 1.89425 2.21143C1.81585 2.25137 1.75211 2.31512 1.71216 2.39352C1.66675 2.48265 1.66675 2.59932 1.66675 2.83268V5.66602C1.66675 5.89937 1.66675 6.01605 1.71216 6.10518C1.75211 6.18358 1.81585 6.24732 1.89425 6.28727C1.98338 6.33268 2.10006 6.33268 2.33341 6.33268Z" stroke="black" stroke-linecap="round" stroke-linejoin="round"/>
</svg>
