<svg width="20" height="20" viewBox="0 0 20 20" fill="none" xmlns="http://www.w3.org/2000/svg">
<path d="M10.0003 18.3332C14.6027 18.3332 18.3337 14.6022 18.3337 9.99984C18.3337 5.39746 14.6027 1.6665 10.0003 1.6665C5.39795 1.6665 1.66699 5.39746 1.66699 9.99984C1.66699 14.6022 5.39795 18.3332 10.0003 18.3332Z" stroke="#60E5A3" stroke-linecap="round" stroke-linejoin="round"/>
<path d="M11.5281 6.08317C11.5281 5.84981 11.5281 5.73314 11.4827 5.644C11.4427 5.5656 11.379 5.50186 11.3006 5.46192C11.2115 5.4165 11.0948 5.4165 10.8614 5.4165H9.13924C8.90583 5.4165 8.78916 5.4165 8.70008 5.46192C8.62166 5.50186 8.55791 5.5656 8.51799 5.644C8.47258 5.73314 8.47258 5.84981 8.47258 6.08317V7.8054C8.47258 8.03875 8.47258 8.15543 8.42716 8.24455C8.38716 8.32295 8.32344 8.38667 8.24504 8.42667C8.15592 8.47209 8.03923 8.47209 7.80588 8.47209H6.08366C5.8503 8.47209 5.73363 8.47209 5.64449 8.5175C5.56609 8.55742 5.50235 8.62117 5.46241 8.69959C5.41699 8.78867 5.41699 8.90534 5.41699 9.13875V10.8609C5.41699 11.0943 5.41699 11.211 5.46241 11.3001C5.50235 11.3785 5.56609 11.4423 5.64449 11.4822C5.73363 11.5276 5.8503 11.5276 6.08366 11.5276H7.80588C8.03923 11.5276 8.15592 11.5276 8.24504 11.573C8.32344 11.613 8.38716 11.6768 8.42716 11.7551C8.47258 11.8443 8.47258 11.9609 8.47258 12.1943V13.9165C8.47258 14.1498 8.47258 14.2665 8.51799 14.3557C8.55791 14.4341 8.62166 14.4978 8.70008 14.5378C8.78916 14.5832 8.90583 14.5832 9.13924 14.5832H10.8614C11.0948 14.5832 11.2115 14.5832 11.3006 14.5378C11.379 14.4978 11.4427 14.4341 11.4827 14.3557C11.5281 14.2665 11.5281 14.1498 11.5281 13.9165V12.1943C11.5281 11.9609 11.5281 11.8443 11.5735 11.7551C11.6135 11.6768 11.6772 11.613 11.7556 11.573C11.8447 11.5276 11.9614 11.5276 12.1947 11.5276H13.917C14.1503 11.5276 14.267 11.5276 14.3562 11.4822C14.4346 11.4423 14.4983 11.3785 14.5382 11.3001C14.5837 11.211 14.5837 11.0943 14.5837 10.8609V9.13875C14.5837 8.90534 14.5837 8.78867 14.5382 8.69959C14.4983 8.62117 14.4346 8.55742 14.3562 8.5175C14.267 8.47209 14.1503 8.47209 13.917 8.47209H12.1947C11.9614 8.47209 11.8447 8.47209 11.7556 8.42667C11.6772 8.38667 11.6135 8.32295 11.5735 8.24455C11.5281 8.15543 11.5281 8.03875 11.5281 7.8054V6.08317Z" stroke="#60E5A3" stroke-linecap="round" stroke-linejoin="round"/>
</svg>
