<svg width="20" height="20" viewBox="0 0 20 20" fill="none" xmlns="http://www.w3.org/2000/svg">
<path d="M14.167 12.0833V9.57867C14.167 9.42909 14.167 9.35434 14.1442 9.28825C14.1241 9.22992 14.0912 9.17675 14.048 9.13259C13.9992 9.08267 13.9322 9.04925 13.7985 8.98242L10.0003 7.0833M3.33366 7.91664V13.5888C3.33366 13.8988 3.33366 14.0537 3.38201 14.1894C3.42475 14.3093 3.49441 14.4179 3.58564 14.5068C3.68884 14.6072 3.82972 14.6718 4.11145 14.8009L9.44483 17.2453C9.64916 17.339 9.75133 17.3858 9.85774 17.4043C9.95208 17.4207 10.0486 17.4207 10.1429 17.4043C10.2493 17.3858 10.3515 17.339 10.5558 17.2453L15.8892 14.8009C16.1709 14.6718 16.3118 14.6072 16.415 14.5068C16.5062 14.4179 16.5759 14.3093 16.6187 14.1894C16.667 14.0537 16.667 13.8988 16.667 13.5888V7.91664M1.66699 7.0833L9.70216 3.06571C9.81149 3.01105 9.86616 2.98372 9.92349 2.97297C9.97424 2.96344 10.0264 2.96344 10.0772 2.97297C10.1345 2.98372 10.1892 3.01105 10.2985 3.06571L18.3337 7.0833L10.2985 11.1009C10.1892 11.1556 10.1345 11.1829 10.0772 11.1937C10.0264 11.2032 9.97424 11.2032 9.92349 11.1937C9.86616 11.1829 9.81149 11.1556 9.70216 11.1009L1.66699 7.0833Z" stroke="#60E5A3" stroke-linecap="round" stroke-linejoin="round"/>
</svg>
