<svg width="20" height="20" viewBox="0 0 20 20" fill="none" xmlns="http://www.w3.org/2000/svg">
<path d="M15.0004 13.1974C16.2136 13.8069 17.2538 14.785 18.0131 16.008C18.1634 16.2503 18.2386 16.3713 18.2646 16.539C18.3174 16.8798 18.0844 17.2988 17.767 17.4337C17.6108 17.5 17.4351 17.5 17.0837 17.5M13.3337 9.61017C14.5685 8.99658 15.4171 7.72238 15.4171 6.25C15.4171 4.77762 14.5685 3.50343 13.3337 2.8898M11.6671 6.25C11.6671 8.32107 9.98805 10 7.91702 10C5.84595 10 4.16702 8.32107 4.16702 6.25C4.16702 4.17893 5.84595 2.5 7.91702 2.5C9.98805 2.5 11.6671 4.17893 11.6671 6.25ZM2.13305 15.7819C3.46164 13.7872 5.55816 12.5 7.91702 12.5C10.2759 12.5 12.3724 13.7872 13.701 15.7819C13.9921 16.219 14.1376 16.4375 14.1208 16.7166C14.1078 16.9339 13.9653 17.2 13.7916 17.3313C13.5686 17.5 13.2619 17.5 12.6484 17.5H3.18565C2.57216 17.5 2.26542 17.5 2.04239 17.3313C1.86873 17.2 1.72626 16.9339 1.71321 16.7166C1.69646 16.4375 1.84199 16.219 2.13305 15.7819Z" stroke="#60E5A3" stroke-linecap="round" stroke-linejoin="round"/>
</svg>
