<svg width="16" height="18" viewBox="0 0 16 18" fill="none" xmlns="http://www.w3.org/2000/svg">
<path d="M11.333 2.33317C12.108 2.33317 12.4955 2.33317 12.8134 2.41835C13.6761 2.64952 14.35 3.3234 14.5812 4.18612C14.6663 4.50404 14.6663 4.89153 14.6663 5.6665V13.3332C14.6663 14.7333 14.6663 15.4333 14.3938 15.9682C14.1542 16.4386 13.7718 16.821 13.3013 17.0607C12.7665 17.3332 12.0665 17.3332 10.6663 17.3332H5.33301C3.93287 17.3332 3.23281 17.3332 2.69803 17.0607C2.22762 16.821 1.84517 16.4386 1.60549 15.9682C1.33301 15.4333 1.33301 14.7333 1.33301 13.3332V5.6665C1.33301 4.89153 1.33301 4.50404 1.41819 4.18612C1.64936 3.3234 2.32323 2.64952 3.18596 2.41835C3.50387 2.33317 3.89137 2.33317 4.66634 2.33317M5.49967 11.4998L7.16634 13.1665L10.9163 9.4165M5.99967 3.99984H9.99967C10.4664 3.99984 10.6998 3.99984 10.878 3.90901C11.0348 3.82911 11.1623 3.70163 11.2422 3.54483C11.333 3.36657 11.333 3.13321 11.333 2.6665V1.99984C11.333 1.53313 11.333 1.29977 11.2422 1.12151C11.1623 0.964712 11.0348 0.837229 10.878 0.757329C10.6998 0.666504 10.4664 0.666504 9.99967 0.666504H5.99967C5.53297 0.666504 5.29961 0.666504 5.12135 0.757329C4.96455 0.837229 4.83707 0.964712 4.75717 1.12151C4.66634 1.29977 4.66634 1.53313 4.66634 1.99984V2.6665C4.66634 3.13321 4.66634 3.36657 4.75717 3.54483C4.83707 3.70163 4.96455 3.82911 5.12135 3.90901C5.29961 3.99984 5.53297 3.99984 5.99967 3.99984Z" stroke="#60E5A3" stroke-linecap="round" stroke-linejoin="round"/>
</svg>
