<svg width="32" height="32" viewBox="0 0 32 32" fill="none" xmlns="http://www.w3.org/2000/svg">
<path d="M20 28V20.8C20 20.0532 20 19.6799 19.8547 19.3947C19.7268 19.1437 19.5229 18.9399 19.272 18.812C18.9868 18.6667 18.6135 18.6667 17.8667 18.6667H14.1333C13.3865 18.6667 13.0132 18.6667 12.728 18.812C12.4771 18.9399 12.2732 19.1437 12.1453 19.3947C12 19.6799 12 20.0532 12 20.8V28M25.3333 28V8.26667C25.3333 6.7732 25.3333 6.02645 25.0427 5.45603C24.7871 4.95425 24.3791 4.54631 23.8773 4.29065C23.3069 4 22.5601 4 21.0667 4H10.9333C9.43985 4 8.69312 4 8.12269 4.29065C7.62092 4.54631 7.21297 4.95425 6.95732 5.45603C6.66667 6.02645 6.66667 6.7732 6.66667 8.26667V28M28 28H4M12.6667 10.6667H12.68M19.3333 10.6667H19.3467M13.3333 10.6667C13.3333 11.0349 13.0349 11.3333 12.6667 11.3333C12.2985 11.3333 12 11.0349 12 10.6667C12 10.2985 12.2985 10 12.6667 10C13.0349 10 13.3333 10.2985 13.3333 10.6667ZM20 10.6667C20 11.0349 19.7015 11.3333 19.3333 11.3333C18.9652 11.3333 18.6667 11.0349 18.6667 10.6667C18.6667 10.2985 18.9652 10 19.3333 10C19.7015 10 20 10.2985 20 10.6667Z" stroke="white" stroke-width="2" stroke-linecap="round" stroke-linejoin="round"/>
</svg>
