<svg width="32" height="32" viewBox="0 0 32 32" fill="none" xmlns="http://www.w3.org/2000/svg">
<path d="M18.8148 8.96293H26.8539C27.4503 8.96293 27.7485 8.96293 27.9229 9.08832C28.0751 9.19772 28.1741 9.36612 28.1959 9.55225C28.2208 9.7656 28.076 10.0263 27.7864 10.5476L25.8269 14.0746C25.7219 14.2636 25.6693 14.3582 25.6488 14.4583C25.6305 14.5468 25.6305 14.6383 25.6488 14.7268C25.6693 14.827 25.7219 14.9215 25.8269 15.1106L27.7864 18.6375C28.076 19.1588 28.2208 19.4195 28.1959 19.6328C28.1741 19.819 28.0751 19.9874 27.9229 20.0968C27.7485 20.2222 27.4503 20.2222 26.8539 20.2222H16.726C15.9792 20.2222 15.6059 20.2222 15.3207 20.0768C15.0697 19.949 14.8657 19.7451 14.738 19.4942C14.5927 19.209 14.5927 18.8356 14.5927 18.0888V14.5926M9.66672 28.667L4.03709 6.14848M6.14827 14.5926H16.6816C17.4283 14.5926 17.8016 14.5926 18.0868 14.4474C18.3377 14.3195 18.5417 14.1155 18.6696 13.8646C18.8149 13.5794 18.8149 13.206 18.8149 12.4593V5.46671C18.8149 4.71997 18.8149 4.3466 18.6696 4.06139C18.5417 3.81051 18.3377 3.60653 18.0868 3.47869C17.8016 3.33337 17.4283 3.33337 16.6816 3.33337H6.06569C5.13433 3.33337 4.66865 3.33337 4.35013 3.52636C4.07097 3.69549 3.86356 3.96116 3.76717 4.273C3.65721 4.62881 3.77016 5.08059 3.99605 5.98413L6.14827 14.5926Z" stroke="white" stroke-width="2" stroke-linecap="round" stroke-linejoin="round"/>
</svg>
