<svg width="32" height="32" viewBox="0 0 32 32" fill="none" xmlns="http://www.w3.org/2000/svg">
<path d="M16 22.6667C16 26.3485 18.9848 29.3333 22.6667 29.3333C26.3485 29.3333 29.3333 26.3485 29.3333 22.6667C29.3333 18.9848 26.3485 16 22.6667 16C18.9848 16 16 18.9848 16 22.6667ZM16 22.6667C16 21.1656 16.4961 19.7804 17.3333 18.666V6.66667M16 22.6667C16 23.7672 16.2667 24.8053 16.7388 25.7201C15.6156 26.6691 13.0211 27.3333 10 27.3333C5.94991 27.3333 2.66667 26.1395 2.66667 24.6667V6.66667M17.3333 6.66667C17.3333 8.13943 14.0501 9.33333 10 9.33333C5.94991 9.33333 2.66667 8.13943 2.66667 6.66667M17.3333 6.66667C17.3333 5.19391 14.0501 4 10 4C5.94991 4 2.66667 5.19391 2.66667 6.66667M2.66667 18.6667C2.66667 20.1395 5.94991 21.3333 10 21.3333C12.9187 21.3333 15.4391 20.7133 16.6195 19.8157M17.3333 12.6667C17.3333 14.1395 14.0501 15.3333 10 15.3333C5.94991 15.3333 2.66667 14.1395 2.66667 12.6667" stroke="white" stroke-width="2" stroke-linecap="round" stroke-linejoin="round"/>
</svg>
