<svg width="32" height="32" viewBox="0 0 32 32" fill="none" xmlns="http://www.w3.org/2000/svg">
<path d="M24 21.1159C25.9412 22.0911 27.6055 23.656 28.8203 25.6128C29.0608 26.0004 29.1811 26.1941 29.2227 26.4624C29.3072 27.0077 28.9344 27.678 28.4265 27.8939C28.1767 28 27.8955 28 27.3333 28M21.3333 15.3763C23.3089 14.3945 24.6667 12.3558 24.6667 10C24.6667 7.64419 23.3089 5.60548 21.3333 4.62368M18.6667 10C18.6667 13.3137 15.9803 16 12.6666 16C9.3529 16 6.66661 13.3137 6.66661 10C6.66661 6.68629 9.3529 4 12.6666 4C15.9803 4 18.6667 6.68629 18.6667 10ZM3.41225 25.2511C5.53799 22.0595 8.89243 20 12.6666 20C16.4408 20 19.7952 22.0595 21.9209 25.2511C22.3867 25.9504 22.6195 26.3 22.5927 26.7465C22.5719 27.0943 22.3439 27.52 22.066 27.7301C21.7092 28 21.2184 28 20.2368 28H5.09642C4.11483 28 3.62405 28 3.26719 27.7301C2.98934 27.52 2.76139 27.0943 2.74051 26.7465C2.71371 26.3 2.94655 25.9504 3.41225 25.2511Z" stroke="white" stroke-width="2" stroke-linecap="round" stroke-linejoin="round"/>
</svg>
