<svg width="20" height="20" viewBox="0 0 20 20" fill="none" xmlns="http://www.w3.org/2000/svg">
<path d="M4.99935 16.739H7.17459C7.45821 16.739 7.74008 16.7728 8.01502 16.8402L10.3134 17.3988C10.8121 17.5203 11.3317 17.532 11.8356 17.4342L14.3768 16.9398C15.0481 16.809 15.6657 16.4875 16.1496 16.0168L17.9476 14.2678C18.461 13.7692 18.461 12.96 17.9476 12.4606C17.4853 12.0108 16.7533 11.9603 16.2303 12.3416L14.1348 13.8704C13.8348 14.0898 13.4696 14.2078 13.0941 14.2078H11.0706H12.3586C13.0845 14.2078 13.6726 13.6358 13.6726 12.9296V12.6739C13.6726 12.0876 13.2623 11.5763 12.6778 11.4346L10.6898 10.9511C10.3663 10.8727 10.035 10.833 9.70193 10.833C8.89793 10.833 7.44259 11.4987 7.44259 11.4987L4.99935 12.5204M1.66602 12.1663V16.9997C1.66602 17.4664 1.66602 17.6998 1.75684 17.878C1.83674 18.0348 1.96422 18.1623 2.12102 18.2422C2.29928 18.333 2.53264 18.333 2.99935 18.333H3.66602C4.13272 18.333 4.36608 18.333 4.54434 18.2422C4.70114 18.1623 4.82862 18.0348 4.90852 17.878C4.99935 17.6998 4.99935 17.4664 4.99935 16.9997V12.1663C4.99935 11.6996 4.99935 11.4663 4.90852 11.288C4.82862 11.1312 4.70114 11.0038 4.54434 10.9238C4.36608 10.833 4.13272 10.833 3.66602 10.833H2.99935C2.53264 10.833 2.29928 10.833 2.12102 10.9238C1.96422 11.0038 1.83674 11.1312 1.75684 11.288C1.66602 11.4663 1.66602 11.6996 1.66602 12.1663Z" stroke="#737373" stroke-linecap="round" stroke-linejoin="round"/>
<path d="M12.2457 1.93433C12.3272 1.78278 12.3679 1.707 12.4232 1.68279C12.4714 1.66173 12.5273 1.66173 12.5754 1.68279C12.6308 1.707 12.6715 1.78278 12.753 1.93433L13.5264 3.37214C13.5504 3.41688 13.5624 3.43925 13.58 3.45662C13.5956 3.472 13.6143 3.48446 13.635 3.49331C13.6584 3.50331 13.6853 3.50692 13.7391 3.51413L15.4689 3.74618C15.651 3.77061 15.7421 3.78283 15.7842 3.82366C15.8209 3.85918 15.8381 3.908 15.8312 3.95651C15.8231 4.01228 15.7572 4.07123 15.6253 4.18911L14.3741 5.30756C14.3352 5.34241 14.3156 5.35988 14.3031 5.38062C14.2919 5.39895 14.2848 5.41914 14.282 5.44001C14.2789 5.46357 14.2835 5.48821 14.2927 5.53745L14.5879 7.11723C14.6191 7.28386 14.6346 7.36718 14.6054 7.41661C14.5799 7.45961 14.5347 7.4898 14.4822 7.49872C14.4219 7.50898 14.3404 7.46961 14.1774 7.39094L12.631 6.64457C12.5828 6.62133 12.5588 6.60971 12.5334 6.60513C12.5109 6.60108 12.4878 6.60108 12.4653 6.60513C12.4399 6.60971 12.4159 6.62133 12.3677 6.64457L10.8213 7.39094C10.6583 7.46961 10.5768 7.50898 10.5165 7.49872C10.464 7.4898 10.4188 7.45961 10.3933 7.41661C10.3641 7.36718 10.3796 7.28386 10.4108 7.11723L10.706 5.53745C10.7152 5.48821 10.7198 5.46357 10.7167 5.44001C10.7139 5.41914 10.7068 5.39895 10.6956 5.38062C10.6831 5.35988 10.6636 5.34241 10.6246 5.30756L9.37337 4.18911C9.2415 4.07123 9.17556 4.01228 9.16754 3.95651C9.16056 3.908 9.1778 3.85918 9.21447 3.82366C9.25662 3.78283 9.3477 3.77061 9.52985 3.74618L11.2596 3.51413C11.3134 3.50692 11.3403 3.50331 11.3637 3.49331C11.3844 3.48446 11.4031 3.472 11.4187 3.45662C11.4363 3.43925 11.4483 3.41688 11.4724 3.37214L12.2457 1.93433Z" stroke="#737373" stroke-linecap="round" stroke-linejoin="round"/>
</svg>
