<svg width="20" height="20" viewBox="0 0 20 20" fill="none" xmlns="http://www.w3.org/2000/svg">
<path d="M18.3337 8.33366H1.66699M9.16699 11.667H5.00033M1.66699 6.83366V13.167C1.66699 14.1004 1.66699 14.5672 1.84865 14.9237C2.00843 15.2372 2.2634 15.4922 2.57701 15.652C2.93353 15.8337 3.40023 15.8337 4.33366 15.8337H15.667C16.6004 15.8337 17.0672 15.8337 17.4237 15.652C17.7372 15.4922 17.9922 15.2372 18.152 14.9237C18.3337 14.5672 18.3337 14.1004 18.3337 13.167V6.83366C18.3337 5.90024 18.3337 5.43353 18.152 5.07701C17.9922 4.76341 17.7372 4.50844 17.4237 4.34865C17.0672 4.16699 16.6004 4.16699 15.667 4.16699H4.33366C3.40024 4.16699 2.93353 4.16699 2.57701 4.34865C2.26341 4.50843 2.00843 4.7634 1.84865 5.07701C1.66699 5.43353 1.66699 5.90023 1.66699 6.83366Z" stroke="#737373" stroke-linecap="round" stroke-linejoin="round"/>
</svg>
