<svg width="20" height="20" viewBox="0 0 20 20" fill="none" xmlns="http://www.w3.org/2000/svg">
<path d="M13.0384 15.0126C13.3957 16.3462 12.6043 17.7171 11.2707 18.0744C9.937 18.4317 8.56616 17.6403 8.2088 16.3067M1.71419 9.678C1.38961 8.51283 1.72715 7.25315 2.59081 6.4064M10.1221 4.78429C10.3756 4.3282 10.4591 3.77695 10.3134 3.23312C10.0156 2.12174 8.87325 1.46219 7.76183 1.75998C6.65045 2.05778 5.9909 3.20015 6.2887 4.31154C6.43441 4.85536 6.78236 5.291 7.22994 5.55924M16.9327 5.60025C16.6312 4.4289 15.709 3.50674 14.5377 3.20526M14.5757 7.87131C14.2782 6.7612 13.4842 5.8329 12.3681 5.29062C11.252 4.74835 9.90541 4.63651 8.6245 4.97973C7.34361 5.32295 6.23334 6.0931 5.53794 7.12075C4.84254 8.1484 4.61898 9.34941 4.91643 10.4595C5.40858 12.2962 5.31301 13.7615 5.00222 14.875C4.648 16.144 4.47089 16.7786 4.51873 16.906C4.57348 17.0517 4.61307 17.0917 4.75827 17.148C4.88518 17.1972 5.41832 17.0543 6.48461 16.7686L16.3722 14.1192C17.4384 13.8335 17.9716 13.6907 18.0569 13.5847C18.1545 13.4633 18.1688 13.4089 18.1433 13.2552C18.1211 13.121 17.6504 12.6601 16.7092 11.7382C15.8832 10.9292 15.0678 9.708 14.5757 7.87131Z" stroke="#737373" stroke-linecap="round" stroke-linejoin="round"/>
</svg>
