<svg width="20" height="20" viewBox="0 0 20 20" fill="none" xmlns="http://www.w3.org/2000/svg">
<path d="M9.4016 2.87781C9.5936 2.48869 9.68968 2.29414 9.82001 2.23197C9.93343 2.17789 10.0653 2.17789 10.1787 2.23197C10.3091 2.29414 10.4051 2.48869 10.5972 2.87781L12.4194 6.56944C12.4761 6.68432 12.5044 6.74176 12.5458 6.78636C12.5826 6.82584 12.6266 6.85784 12.6754 6.88056C12.7307 6.90623 12.794 6.91549 12.9208 6.93402L16.9968 7.5298C17.4261 7.59254 17.6407 7.6239 17.74 7.72874C17.8264 7.81995 17.867 7.94529 17.8506 8.06985C17.8317 8.21303 17.6763 8.36438 17.3656 8.66704L14.4172 11.5387C14.3253 11.6282 14.2793 11.673 14.2497 11.7263C14.2234 11.7734 14.2066 11.8252 14.2001 11.8788C14.1928 11.9393 14.2036 12.0025 14.2253 12.129L14.921 16.1851C14.9943 16.613 15.031 16.8269 14.9621 16.9538C14.9021 17.0642 14.7955 17.1417 14.6719 17.1646C14.5298 17.191 14.3378 17.0899 13.9536 16.8879L10.3097 14.9715C10.1961 14.9119 10.1393 14.882 10.0795 14.8703C10.0266 14.8599 9.9721 14.8599 9.91918 14.8703C9.85935 14.882 9.8026 14.9119 9.6891 14.9715L6.04511 16.8879C5.66095 17.0899 5.46885 17.191 5.32682 17.1646C5.20325 17.1417 5.09661 17.0642 5.03663 16.9538C4.96768 16.8269 5.00437 16.613 5.07774 16.1851L5.77342 12.129C5.7951 12.0025 5.80595 11.9393 5.79861 11.8788C5.79211 11.8252 5.77527 11.7734 5.74902 11.7263C5.71936 11.673 5.67341 11.6282 5.5815 11.5387L2.63315 8.66704C2.3224 8.36438 2.16702 8.21303 2.14812 8.06985C2.13167 7.94529 2.1723 7.81995 2.25872 7.72874C2.35805 7.6239 2.57265 7.59254 3.00188 7.5298L7.07794 6.93402C7.2047 6.91549 7.26808 6.90623 7.32328 6.88056C7.37215 6.85784 7.41615 6.82584 7.45284 6.78636C7.49427 6.74176 7.52262 6.68432 7.57932 6.56944L9.4016 2.87781Z" stroke="#737373" stroke-linecap="round" stroke-linejoin="round"/>
</svg>
