<svg width="255" height="139" viewBox="0 0 255 139" fill="none" xmlns="http://www.w3.org/2000/svg">
<g filter="url(#filter0_d_958_17468)">
<rect x="24" y="17.8716" width="209.082" height="206.514" rx="12" fill="white" shape-rendering="crispEdges"/>
<rect x="38.4189" y="32.291" width="45.7816" height="2.88388" fill="#213536"/>
<rect x="38.7803" y="43.1055" width="31.0017" height="1.80243" fill="#EF3131"/>
<rect x="38.4189" y="49.9551" width="180.243" height="13.6984" rx="2.88388" fill="#EFF5F5"/>
<path d="M166.392 49.9551H215.778C217.371 49.9551 218.662 51.2462 218.662 52.839V60.7696C218.662 62.3624 217.371 63.6535 215.778 63.6535H166.392V49.9551Z" fill="#B9308A"/>
<rect x="118.087" y="54.2812" width="38.2114" height="5.04679" rx="2.5234" fill="#EFF2FF"/>
<path d="M118.087 56.8046C118.087 55.411 119.217 54.2812 120.61 54.2812H145.844V59.328H120.61C119.217 59.328 118.087 58.1983 118.087 56.8046Z" fill="#60E5A3"/>
<rect x="46.7109" y="56.4443" width="38.2114" height="0.720971" rx="0.360485" fill="#213536"/>
<circle cx="105.109" cy="56.8045" r="4.68631" fill="#D0E1E2"/>
<rect x="38.4189" y="65.0947" width="180.243" height="13.6984" rx="2.88388" fill="#EFF5F5"/>
<path d="M166.392 65.0947H215.778C217.371 65.0947 218.662 66.3859 218.662 67.9786V75.9093C218.662 77.502 217.371 78.7932 215.778 78.7932H166.392V65.0947Z" fill="#1B3D9F"/>
<rect x="118.087" y="69.4209" width="38.2114" height="5.04679" rx="2.5234" fill="#EFF2FF"/>
<path d="M118.087 71.9443C118.087 70.5507 119.217 69.4209 120.61 69.4209H150.891V74.4677H120.61C119.217 74.4677 118.087 73.3379 118.087 71.9443Z" fill="#60E5A3"/>
<rect x="46.7109" y="71.583" width="29.9203" height="0.720971" rx="0.360485" fill="#213536"/>
<circle cx="105.109" cy="71.9441" r="4.68631" fill="#D0E1E2"/>
<rect x="38.4189" y="80.2354" width="180.243" height="13.6984" rx="2.88388" fill="#EFF5F5"/>
<path d="M166.392 80.2354H215.778C217.371 80.2354 218.662 81.5265 218.662 83.1192V91.0499C218.662 92.6426 217.371 93.9338 215.778 93.9338H166.392V80.2354Z" fill="#02AFAE"/>
<rect x="118.087" y="84.5615" width="38.2114" height="5.04679" rx="2.5234" fill="#EFF2FF"/>
<path d="M118.087 87.0849C118.087 85.6913 119.217 84.5615 120.61 84.5615H130.343V89.6083H120.61C119.217 89.6083 118.087 88.4786 118.087 87.0849Z" fill="#60E5A3"/>
<rect x="46.7109" y="86.7246" width="23.0711" height="0.720971" rx="0.360485" fill="#213536"/>
<circle cx="105.109" cy="87.0847" r="4.68631" fill="#D0E1E2"/>
<rect x="38.7803" y="101.864" width="31.0017" height="1.80243" fill="#FF7C00"/>
<rect x="38.4189" y="108.714" width="180.243" height="13.6984" rx="2.88388" fill="#EFF5F5"/>
<path d="M166.392 108.714H215.778C217.371 108.714 218.662 110.005 218.662 111.598V119.528C218.662 121.121 217.371 122.412 215.778 122.412H166.392V108.714Z" fill="#FECC16"/>
<rect x="118.087" y="113.04" width="38.2114" height="5.04679" rx="2.5234" fill="#EFF2FF"/>
<path d="M118.087 115.563C118.087 114.17 119.217 113.04 120.61 113.04H135.751V118.087H120.61C119.217 118.087 118.087 116.957 118.087 115.563Z" fill="#60E5A3"/>
<rect x="46.7109" y="115.202" width="38.2114" height="0.720971" rx="0.360485" fill="#213536"/>
<circle cx="105.109" cy="115.563" r="4.68631" fill="#D0E1E2"/>
<rect x="38.4189" y="123.854" width="180.243" height="13.6984" rx="2.88388" fill="#EFF5F5"/>
<path d="M166.392 123.854H215.778C217.371 123.854 218.662 125.145 218.662 126.737V134.668C218.662 136.261 217.371 137.552 215.778 137.552H166.392V123.854Z" fill="#FEA200"/>
<rect x="118.087" y="128.179" width="38.2114" height="5.04679" rx="2.5234" fill="#EFF2FF"/>
<path d="M118.087 130.702C118.087 129.308 119.217 128.179 120.61 128.179H150.531V133.226H120.61C119.217 133.226 118.087 132.096 118.087 130.702Z" fill="#60E5A3"/>
<rect x="46.7109" y="130.342" width="28.1179" height="0.720971" rx="0.360485" fill="#213536"/>
<circle cx="105.109" cy="130.703" r="4.68631" fill="#D0E1E2"/>
<rect x="38.4189" y="138.994" width="180.243" height="13.6984" rx="2.88388" fill="#EFF5F5"/>
<path d="M166.392 138.994H215.778C217.371 138.994 218.662 140.285 218.662 141.878V149.809C218.662 151.401 217.371 152.693 215.778 152.693H166.392V138.994Z" fill="#FF2531"/>
</g>
<defs>
<filter id="filter0_d_958_17468" x="-6" y="-4.12842" width="269.082" height="266.514" filterUnits="userSpaceOnUse" color-interpolation-filters="sRGB">
<feFlood flood-opacity="0" result="BackgroundImageFix"/>
<feColorMatrix in="SourceAlpha" type="matrix" values="0 0 0 0 0 0 0 0 0 0 0 0 0 0 0 0 0 0 127 0" result="hardAlpha"/>
<feOffset dy="8"/>
<feGaussianBlur stdDeviation="15"/>
<feComposite in2="hardAlpha" operator="out"/>
<feColorMatrix type="matrix" values="0 0 0 0 0 0 0 0 0 0 0 0 0 0 0 0 0 0 0.1 0"/>
<feBlend mode="normal" in2="BackgroundImageFix" result="effect1_dropShadow_958_17468"/>
<feBlend mode="normal" in="SourceGraphic" in2="effect1_dropShadow_958_17468" result="shape"/>
</filter>
</defs>
</svg>
