<svg width="33" height="32" viewBox="0 0 33 32" fill="none" xmlns="http://www.w3.org/2000/svg">
<path d="M21.9359 14.4C22.6026 14.4 23.1693 14.1667 23.6359 13.7C24.1026 13.2333 24.3359 12.6667 24.3359 12C24.3359 11.3333 24.1026 10.7667 23.6359 10.3C23.1693 9.83333 22.6026 9.6 21.9359 9.6C21.2693 9.6 20.7026 9.83333 20.2359 10.3C19.7693 10.7667 19.5359 11.3333 19.5359 12C19.5359 12.6667 19.7693 13.2333 20.2359 13.7C20.7026 14.1667 21.2693 14.4 21.9359 14.4ZM10.7359 14.4C11.4026 14.4 11.9693 14.1667 12.4359 13.7C12.9026 13.2333 13.1359 12.6667 13.1359 12C13.1359 11.3333 12.9026 10.7667 12.4359 10.3C11.9693 9.83333 11.4026 9.6 10.7359 9.6C10.0693 9.6 9.5026 9.83333 9.03594 10.3C8.56927 10.7667 8.33594 11.3333 8.33594 12C8.33594 12.6667 8.56927 13.2333 9.03594 13.7C9.5026 14.1667 10.0693 14.4 10.7359 14.4ZM16.3359 24.8C18.1493 24.8 19.7959 24.2867 21.2759 23.26C22.7559 22.2333 23.8293 20.88 24.4959 19.2H21.8559C21.2693 20.1867 20.4893 20.9667 19.5159 21.54C18.5426 22.1133 17.4826 22.4 16.3359 22.4C15.1893 22.4 14.1293 22.1133 13.1559 21.54C12.1826 20.9667 11.4026 20.1867 10.8159 19.2H8.17594C8.8426 20.88 9.91594 22.2333 11.3959 23.26C12.8759 24.2867 14.5226 24.8 16.3359 24.8ZM16.3359 32C14.1226 32 12.0426 31.58 10.0959 30.74C8.14927 29.9 6.45594 28.76 5.01594 27.32C3.57594 25.88 2.43594 24.1867 1.59594 22.24C0.755937 20.2933 0.335938 18.2133 0.335938 16C0.335938 13.7867 0.755937 11.7067 1.59594 9.76C2.43594 7.81333 3.57594 6.12 5.01594 4.68C6.45594 3.24 8.14927 2.1 10.0959 1.26C12.0426 0.42 14.1226 0 16.3359 0C18.5493 0 20.6293 0.42 22.5759 1.26C24.5226 2.1 26.2159 3.24 27.6559 4.68C29.0959 6.12 30.2359 7.81333 31.0759 9.76C31.9159 11.7067 32.3359 13.7867 32.3359 16C32.3359 18.2133 31.9159 20.2933 31.0759 22.24C30.2359 24.1867 29.0959 25.88 27.6559 27.32C26.2159 28.76 24.5226 29.9 22.5759 30.74C20.6293 31.58 18.5493 32 16.3359 32ZM16.3359 28.8C19.9093 28.8 22.9359 27.56 25.4159 25.08C27.8959 22.6 29.1359 19.5733 29.1359 16C29.1359 12.4267 27.8959 9.4 25.4159 6.92C22.9359 4.44 19.9093 3.2 16.3359 3.2C12.7626 3.2 9.73594 4.44 7.25594 6.92C4.77594 9.4 3.53594 12.4267 3.53594 16C3.53594 19.5733 4.77594 22.6 7.25594 25.08C9.73594 27.56 12.7626 28.8 16.3359 28.8Z" fill="#006B60"/>
</svg>
