<svg width="107" height="40" viewBox="0 0 107 40" fill="none" xmlns="http://www.w3.org/2000/svg">
<g clip-path="url(#clip0_264_2195)">
<path d="M48.8631 31.454C47.7705 31.0093 46.8138 30.2941 46.0863 29.3782C45.4173 28.5253 45.0203 27.4971 44.9451 26.423H50.1636C50.1899 26.7053 50.2781 26.9788 50.4219 27.2246C50.5658 27.4704 50.762 27.6828 50.9972 27.8473C51.5266 28.2202 52.1671 28.41 52.8182 28.3868C53.4764 28.3868 53.9855 28.2609 54.3453 28.0092C54.5124 27.9027 54.6495 27.7565 54.7439 27.5842C54.8382 27.4118 54.8868 27.2189 54.885 27.0232C54.885 26.5394 54.6277 26.1797 54.1132 25.9441C53.5986 25.7086 52.7655 25.4509 51.6138 25.1713C50.5656 24.9427 49.5346 24.6439 48.528 24.277C47.7041 23.9636 46.9726 23.4538 46.3994 22.7933C45.8025 22.1163 45.504 21.2018 45.504 20.0499C45.4962 19.105 45.7812 18.1802 46.3211 17.3981C46.8704 16.5997 47.6729 15.9702 48.7285 15.5098C49.7841 15.0494 51.0443 14.817 52.5092 14.8125C54.6698 14.8125 56.3722 15.3376 57.6164 16.3879C58.8606 17.4382 59.5752 18.8319 59.7601 20.5692H54.885C54.8543 20.2971 54.769 20.0338 54.6339 19.7944C54.4988 19.5549 54.3167 19.3443 54.0981 19.1745C53.6559 18.8319 53.0745 18.6602 52.354 18.6593C51.7369 18.6593 51.2641 18.7757 50.9354 19.0086C50.7777 19.114 50.6497 19.2568 50.5633 19.4237C50.4769 19.5907 50.4348 19.7764 50.441 19.9636C50.441 20.4482 50.7033 20.812 51.2279 21.0547C51.7525 21.2975 52.5705 21.5399 53.682 21.7817C54.7393 22.0381 55.7799 22.357 56.798 22.7367C57.6202 23.0635 58.3473 23.5853 58.9142 24.2554C59.5212 24.9523 59.8352 25.887 59.8563 27.0596C59.8688 28.0098 59.5714 28.9391 59.0076 29.7113C58.4418 30.49 57.6293 31.1011 56.57 31.5444C55.5107 31.9877 54.278 32.2102 52.8717 32.212C51.373 32.212 50.0368 31.9593 48.8631 31.454Z" fill="white"/>
<path d="M66.0828 31.454C64.9916 31.0081 64.0361 30.2931 63.3087 29.3782C62.6404 28.525 62.2434 27.4969 62.1675 26.423H67.386C67.4127 26.7053 67.5009 26.9786 67.6447 27.2244C67.7886 27.4702 67.9847 27.6826 68.2196 27.8473C68.7491 28.2201 69.3896 28.4098 70.0406 28.3868C70.6989 28.3868 71.2079 28.2609 71.5677 28.0092C71.7349 27.9027 71.872 27.7565 71.9663 27.5842C72.0607 27.4118 72.1092 27.2189 72.1074 27.0232C72.1074 26.5394 71.8506 26.1797 71.337 25.9441C70.8234 25.7086 69.9903 25.4509 68.8376 25.1713C67.789 24.9426 66.7575 24.6439 65.7504 24.277C64.9265 23.9636 64.195 23.4538 63.6218 22.7933C63.024 22.1163 62.7255 21.2018 62.7265 20.0499C62.7208 19.1043 63.0081 18.1795 63.5504 17.3981C64.0997 16.5997 64.9022 15.9702 65.9578 15.5098C67.0134 15.0494 68.2732 14.817 69.7371 14.8125C71.8978 14.8125 73.6002 15.3376 74.8444 16.3879C76.0886 17.4382 76.8036 18.8319 76.9895 20.5692H72.0978C72.0671 20.2971 71.9818 20.0338 71.8467 19.7944C71.7116 19.5549 71.5295 19.3443 71.3109 19.1745C70.8687 18.8319 70.2878 18.6602 69.5682 18.6593C68.9502 18.6593 68.4769 18.7757 68.1482 19.0086C67.9907 19.114 67.8629 19.2569 67.7767 19.4239C67.6905 19.5908 67.6487 19.7765 67.6552 19.9636C67.6552 20.4482 67.9175 20.812 68.4421 21.0547C68.9667 21.2975 69.7843 21.5399 70.8948 21.7817C71.9554 22.0391 72.9992 22.3593 74.0204 22.7407C74.8413 23.0668 75.5673 23.5872 76.1339 24.2554C76.7391 24.9523 77.0526 25.887 77.0746 27.0596C77.0848 28.0107 76.7845 28.9401 76.2177 29.7113C75.6519 30.49 74.8393 31.1011 73.7801 31.5444C72.7208 31.9877 71.4917 32.2102 70.0928 32.212C68.5913 32.212 67.2547 31.9593 66.0828 31.454Z" fill="white"/>
<path d="M85.5849 9.5415V31.9666H80.3073V9.5415H85.5849Z" fill="white"/>
<path d="M107 15.0581L96.1991 40.0001H90.5219L94.4715 31.3934L87.4677 15.0581H93.3618L97.3444 25.6354L101.294 15.0581H107Z" fill="white"/>
<path d="M10.025 19.3608H7.18918V31.9667H1.913V19.3608H0V15.0582H1.913V14.5672C1.913 12.4856 2.51999 10.9043 3.73398 9.82348C4.94797 8.74264 6.7273 8.20312 9.07196 8.20492C9.36024 8.20097 9.64855 8.21133 9.93576 8.23594V12.633C8.92868 12.5719 8.21915 12.7131 7.80716 13.0566C7.39517 13.4 7.18918 14.0164 7.18918 14.9058V15.0582H10.025V19.3608Z" fill="white"/>
<path d="M17.7731 9.5415V31.9666H12.497V9.5415H17.7731Z" fill="white"/>
<path d="M31.9675 14.6305C30.2934 12.6464 30.1822 9.67367 31.4072 7.42253C31.98 6.38733 32.8083 5.50989 33.8159 4.8706C35.6056 3.7309 37.7721 3.30851 39.8694 3.6904C40.7991 3.86304 41.7165 4.20429 42.4608 4.80451C42.8716 5.12299 43.2106 5.52183 43.4562 5.97576C43.7018 6.42968 43.8488 6.92878 43.8876 7.44141C43.9105 7.90373 43.8215 8.36479 43.6279 8.7868C43.4343 9.20881 43.1416 9.57976 42.7739 9.86925C42.3846 10.1727 41.9144 10.3596 41.4198 10.4074C40.9251 10.4553 40.4269 10.3621 39.9847 10.139C37.8658 9.09099 37.1874 6.33944 37.7765 4.22722C38.2365 2.40634 39.6607 0.798572 41.5132 0.269842C43.5965 -0.370838 46.0561 0.161938 47.5379 1.76566C48.1451 2.43037 48.6007 3.21492 48.8741 4.06671C49.7228 6.69552 49.2861 9.79102 48.1394 12.2661C48.3295 11.6101 48.474 10.9423 48.5719 10.2671C48.8892 7.958 48.7601 5.16464 47.3689 3.20888L47.314 3.13199L47.2563 3.05916C47.1465 2.91619 47.0105 2.76782 46.8883 2.63699C45.6523 1.35697 43.6185 0.980659 41.9513 1.55795C41.0484 1.86794 40.2865 2.48198 39.8007 3.29115C38.8394 4.80451 38.8477 7.16895 40.1839 8.41659C40.5656 8.77537 41.1081 9.02895 41.6025 8.79695C41.7988 8.69613 41.9683 8.55147 42.0973 8.37461C42.2264 8.19774 42.3113 7.9936 42.3454 7.77861C42.421 7.29034 42.2397 6.79264 41.954 6.38395C41.6912 6.02839 41.3493 5.73639 40.9543 5.53016C40.2964 5.18961 39.5779 4.97667 38.8381 4.90297C37.8784 4.7946 36.9064 4.87321 35.9777 5.13428C35.049 5.39535 34.1819 5.83376 33.4259 6.42442C30.9993 8.33971 30.3635 12.003 31.9675 14.6305Z" fill="#60E5A3"/>
<path d="M39.2665 6.80066L37.7023 6.94903C37.56 6.25969 37.5419 5.55118 37.6488 4.85569C38.0483 4.83542 38.4488 4.8476 38.8463 4.89211C38.9616 4.90559 39.0784 4.92178 39.1965 4.94066C39.0917 5.55894 39.1155 6.19167 39.2665 6.80066Z" fill="url(#paint0_linear_264_2195)"/>
<path d="M41.001 2.03782C40.5151 2.36574 40.1078 2.79382 39.8076 3.2922C39.7362 3.4055 39.6703 3.52285 39.6098 3.64424C39.0771 3.56343 38.5375 3.53496 37.999 3.55927C38.357 2.65131 38.9439 1.84749 39.7046 1.22314L41.001 2.03782Z" fill="url(#paint1_linear_264_2195)"/>
<path d="M41.5654 19.6437C41.2138 23.1522 40.0152 26.5277 38.069 29.49C37.5573 30.2523 36.9313 30.9344 36.2123 31.5132C35.1782 32.3616 33.9546 31.9799 33.5111 30.7214C33.2515 29.9836 33.1114 29.2054 32.9123 28.4474C32.862 28.2754 32.8014 28.1066 32.731 27.9416C32.6628 27.746 32.5327 27.5771 32.3598 27.4594C32.1868 27.3417 31.9801 27.2814 31.7697 27.2874C31.5665 27.2854 31.3683 27.3494 31.2059 27.4694C31.0435 27.5894 30.926 27.7587 30.8716 27.951C30.6738 28.5027 30.5695 29.0853 30.4019 29.6491C30.255 30.1482 30.1355 30.6688 29.8952 31.1261C29.4832 31.9057 28.6098 32.1444 27.7968 31.7722C26.9838 31.3999 26.3905 30.7295 25.8838 30.0187C24.1631 27.6003 23.0795 24.9054 22.4272 22.0419C22.2899 21.4309 22.1951 20.8078 22.1224 20.279C21.9795 19.2918 21.9906 18.2889 22.1553 17.3049C22.3411 16.0797 22.859 14.9262 23.6549 13.9653C25.0145 12.3333 27.0703 11.9596 28.9407 13.0023C29.4612 13.2922 29.9666 13.6294 30.5228 13.8264C31.7409 14.2593 32.8917 14.0327 34.0151 13.4082C34.7141 13.0211 35.4666 12.63 36.2412 12.4911C38.1143 12.1552 39.4244 13.1075 40.4077 14.575C41.4349 16.118 41.7481 17.8458 41.5654 19.6437Z" fill="white"/>
<path d="M26.418 21.0738L27.6293 19.8882C30.2742 22.2445 33.7789 21.9505 36.0063 19.903L37.2162 21.0414C34.8143 23.7012 29.6851 24.3001 26.418 21.0738Z" fill="#60E5A3"/>
</g>
<defs>
<linearGradient id="paint0_linear_264_2195" x1="38.3862" y1="4.88401" x2="38.4551" y2="7.59382" gradientUnits="userSpaceOnUse">
<stop stop-color="#60B5A3"/>
<stop offset="0.19" stop-color="#60C9A3"/>
<stop offset="0.4" stop-color="#60D9A3"/>
<stop offset="0.65" stop-color="#60E2A3"/>
<stop offset="1" stop-color="#60E5A3"/>
</linearGradient>
<linearGradient id="paint1_linear_264_2195" x1="38.86" y1="3.69415" x2="40.3147" y2="1.34654" gradientUnits="userSpaceOnUse">
<stop stop-color="#60B5A3"/>
<stop offset="0.19" stop-color="#60C9A3"/>
<stop offset="0.4" stop-color="#60D9A3"/>
<stop offset="0.65" stop-color="#60E2A3"/>
<stop offset="1" stop-color="#60E5A3"/>
</linearGradient>
<clipPath id="clip0_264_2195">
<rect width="107" height="40" fill="white"/>
</clipPath>
</defs>
</svg>
