<svg xmlns="http://www.w3.org/2000/svg" xmlns:xlink="http://www.w3.org/1999/xlink" viewBox="0 0 1000 1000"><defs><style>.cls-1{fill:#fff;}.cls-2{fill:#60e5a3;}.cls-3{fill:#213536;}.cls-4{fill:url(#linear-gradient);}.cls-5{fill:url(#linear-gradient-2);}</style><linearGradient id="linear-gradient" x1="564.38" y1="241.89" x2="616.05" y2="281.93" gradientUnits="userSpaceOnUse"><stop offset="0" stop-color="#60b5a3"/><stop offset="0.19" stop-color="#60c9a3"/><stop offset="0.4" stop-color="#60d9a3"/><stop offset="0.65" stop-color="#60e2a3"/><stop offset="1" stop-color="#60e5a3"/></linearGradient><linearGradient id="linear-gradient-2" x1="530.14" y1="227.44" x2="438.21" y2="229.04" xlink:href="#linear-gradient"/></defs><g id="Layer_2" data-name="Layer 2"><g id="Layer_1-2" data-name="Layer 1"><rect class="cls-1" width="1000" height="1000"/><path class="cls-2" d="M387.59,475.44C354.66,430.63,342.08,374.69,353.07,322c9.43-45.24,35.07-82.93,70.35-103.41,32.74-19,72.83-22.76,114.1-11,21.49-40.15,55.33-68.76,92.86-78.5,37.28-9.67,78.33-1,115.59,24.44,48.3,33,83.81,90.18,90.47,145.77,9.26,77.38-35.92,136.23-55.78,157.94l-32.89-30.07c12.26-13.41,51.68-61.85,44.41-122.57C787,261.22,759,216.38,720.84,190.34c-26.47-18.07-54.63-24.5-79.26-18.1-24.39,6.32-47,25.37-62.63,52.53,36.79,20.38,66,51.57,78,84.63,15.48,42.81-5.22,79.19-32.55,91.68-13.86,6.33-30.4,6-46.58-.87-24.44-10.43-44.5-33.7-55-63.87-9.11-26.09-9.47-56.74-1.63-87-20.38-5.12-49.13-7.48-75.35,7.74-24.34,14.13-42.24,41.09-49.09,74-8.41,40.35,1.36,83.36,26.81,118ZM562.84,266.92c-4.08,19.58-3.54,38.84,2,54.73,7.43,21.29,20.6,33.36,30.44,37.56,5.15,2.19,8.83,2.13,10.57,1.33,7.9-3.61,16-17.16,9.16-36C607.29,303.16,587.66,282,562.84,266.92Z"/><path class="cls-3" d="M621.11,580.18c-8.42,84.92-36.17,163.64-82.05,235.45-11.55,18.06-27.07,34.46-43.59,48.27-24.28,20.27-53,11.14-63.41-18.93-6.09-17.62-9.38-36.22-14.07-54.35a101.27,101.27,0,0,0-4.25-12.08c-4.1-10.13-11.8-15.53-22.61-15.62S373.21,769.6,370,778.77c-4.62,13.19-7.09,27.1-11,40.56-3.48,11.94-6.27,24.4-11.9,35.31-9.61,18.65-30.19,24.35-49.26,15.43-19.47-9.1-33-24.89-44.92-41.89-40.37-57.8-65.82-122.22-81.12-190.65-3.26-14.61-5.46-29.48-7.17-42.13a234.23,234.23,0,0,1,.79-71.07c5.3-31.2,16.35-56.8,35.19-79.83,31.9-39,80.18-47.95,124.09-23,12.2,6.92,24.07,15,37.11,19.7,28.6,10.35,55.62,4.93,82-10,16.42-9.27,34.08-18.6,52.26-21.93,44-8,74.74,14.73,97.8,49.8C618.06,495.92,625.36,537.2,621.11,580.18Z"/><path class="cls-4" d="M562.84,266.92s6.59-31,16.11-42.15c0,0,32.65,19.56,45.8,34.9l-21.28,43.66S577.13,278.14,562.84,266.92Z"/><path class="cls-5" d="M537.52,207.59s-16.13,29-16.38,41.77c0,0-49.93-11.41-72.81,6.33L436.8,211.81S473,191.4,537.52,207.59Z"/><path class="cls-2" d="M265.56,614.35,294,586c62.1,56.31,144.35,49.3,196.63.36L519,613.45C462.65,677.14,342.25,691.46,265.56,614.35Z"/></g></g></svg>