<svg xmlns="http://www.w3.org/2000/svg" xmlns:xlink="http://www.w3.org/1999/xlink" viewBox="0 0 675.35 749.52"><defs><style>.cls-1{fill:#60e5a3;}.cls-2{fill:#213536;}.cls-3{fill:url(#linear-gradient);}.cls-4{fill:url(#linear-gradient-2);}</style><linearGradient id="linear-gradient" x1="402.05" y1="116.65" x2="453.73" y2="156.69" gradientUnits="userSpaceOnUse"><stop offset="0" stop-color="#60b5a3"/><stop offset="0.19" stop-color="#60c9a3"/><stop offset="0.4" stop-color="#60d9a3"/><stop offset="0.65" stop-color="#60e2a3"/><stop offset="1" stop-color="#60e5a3"/></linearGradient><linearGradient id="linear-gradient-2" x1="367.81" y1="102.2" x2="275.89" y2="103.8" xlink:href="#linear-gradient"/></defs><g id="Layer_2" data-name="Layer 2"><g id="Layer_1-2" data-name="Layer 1"><path class="cls-1" d="M225.27,350.2c-32.93-44.81-45.52-100.76-34.53-153.48,9.44-45.24,35.08-82.93,70.35-103.41,32.74-19,72.83-22.77,114.11-11,21.48-40.14,55.32-68.75,92.86-78.49,37.27-9.67,78.32-1,115.58,24.44,48.3,33,83.82,90.18,90.47,145.76,9.27,77.39-35.92,136.24-55.77,158l-32.9-30.08c12.26-13.4,51.69-61.84,44.42-122.57-5.2-43.37-33.2-88.22-71.35-114.25C532,47,503.89,40.6,479.25,47c-24.39,6.33-47,25.37-62.62,52.54,36.78,20.38,66,51.57,78,84.62,15.48,42.82-5.22,79.19-32.55,91.69-13.86,6.33-30.4,6-46.57-.88C391,264.54,371,241.27,360.44,211.1c-9.11-26.09-9.46-56.74-1.62-87-20.39-5.12-49.14-7.48-75.35,7.74C259.12,146,241.23,173,234.38,205.81c-8.42,40.36,1.35,83.36,26.8,118ZM400.51,141.68c-4.08,19.58-3.54,38.84,2,54.73C410,217.7,423.12,229.77,433,234c5.15,2.2,8.84,2.13,10.57,1.34,7.91-3.61,16-17.17,9.17-36C445,177.92,425.34,156.72,400.51,141.68Z"/><path class="cls-2" d="M458.78,454.94c-8.42,84.92-36.17,163.64-82,235.44-11.54,18.07-27.07,34.46-43.59,48.28-24.27,20.27-53,11.14-63.4-18.93-6.1-17.62-9.38-36.22-14.08-54.35a103,103,0,0,0-4.24-12.08c-4.11-10.14-11.8-15.53-22.62-15.63s-17.92,6.69-21.11,15.86c-4.62,13.18-7.08,27.1-11,40.56-3.47,11.94-6.26,24.4-11.89,35.3-9.62,18.65-30.19,24.35-49.26,15.44-19.47-9.1-33-24.89-44.93-41.9C50.24,645.13,24.79,580.72,9.5,512.29,6.24,497.68,4,482.81,2.32,470.16a234.62,234.62,0,0,1,.8-71.08c5.3-31.19,16.35-56.79,35.18-79.82,31.91-39,80.18-47.95,124.1-23,12.19,6.92,24.06,15,37.11,19.7,28.59,10.34,55.61,4.93,82-10,16.42-9.27,34.08-18.61,52.26-21.94,44-8,74.74,14.74,97.8,49.8C455.74,370.68,463,412,458.78,454.94Z"/><path class="cls-3" d="M400.51,141.68s6.6-31,16.12-42.15c0,0,32.64,19.55,45.79,34.9l-21.27,43.65S414.81,152.9,400.51,141.68Z"/><path class="cls-4" d="M375.2,82.34s-16.13,29-16.38,41.78c0,0-49.93-11.41-72.82,6.33L274.48,86.57S310.69,66.15,375.2,82.34Z"/><path class="cls-1" d="M103.23,489.11c9.85-9.81,19.15-19.07,28.43-28.34,62.09,56.32,144.35,49.31,196.62.37l28.41,27.07C300.32,551.9,179.92,566.22,103.23,489.11Z"/></g></g></svg>