<svg width="244" height="91" viewBox="0 0 244 91" fill="none" xmlns="http://www.w3.org/2000/svg">
<path d="M111.003 71.2306C108.339 70.0638 106.236 68.4686 104.695 66.4449C103.169 64.4647 102.267 62.0757 102.102 59.5816H113.957C114.016 60.2348 114.216 60.8676 114.543 61.4363C114.87 62.005 115.316 62.4962 115.851 62.876C117.052 63.7439 118.507 64.1883 119.988 64.1395C121.483 64.1395 122.639 63.8473 123.457 63.2628C123.837 63.0175 124.148 62.68 124.363 62.2818C124.577 61.8836 124.687 61.4377 124.683 60.9854C124.683 59.8623 124.096 59.0356 122.93 58.4897C121.763 57.9437 119.869 57.3572 117.252 56.7021C114.87 56.1762 112.527 55.4851 110.242 54.6337C108.37 53.9088 106.708 52.7295 105.406 51.202C104.05 49.64 103.372 47.5259 103.372 44.8596C103.354 42.6742 104.002 40.535 105.228 38.7262C106.476 36.8793 108.299 35.4235 110.697 34.3586C113.095 33.2937 115.955 32.7582 119.276 32.752C124.185 32.752 128.052 33.9676 130.879 36.3989C133.705 38.8302 135.328 42.0539 135.748 46.07H124.673C124.604 45.4407 124.41 44.8314 124.104 44.2777C123.797 43.7239 123.383 43.2366 122.886 42.8443C121.881 42.0518 120.561 41.6546 118.924 41.6525C117.522 41.6525 116.448 41.9208 115.701 42.4574C115.344 42.7017 115.053 43.0321 114.857 43.4181C114.661 43.8041 114.565 44.2333 114.578 44.6662C114.578 45.7893 115.174 46.6306 116.366 47.19C117.557 47.7495 119.416 48.31 121.941 48.8716C124.343 49.4644 126.706 50.202 129.019 51.0803C130.889 51.8355 132.544 53.0412 133.836 54.59C135.215 56.2039 135.928 58.3649 135.976 61.0728C136.005 63.2706 135.329 65.4199 134.048 67.2062C132.763 69.0073 130.917 70.4215 128.511 71.449C126.104 72.4764 123.304 72.9922 120.109 72.9964C116.705 72.9964 113.669 72.4078 111.003 71.2306Z" fill="white"/>
<path d="M150.121 71.2306C147.643 70.2052 145.472 68.5566 143.819 66.4449C142.292 64.465 141.386 62.0764 141.217 59.5816H153.072C153.132 60.2346 153.332 60.8671 153.659 61.4357C153.986 62.0043 154.432 62.4956 154.966 62.876C156.166 63.7486 157.623 64.1974 159.106 64.1519C160.601 64.1519 161.758 63.8597 162.575 63.2753C162.955 63.03 163.267 62.6925 163.481 62.2943C163.695 61.8961 163.805 61.4501 163.801 60.9979C163.801 59.8748 163.218 59.0481 162.051 58.5021C160.884 57.9562 158.987 57.3697 156.373 56.7145C153.99 56.1886 151.647 55.4975 149.36 54.6462C147.488 53.9213 145.826 52.742 144.524 51.2145C143.166 49.6525 142.488 47.5384 142.49 44.8721C142.477 42.685 143.13 40.5458 144.362 38.7387C145.61 36.8918 147.433 35.436 149.831 34.3711C152.229 33.3062 155.082 32.7665 158.391 32.752C163.3 32.752 167.167 33.9676 169.994 36.3989C172.82 38.8302 174.444 42.0539 174.867 46.07H163.785C163.716 45.4407 163.522 44.8314 163.215 44.2777C162.909 43.7239 162.495 43.2366 161.998 42.8443C160.993 42.0518 159.674 41.6546 158.039 41.6525C156.635 41.6525 155.56 41.9208 154.813 42.4574C154.456 42.7019 154.166 43.0324 153.97 43.4184C153.775 43.8045 153.679 44.2336 153.693 44.6662C153.693 45.7893 154.289 46.6306 155.481 47.19C156.672 47.7495 158.53 48.31 161.052 48.8716C163.455 49.4644 165.82 50.202 168.134 51.0803C170 51.8373 171.65 53.0428 172.939 54.59C174.313 56.2039 175.026 58.3649 175.076 61.0728C175.102 63.2689 174.425 65.4158 173.145 67.1999C171.859 69.001 170.013 70.4153 167.607 71.4427C165.201 72.4702 162.41 72.988 159.234 72.9964C155.821 72.9964 152.783 72.4078 150.121 71.2306Z" fill="white"/>
<path d="M194.424 20.5503V72.4219H182.435V20.5503H194.424Z" fill="white"/>
<path d="M243.073 33.3074L218.536 91.0004H205.64L214.612 71.0903L198.701 33.3074H212.091L221.138 57.7722L230.111 33.3074H243.073Z" fill="white"/>
<path d="M22.774 43.2621H16.3317V72.4221H4.34577V43.2621H0V33.307H4.34577V32.1871C4.34577 27.364 5.72469 23.7045 8.48252 21.2088C11.2404 18.713 15.2825 17.4651 20.6089 17.4651C21.498 17.4651 22.1687 17.49 22.5712 17.5337V27.7009C20.2834 27.5595 18.6715 27.886 17.7356 28.6805C16.7997 29.475 16.3317 30.9007 16.3317 32.9576V33.307H22.774V43.2621Z" fill="white"/>
<path d="M40.3754 20.5503V72.4219H28.3895V20.5503H40.3754Z" fill="white"/>
<path d="M71.7941 33.8373C70.2291 31.7368 69.1232 29.3306 68.5481 26.7751C67.973 24.2195 67.9417 21.5715 68.456 19.0031C69.367 14.6354 71.8441 10.9916 75.2539 9.01994C78.4173 7.18555 82.292 6.83614 86.2821 7.96236C88.3568 4.08142 91.6262 1.31735 95.2544 0.375195C98.8827 -0.566961 102.823 0.281603 106.423 2.73682C111.103 5.92206 114.534 11.4533 115.158 16.8224C116.054 24.3097 111.686 29.9876 109.767 32.0872L106.588 29.1796C107.774 27.8849 111.58 23.2022 110.881 17.3246C110.379 13.1317 107.674 8.79844 103.987 6.28083C101.428 4.5369 98.708 3.91608 96.3276 4.53378C93.9473 5.15149 91.7822 6.98276 90.2754 9.60957C93.8287 11.5781 96.6552 14.6011 97.8095 17.7864C99.307 21.9231 97.3072 25.439 94.6648 26.6464C93.3265 27.2703 91.7292 27.2298 90.1662 26.5621C87.8014 25.5545 85.8641 23.3051 84.8471 20.3913C83.9642 17.8706 83.9299 14.9069 84.688 11.9868C82.7194 11.4908 79.9397 11.263 77.4065 12.7324C75.0543 14.0989 73.3259 16.7038 72.6645 19.8797C72.273 21.8556 72.3012 23.8918 72.7473 25.8562C73.1933 27.8206 74.0474 29.6692 75.2539 31.2823L71.7941 33.8373ZM88.728 13.687C88.3153 15.4402 88.3821 17.2721 88.9214 18.9906C89.639 21.0465 90.9118 22.2132 91.8633 22.6188C92.1745 22.79 92.5391 22.8368 92.8835 22.7498C93.6478 22.4004 94.4277 21.0901 93.7695 19.2713C93.0239 17.1874 91.1271 15.1408 88.728 13.687Z" fill="#60E5A3"/>
<path d="M94.3591 43.9577C93.5598 52.0657 90.8367 59.8659 86.4163 66.7098C85.2565 68.4732 83.8365 70.0509 82.2047 71.3894C79.8586 73.3486 77.0821 72.4657 76.0775 69.5612C75.4879 67.8579 75.1697 66.0609 74.7173 64.3076C74.6054 63.9106 74.4689 63.5209 74.3086 63.1409C74.1532 62.6892 73.8574 62.2991 73.4646 62.0275C73.0717 61.7558 72.6023 61.6169 72.1248 61.6309C71.0829 61.6309 70.3934 62.2767 70.0845 63.1627C69.6384 64.4387 69.4013 65.7833 69.0207 67.0842C68.6869 68.2385 68.4155 69.4396 67.8727 70.494C66.9367 72.2972 64.9557 72.8463 63.112 71.9853C61.2682 71.1242 59.9205 69.58 58.7724 67.9296C54.8697 62.3422 52.4113 56.1184 50.9326 49.5046C50.6206 48.0944 50.4053 46.6563 50.24 45.4333C49.9157 43.155 49.9409 40.8406 50.3149 38.5699C50.736 35.7398 51.9106 33.0751 53.7154 30.8549C56.7976 27.0862 61.4647 26.2221 65.7076 28.6305C66.8868 29.3012 68.0349 30.0812 69.2952 30.5367C72.0562 31.535 74.6674 31.0109 77.2162 29.5695C78.8135 28.6648 80.52 27.7601 82.2764 27.4481C86.5255 26.6713 89.4986 28.8707 91.726 32.2587C94.0627 35.8152 94.7678 39.8053 94.3591 43.9577Z" fill="white"/>
<path d="M88.728 13.6869C88.728 13.6869 89.352 10.692 90.2879 9.61255C90.2879 9.61255 93.4419 11.5031 94.7116 12.985L92.6557 17.2028C92.6557 17.2028 90.11 14.7694 88.728 13.6869Z" fill="url(#paint0_linear_12_129)"/>
<path d="M86.2821 7.95325C86.2821 7.95325 84.7223 10.761 84.6973 11.9902C84.6973 11.9902 79.8742 10.8858 77.6623 12.6141L76.5486 8.37441C76.5486 8.37441 80.0489 6.38715 86.2821 7.95325Z" fill="url(#paint1_linear_12_129)"/>
<path d="M59.9985 47.2585L62.747 44.5225C68.7462 49.9633 76.6952 49.2863 81.7461 44.5568L84.4914 47.1711C79.0444 53.3419 67.4109 54.7115 59.9985 47.2585Z" fill="#60E5A3"/>
<defs>
<linearGradient id="paint0_linear_12_129" x1="88.8746" y1="11.266" x2="93.8693" y2="15.1345" gradientUnits="userSpaceOnUse">
<stop stop-color="#60B5A3"/>
<stop offset="0.19" stop-color="#60C9A3"/>
<stop offset="0.4" stop-color="#60D9A3"/>
<stop offset="0.65" stop-color="#60E2A3"/>
<stop offset="1" stop-color="#60E5A3"/>
</linearGradient>
<linearGradient id="paint1_linear_12_129" x1="85.5677" y1="9.87188" x2="76.6827" y2="10.0247" gradientUnits="userSpaceOnUse">
<stop stop-color="#60B5A3"/>
<stop offset="0.19" stop-color="#60C9A3"/>
<stop offset="0.4" stop-color="#60D9A3"/>
<stop offset="0.65" stop-color="#60E2A3"/>
<stop offset="1" stop-color="#60E5A3"/>
</linearGradient>
</defs>
</svg>
