<svg xmlns="http://www.w3.org/2000/svg" xmlns:xlink="http://www.w3.org/1999/xlink" viewBox="0 0 779.15 291.71"><defs><style>.cls-1{fill:#213536;}.cls-2{fill:#60e5a3;}.cls-3{fill:url(#linear-gradient);}.cls-4{fill:url(#linear-gradient-2);}</style><linearGradient id="linear-gradient" x1="284.88" y1="36.13" x2="300.89" y2="48.53" gradientUnits="userSpaceOnUse"><stop offset="0" stop-color="#60b5a3"/><stop offset="0.19" stop-color="#60c9a3"/><stop offset="0.4" stop-color="#60d9a3"/><stop offset="0.65" stop-color="#60e2a3"/><stop offset="1" stop-color="#60e5a3"/></linearGradient><linearGradient id="linear-gradient-2" x1="274.28" y1="31.66" x2="245.8" y2="32.15" xlink:href="#linear-gradient"/></defs><g id="Layer_2" data-name="Layer 2"><g id="Layer_1-2" data-name="Layer 1"><path class="cls-1" d="M355.81,228.34Q343,222.73,335.59,213A40.42,40.42,0,0,1,327.28,191h38a14.56,14.56,0,0,0,6.07,10.56,21.43,21.43,0,0,0,13.26,4.05q7.19,0,11.12-2.81a8.59,8.59,0,0,0,3.93-7.3c0-3.6-1.88-6.25-5.62-8s-9.81-3.63-18.2-5.73a168.36,168.36,0,0,1-22.47-6.63,38.76,38.76,0,0,1-15.5-11q-6.52-7.51-6.52-20.33a34.53,34.53,0,0,1,5.95-19.66q6-8.88,17.53-14T382.33,105q23.6,0,37.19,11.69t15.61,31h-35.5a15.31,15.31,0,0,0-5.73-10.34q-4.83-3.81-12.7-3.82-6.74,0-10.33,2.58a8.27,8.27,0,0,0-3.6,7.08q0,5.4,5.73,8.09t17.87,5.39a196.61,196.61,0,0,1,22.69,7.08A39.24,39.24,0,0,1,429,175q6.63,7.76,6.86,20.78a33,33,0,0,1-6.18,19.66q-6.18,8.66-17.75,13.6T385,234Q368.63,234,355.81,228.34Z"/><path class="cls-1" d="M481.2,228.34A49.87,49.87,0,0,1,461,213,40.5,40.5,0,0,1,452.66,191h38a14.6,14.6,0,0,0,6.07,10.56A21.45,21.45,0,0,0,510,205.65q7.19,0,11.12-2.81a8.59,8.59,0,0,0,3.93-7.3c0-3.6-1.87-6.25-5.61-8s-9.82-3.63-18.2-5.73a168.55,168.55,0,0,1-22.48-6.63,38.76,38.76,0,0,1-15.5-11q-6.53-7.51-6.52-20.33a34.54,34.54,0,0,1,6-19.66q6-8.88,17.53-14T507.71,105q23.6,0,37.19,11.69t15.62,31H525a15.31,15.31,0,0,0-5.73-10.34q-4.83-3.81-12.69-3.82-6.75,0-10.34,2.58a8.26,8.26,0,0,0-3.59,7.08q0,5.4,5.73,8.09t17.86,5.39a196.85,196.85,0,0,1,22.7,7.08A39.24,39.24,0,0,1,554.34,175q6.61,7.76,6.85,20.78A33,33,0,0,1,555,215.42q-6.18,8.66-17.75,13.6T510.41,234Q494,234,481.2,228.34Z"/><path class="cls-1" d="M623.21,65.89V232.16H584.78V65.89Z"/><path class="cls-1" d="M779.15,106.78,700.5,291.71H659.16l28.76-63.82-51-121.11h42.92l29,78.42,28.76-78.42Z"/><path class="cls-1" d="M73,138.69H52.35v93.47H13.93V138.69H0V106.78H13.93v-3.59Q13.93,80,27.19,68T66.06,56c2.85,0,5,.08,6.29.22V88.81q-11-.68-15.5,3.14t-4.5,13.71v1.12H73Z"/><path class="cls-1" d="M129.42,65.89V232.16H91V65.89Z"/><path class="cls-2" d="M230.13,108.48a59.9,59.9,0,0,1-10.7-47.55c2.92-14,10.86-25.68,21.79-32,10.14-5.88,22.56-7,35.35-3.39,6.65-12.44,17.13-21.3,28.76-24.32s24.26-.3,35.8,7.57c15,10.21,26,27.94,28,45.15,2.87,24-11.13,42.2-17.28,48.93l-10.19-9.32c3.8-4.15,16-19.16,13.76-38-1.61-13.44-10.28-27.33-22.1-35.4-8.2-5.59-16.92-7.58-24.55-5.6s-14.57,7.85-19.4,16.27c11.39,6.31,20.45,16,24.15,26.21,4.8,13.26-1.61,24.53-10.08,28.4-4.29,2-9.41,1.87-14.42-.27-7.58-3.23-13.79-10.44-17.05-19.78-2.83-8.08-2.94-17.58-.51-26.94-6.31-1.59-15.22-2.32-23.34,2.39-7.54,4.38-13.08,12.73-15.2,22.91a46.07,46.07,0,0,0,8.3,36.55Zm54.28-64.59a32.16,32.16,0,0,0,.62,17c2.3,6.59,6.38,10.33,9.43,11.63a4.5,4.5,0,0,0,3.27.42c2.45-1.12,4.95-5.32,2.84-11.15C298.18,55.11,292.1,48.55,284.41,43.89Z"/><path class="cls-1" d="M302.46,140.92A164.09,164.09,0,0,1,277,213.85a67.06,67.06,0,0,1-13.5,15c-7.52,6.28-16.42,3.45-19.64-5.86-1.89-5.46-2.91-11.22-4.36-16.84a31.9,31.9,0,0,0-1.31-3.74,7.18,7.18,0,0,0-7-4.84c-3.34,0-5.55,2.07-6.54,4.91-1.43,4.09-2.19,8.4-3.41,12.57-1.07,3.7-1.94,7.55-3.68,10.93-3,5.78-9.35,7.54-15.26,4.78s-10.23-7.71-13.91-13c-12.51-17.91-20.39-37.86-25.13-59.06-1-4.52-1.69-9.13-2.22-13.05a72.51,72.51,0,0,1,.24-22,51.14,51.14,0,0,1,10.9-24.73c9.88-12.08,24.84-14.85,38.44-7.13,3.78,2.15,7.46,4.65,11.5,6.11,8.85,3.2,17.22,1.52,25.39-3.1C252.63,91.9,258.1,89,263.73,88c13.62-2.49,23.15,4.56,30.29,15.42C301.51,114.82,303.77,127.61,302.46,140.92Z"/><path class="cls-3" d="M284.41,43.89s2-9.6,5-13.06c0,0,10.11,6.06,14.18,10.81L297,55.16S288.84,47.36,284.41,43.89Z"/><path class="cls-4" d="M276.57,25.51s-5,9-5.08,12.94c0,0-15.46-3.54-22.55,2l-3.57-13.59S256.59,20.49,276.57,25.51Z"/><path class="cls-2" d="M192.32,151.5l8.81-8.77c19.23,17.44,44.71,15.27,60.9.11l8.8,8.38C253.37,171,216.08,175.39,192.32,151.5Z"/></g></g></svg>