<svg width="14" height="14" viewBox="0 0 14 14" fill="none" xmlns="http://www.w3.org/2000/svg">
<path d="M3.1012 11.3394C3.45605 10.5034 4.28456 9.91699 5.25002 9.91699H8.75002C9.7155 9.91699 10.544 10.5034 10.8988 11.3394M9.33335 5.54199C9.33335 6.83063 8.28866 7.87533 7.00002 7.87533C5.71136 7.87533 4.66669 6.83063 4.66669 5.54199C4.66669 4.25333 5.71136 3.20866 7.00002 3.20866C8.28866 3.20866 9.33335 4.25333 9.33335 5.54199ZM12.8334 7.00033C12.8334 10.222 10.2217 12.8337 7.00002 12.8337C3.77836 12.8337 1.16669 10.222 1.16669 7.00033C1.16669 3.77866 3.77836 1.16699 7.00002 1.16699C10.2217 1.16699 12.8334 3.77866 12.8334 7.00033Z" stroke="#737373" stroke-linecap="round" stroke-linejoin="round"/>
</svg>
