<svg width="14" height="14" viewBox="0 0 14 14" fill="none" xmlns="http://www.w3.org/2000/svg">
<path d="M4.9 1.75H2.68333C2.35664 1.75 2.19329 1.75 2.06851 1.81358C1.95875 1.86951 1.86951 1.95875 1.81358 2.06851C1.75 2.19329 1.75 2.35664 1.75 2.68333V4.9C1.75 5.2267 1.75 5.39005 1.81358 5.51483C1.86951 5.62459 1.95875 5.71383 2.06851 5.76976C2.19329 5.83333 2.35664 5.83333 2.68333 5.83333H4.9C5.2267 5.83333 5.39005 5.83333 5.51483 5.76976C5.62459 5.71383 5.71383 5.62459 5.76976 5.51483C5.83333 5.39005 5.83333 5.2267 5.83333 4.9V2.68333C5.83333 2.35664 5.83333 2.19329 5.76976 2.06851C5.71383 1.95875 5.62459 1.86951 5.51483 1.81358C5.39005 1.75 5.2267 1.75 4.9 1.75Z" stroke="#737373" stroke-linecap="round" stroke-linejoin="round"/>
<path d="M11.3167 1.75H9.10002C8.7733 1.75 8.60996 1.75 8.48519 1.81358C8.3754 1.86951 8.28621 1.95875 8.23027 2.06851C8.16669 2.19329 8.16669 2.35664 8.16669 2.68333V4.9C8.16669 5.2267 8.16669 5.39005 8.23027 5.51483C8.28621 5.62459 8.3754 5.71383 8.48519 5.76976C8.60996 5.83333 8.7733 5.83333 9.10002 5.83333H11.3167C11.6434 5.83333 11.8067 5.83333 11.9315 5.76976C12.0413 5.71383 12.1305 5.62459 12.1864 5.51483C12.25 5.39005 12.25 5.2267 12.25 4.9V2.68333C12.25 2.35664 12.25 2.19329 12.1864 2.06851C12.1305 1.95875 12.0413 1.86951 11.9315 1.81358C11.8067 1.75 11.6434 1.75 11.3167 1.75Z" stroke="#737373" stroke-linecap="round" stroke-linejoin="round"/>
<path d="M11.3167 8.16699H9.10002C8.7733 8.16699 8.60996 8.16699 8.48519 8.23058C8.3754 8.28652 8.28621 8.37571 8.23027 8.48549C8.16669 8.61027 8.16669 8.7736 8.16669 9.10033V11.317C8.16669 11.6437 8.16669 11.8071 8.23027 11.9318C8.28621 12.0416 8.3754 12.1308 8.48519 12.1867C8.60996 12.2503 8.7733 12.2503 9.10002 12.2503H11.3167C11.6434 12.2503 11.8067 12.2503 11.9315 12.1867C12.0413 12.1308 12.1305 12.0416 12.1864 11.9318C12.25 11.8071 12.25 11.6437 12.25 11.317V9.10033C12.25 8.7736 12.25 8.61027 12.1864 8.48549C12.1305 8.37571 12.0413 8.28652 11.9315 8.23058C11.8067 8.16699 11.6434 8.16699 11.3167 8.16699Z" stroke="#737373" stroke-linecap="round" stroke-linejoin="round"/>
<path d="M4.9 8.16699H2.68333C2.35664 8.16699 2.19329 8.16699 2.06851 8.23058C1.95875 8.28652 1.86951 8.37571 1.81358 8.48549C1.75 8.61027 1.75 8.7736 1.75 9.10033V11.317C1.75 11.6437 1.75 11.8071 1.81358 11.9318C1.86951 12.0416 1.95875 12.1308 2.06851 12.1867C2.19329 12.2503 2.35664 12.2503 2.68333 12.2503H4.9C5.2267 12.2503 5.39005 12.2503 5.51483 12.1867C5.62459 12.1308 5.71383 12.0416 5.76976 11.9318C5.83333 11.8071 5.83333 11.6437 5.83333 11.317V9.10033C5.83333 8.7736 5.83333 8.61027 5.76976 8.48549C5.71383 8.37571 5.62459 8.28652 5.51483 8.23058C5.39005 8.16699 5.2267 8.16699 4.9 8.16699Z" stroke="#737373" stroke-linecap="round" stroke-linejoin="round"/>
</svg>
