<svg width="12" height="10" viewBox="0 0 12 10" fill="none" xmlns="http://www.w3.org/2000/svg">
<path d="M11.25 5.00033H4.25M11.25 1.50033H4.25M11.25 8.50033H4.25M1.91667 5.00033C1.91667 5.3225 1.6555 5.58366 1.33333 5.58366C1.01117 5.58366 0.75 5.3225 0.75 5.00033C0.75 4.67815 1.01117 4.41699 1.33333 4.41699C1.6555 4.41699 1.91667 4.67815 1.91667 5.00033ZM1.91667 1.50033C1.91667 1.82249 1.6555 2.08366 1.33333 2.08366C1.01117 2.08366 0.75 1.82249 0.75 1.50033C0.75 1.17816 1.01117 0.916992 1.33333 0.916992C1.6555 0.916992 1.91667 1.17816 1.91667 1.50033ZM1.91667 8.50033C1.91667 8.8225 1.6555 9.08366 1.33333 9.08366C1.01117 9.08366 0.75 8.8225 0.75 8.50033C0.75 8.17815 1.01117 7.91699 1.33333 7.91699C1.6555 7.91699 1.91667 8.17815 1.91667 8.50033Z" stroke="#1E1E1E" stroke-linecap="round" stroke-linejoin="round"/>
</svg>
