<svg width="20" height="20" viewBox="0 0 20 20" fill="none" xmlns="http://www.w3.org/2000/svg">
<path d="M9.99997 16.6662H17.5M2.5 16.6662H3.89545C4.30311 16.6662 4.50693 16.6662 4.69874 16.6201C4.8688 16.5793 5.03137 16.512 5.1805 16.4206C5.34869 16.3175 5.49282 16.1734 5.78108 15.8851L16.2501 5.4162C16.9404 4.72585 16.9404 3.60656 16.2501 2.9162C15.5596 2.22585 14.4404 2.22585 13.7501 2.9162L3.28105 13.3851C2.9928 13.6734 2.84867 13.8175 2.7456 13.9857C2.65422 14.1349 2.58687 14.2974 2.54605 14.4675C2.5 14.6593 2.5 14.8631 2.5 15.2708V16.6662Z" stroke="#FF7C00" stroke-linecap="round" stroke-linejoin="round"/>
</svg>
