<svg width="12" height="13" viewBox="0 0 12 13" fill="none" xmlns="http://www.w3.org/2000/svg">
<path d="M3.66667 9.91661H8.33333M5.42699 1.61227L1.47064 4.68943C1.20618 4.89513 1.07395 4.99797 0.978684 5.12677C0.894299 5.24086 0.831433 5.36939 0.793184 5.50605C0.75 5.66033 0.75 5.82785 0.75 6.16291V10.3833C0.75 11.0367 0.75 11.3633 0.877161 11.6129C0.989009 11.8324 1.16749 12.0109 1.38701 12.1228C1.63657 12.2499 1.96327 12.2499 2.61667 12.2499H9.38333C10.0367 12.2499 10.3635 12.2499 10.613 12.1228C10.8325 12.0109 11.011 11.8324 11.1228 11.6129C11.25 11.3633 11.25 11.0367 11.25 10.3833V6.16291C11.25 5.82785 11.25 5.66033 11.2068 5.50605C11.1686 5.36939 11.1057 5.24086 11.0213 5.12677C10.9261 4.99797 10.7938 4.89513 10.5294 4.68943L6.57301 1.61227C6.36808 1.45288 6.26559 1.37318 6.15242 1.34254C6.05262 1.31551 5.94738 1.31551 5.84757 1.34254C5.73441 1.37318 5.63192 1.45288 5.42699 1.61227Z" stroke="#1E1E1E" stroke-linecap="round" stroke-linejoin="round"/>
</svg>
